<svg viewBox="0 0 20.09 20.24" xmlns="http://www.w3.org/2000/svg"><g fill="#45feff"><path d="m17.88 20.24h-15.67a2.21 2.21 0 0 1 -2.21-2.24v-9.45a2.21 2.21 0 0 1  .78-1.68l7.22-6.12a3.16 3.16 0 0 1 4.1 0l7.2 6.11a2.21 2.21 0 0 1  .78 1.69v9.45a2.21 2.21 0 0 1 -2.2 2.24zm-7.82-19a2 2 0 0 0 -1.28.47l-7.23 6.07a1 1 0 0 0 -.36.78v9.44a1 1 0 0 0 1 1h15.69a1 1 0 0 0 1-1v-9.45a1 1 0 0 0 -.36-.78l-7.2-6.11a2 2 0 0 0 -1.26-.47z"/><path d="m10 14.43a.59.59 0 0 1 -.29-.07l-7.71-4.3a.6.6 0 0 1  .58-1l7.42 4.09 7.42-4.15a.6.6 0 1 1  .58 1l-7.73 4.29a.59.59 0 0 1 -.27.14z"/><path d="m14.83 11.56a.59.59 0 0 1 -.6-.6v-3.76h-8.37v3.8a.6.6 0 0 1 -1.19 0v-4.4a.59.59 0 0 1  .6-.6h9.56a.59.59 0 0 1  .6.6v4.4a.59.59 0 0 1 -.6.56z"/><path d="m12.73 9.38h-5.37a.6.6 0 1 1 0-1.19h5.37a.6.6 0 0 1 0 1.19z"/><path d="m12.73 11h-5.37a.6.6 0 0 1 0-1.19h5.37a.6.6 0 0 1 0 1.19z"/></g></svg>