<svg xmlns="http://www.w3.org/2000/svg" viewBox="0 0 20.09 20.24"><defs><style>.cls-1{fill:#45feff;}</style></defs><title>email</title><g id="Layer_2" data-name="Layer 2"><g id="Layer_1-2" data-name="Layer 1"><path class="cls-1" d="M17.88,20.24H2.21A2.21,2.21,0,0,1,0,18V8.55A2.21,2.21,0,0,1,.78,6.87L8,.75a3.16,3.16,0,0,1,4.1,0l7.2,6.11a2.21,2.21,0,0,1,.78,1.69V18A2.21,2.21,0,0,1,17.88,20.24Zm-7.82-19a2,2,0,0,0-1.28.47L1.55,7.78a1,1,0,0,0-.36.78V18a1,1,0,0,0,1,1H17.88a1,1,0,0,0,1-1V8.55a1,1,0,0,0-.36-.78l-7.2-6.11A2,2,0,0,0,10.06,1.19Z"/><path class="cls-1" d="M10,14.43a.59.59,0,0,1-.29-.07L2,10.06a.6.6,0,0,1,.58-1L10,13.15,17.42,9a.6.6,0,1,1,.58,1l-7.73,4.29A.59.59,0,0,1,10,14.43Z"/><path class="cls-1" d="M14.83,11.56a.59.59,0,0,1-.6-.6V7.2H5.86V11a.6.6,0,0,1-1.19,0V6.6a.59.59,0,0,1,.6-.6h9.56a.59.59,0,0,1,.6.6V11A.59.59,0,0,1,14.83,11.56Z"/><path class="cls-1" d="M12.73,9.38H7.36a.6.6,0,1,1,0-1.19h5.37a.6.6,0,0,1,0,1.19Z"/><path class="cls-1" d="M12.73,11H7.36a.6.6,0,0,1,0-1.19h5.37a.6.6,0,0,1,0,1.19Z"/></g></g></svg>