<?xml version="1.0" encoding="utf-8"?>
<!-- Generator: Adobe Illustrator 21.1.0, SVG Export Plug-In . SVG Version: 6.00 Build 0)  -->
<svg version="1.1" id="svg4441" xmlns:svg="http://www.w3.org/2000/svg"
	 xmlns="http://www.w3.org/2000/svg" xmlns:xlink="http://www.w3.org/1999/xlink" x="0px" y="0px" viewBox="0 0 1024 124"
	 style="enable-background:new 0 0 1024 124;" xml:space="preserve">
<style type="text/css">
	.st0{fill:#FFFFFF;}
</style>
<path id="path4380" class="st0" d="M663.1,119.2h-28V5l90.1,0.1c0,0,16.5-0.6,27,9.7c0,0,10.7,8.9,10.7,30.8v73.6h-27.9V43.7
	c0,0,0.3-7.7-2.3-10.4c0,0-2.3-2.9-6.7-2.9H663L663.1,119.2L663.1,119.2z M782.3,119.2v-107V5h112.4v25.4l-84.5,0v19.4h58.7v24.5
	h-58.7v19.5h85.1v25.4L782.3,119.2L782.3,119.2z M586.3,119.2v-107V5h27.9v114.2H586.3z M941.9,23.2v-3.8V23.2z M934.7,119.2V30.4
	h-26.3V5h104.7v25.4h-50.5v88.8H934.7z M501.4,23.2v-3.8V23.2z M494.2,119.2V30.4h-26.3V5h104.7v25.4H522v88.8H494.2z M410.1,49.8
	c6.8-0.1,10.9,0,12.5-1c0,0,2.9-1.6,2.9-5l0-7.5c0-3.4-2.9-5-2.9-5c-2.2-1.2-5.9-1-14.6-1h-54.3v19.4h57.6L410.1,49.8L410.1,49.8z
	 M425.1,119.2v-39c0-3.5-2.9-5-2.9-5c-1.3-0.8-5.3-1-11.1-1h1.4h-58.7v44.9h-27.9v-107V5h87c15,0,25.4,2.3,32.6,9.2
	c7,7.2,8,16.5,8,26.3v8.1c0.1,8.3-4.3,15.8-9.4,20.2l1,0.5c2.1,1,3.3,2.5,3.3,2.5c3.9,5,3.9,9.4,3.9,14.7v32.7L425.1,119.2
	L425.1,119.2z M3.5,5v7.2v107h27.9V74.3h84.5V49.8H31.4V30.4h98.2V5L3.5,5z"/>
<path id="path4384" class="st0" d="M1003.5,99v5.2h4.9c1.3,0,2.6-0.4,2.8-2.3c0.3-2.6-1.6-2.9-2.8-2.9H1003.5z M1001.5,97.3h6.8
	c2.4,0,4.6,0.4,4.8,3.9c0.1,2-0.5,2.7-2,3.8c1.6,1,1.6,1.2,1.8,3.9c0.2,2-0.1,2.3,0.7,3.6h-2.3l-0.3-1.9c-0.3-1.8,0.6-4.6-2.6-4.6
	h-5v6.5h-2L1001.5,97.3L1001.5,97.3z M1006.7,93.1c-6.7,0-12.2,5.5-12.2,12.2c0,6.7,5.4,12.2,12.2,12.2c6.7,0,12.2-5.4,12.2-12.2
	C1018.9,98.6,1013.4,93.1,1006.7,93.1 M1006.7,119.1c-7.6,0-13.8-6.2-13.8-13.8c0-7.6,6.2-13.8,13.8-13.8c7.6,0,13.8,6.2,13.8,13.8
	C1020.5,112.9,1014.3,119.1,1006.7,119.1"/>
<path id="path4408" class="st0" d="M287.5,120.3c9.1-3.1,16.1-13.5,17.8-26.6v-3.8h-46.4v30.4H287.5z M305.3,34.1v-3.4
	c-1.8-13.7-9.4-24.5-19-27h-27.4v30.4C258.9,34.1,305.3,34.1,305.3,34.1z M141.9,89.9v3.8c1.7,13.1,8.7,23.6,17.8,26.7h28.5V89.9
	H141.9z M160.9,3.7c-9.6,2.5-17.2,13.3-19,27v3.4h46.3V3.7H160.9z M305.3,46.8h-46.4v30.4h46.4V46.8z M200.8,120.3h45.4V89.9h-45.4
	V120.3L200.8,120.3z M246.2,3.7h-45.4v30.4h45.4C246.2,34.1,246.2,3.7,246.2,3.7z M141.9,77.2h46.3V46.8h-46.3V77.2z"/>
</svg>
