<svg xmlns="http://www.w3.org/2000/svg" viewBox="0 0 19.05 20.46"><defs><style>.cls-1{fill:#45feff;}</style></defs><title>name</title><g id="Layer_2" data-name="Layer 2"><g id="Layer_1-2" data-name="Layer 1"><path class="cls-1" d="M19,20.46H0v-.82A5.59,5.59,0,0,1,2.07,16L5.36,14a1.52,1.52,0,0,1,1.62,0l2.51,1.5L12,13.89a1.48,1.48,0,0,1,1.63,0L17,16A5.62,5.62,0,0,1,19,19.64ZM1.49,19.27h16a4.78,4.78,0,0,0-1.33-2.14L13,14.94a.32.32,0,0,0-.34,0L9.51,16.83,6.39,15a.3.3,0,0,0-.33,0L2.81,17.14A4.76,4.76,0,0,0,1.49,19.27Z"/><path class="cls-1" d="M7.06,15.25a.6.6,0,0,1-.46-1h0A4,4,0,0,0,7,12.41a7.54,7.54,0,0,1-1.52-2.28A1.52,1.52,0,0,1,5,9.89a2.5,2.5,0,0,1-.9-1.72,2,2,0,0,1,.32-1.6,1.39,1.39,0,0,1,.39-.33,5.68,5.68,0,0,1,1.28-4,2.16,2.16,0,0,1,.67-.43l.7-.31A4.22,4.22,0,0,1,8,.28.6.6,0,0,1,8.89.14,3.34,3.34,0,0,0,10,.69a5.73,5.73,0,0,1,2.59,1.64c1.38.93,1.61,3,1.64,3.9a1.38,1.38,0,0,1,.41.34A2,2,0,0,1,15,8.17a2.5,2.5,0,0,1-.9,1.72,1.52,1.52,0,0,1-.5.24A7.54,7.54,0,0,1,12,12.41a3.94,3.94,0,0,0,.45,1.89.6.6,0,0,1-.12.83.59.59,0,0,1-.82-.1,4.93,4.93,0,0,1-.71-2.84.6.6,0,0,1,.18-.44,5.94,5.94,0,0,0,1.54-2.33A.6.6,0,0,1,13.24,9h0c.13,0,.42-.21.55-1,.07-.44,0-.6-.06-.66a.26.26,0,0,0-.11-.07A.6.6,0,0,1,13,6.64c0-.71-.12-2.69-1.16-3.34a.6.6,0,0,1-.13-.11A4.58,4.58,0,0,0,9.6,1.81a6.92,6.92,0,0,1-.86-.35A2.59,2.59,0,0,0,8.58,2a.6.6,0,0,1-.35.49l-1,.43a1,1,0,0,0-.31.19C5.82,4.22,6,6.58,6,6.6a.6.6,0,0,1-.57.65.2.2,0,0,0-.12.08c0,.05-.12.22-.06.65.13.81.41,1,.58,1a.56.56,0,0,1,.64.43,6.06,6.06,0,0,0,1.54,2.33.6.6,0,0,1,.18.45A4.94,4.94,0,0,1,7.53,15,.59.59,0,0,1,7.06,15.25Z"/></g></g></svg>