<svg viewBox="0 0 19.05 20.46" xmlns="http://www.w3.org/2000/svg"><path d="m19 20.46h-19v-.82a5.59 5.59 0 0 1 2.07-3.64l3.29-2a1.52 1.52 0 0 1 1.62 0l2.51 1.5 2.51-1.61a1.48 1.48 0 0 1 1.63 0l3.37 2.11a5.62 5.62 0 0 1 2 3.64zm-17.51-1.19h16a4.78 4.78 0 0 0 -1.33-2.14l-3.16-2.19a.32.32 0 0 0 -.34 0l-3.15 1.89-3.12-1.83a.3.3 0 0 0 -.33 0l-3.25 2.14a4.76 4.76 0 0 0 -1.32 2.13z" fill="#45feff"/><path d="m7.06 15.25a.6.6 0 0 1 -.46-1h0a4 4 0 0 0  .4-1.84 7.54 7.54 0 0 1 -1.52-2.28 1.52 1.52 0 0 1 -.48-.24 2.5 2.5 0 0 1 -.9-1.72 2 2 0 0 1  .32-1.6 1.39 1.39 0 0 1  .39-.33 5.68 5.68 0 0 1  1.28-4 2.16 2.16 0 0 1  .67-.43l.7-.31a4.22 4.22 0 0 1  .54-1.22.6.6 0 0 1  .89-.14 3.34 3.34 0 0 0  1.11.55 5.73 5.73 0 0 1  2.59 1.64c1.38.93 1.61 3 1.64 3.9a1.38 1.38 0 0 1  .41.34 2 2 0 0 1  .36 1.6 2.5 2.5 0 0 1 -.9 1.72 1.52 1.52 0 0 1 -.5.24 7.54 7.54 0 0 1 -1.6 2.28 3.94 3.94 0 0 0  .45 1.89.6.6 0 0 1 -.12.83.59.59 0 0 1 -.82-.1 4.93 4.93 0 0 1 -.71-2.84.6.6 0 0 1  .18-.44 5.94 5.94 0 0 0  1.54-2.33.6.6 0 0 1  .72-.42h0c .13 0 .42-.21.55-1 .07-.44 0-.6-.06-.66a.26.26 0 0 0 -.11-.07.6.6 0 0 1 -.62-.63c0-.71-.12-2.69-1.16-3.34a.6.6 0 0 1 -.13-.11 4.58 4.58 0 0 0 -2.11-1.38 6.92 6.92 0 0 1 -.86-.35 2.59 2.59 0 0 0 -.16.54.6.6 0 0 1 -.35.49l-1 .43a1 1 0 0 0 -.31.19c-1.1 1.11-.92 3.47-.92 3.49a.6.6 0 0 1 -.57.65.2.2 0 0 0 -.12.08c0 .05-.12.22-.06.65.13.81.41 1 .58 1a .56.56 0 0 1  .64.43 6.06 6.06 0 0 0  1.54 2.33.6.6 0 0 1  .18.45 4.94 4.94 0 0 1 -.66 2.81.59.59 0 0 1 -.47.25z" fill="#45feff"/></svg>