<svg viewBox="0 0 19.89 20.24" xmlns="http://www.w3.org/2000/svg"><path d="m14.61 20.24a6.76 6.76 0 0 1 -.72 0 15.94 15.94 0 0 1 -9.09-4.88 15.5 15.5 0 0 1 -4.8-9.01c-.31-3 1-5.35 3.54-6.24a2 2 0 0 1 2.46 1.05l1.2 2.6a2 2 0 0 1 -.39 2.24l-1.63 1.61a10.79 10.79 0 0 0 2.82 3.85 11 11 0 0 0  3.87 2.82l1.59-1.59a2 2 0 0 1 2.28-.37l3.05 1.53a2 2 0 0 1 1 2.31 5.24 5.24 0 0 1 -5.18 4.08zm-10.39-19.05a.7.7 0 0 0 -.23 0c-2 .71-3 2.58-2.76 5v0a14.48 14.48 0 0 0 4.42 8.27 15 15 0 0 0  8.35 4.54 4.11 4.11 0 0 0  4.67-3.18.79.79 0 0 0 -.41-.91l-3.05-1.53a.78.78 0 0 0 -.9.15l-2 2h-.27c-.18 0-1.84-.22-4.85-3.23s-3.25-4.7-3.25-4.87v-.26l2-2a .78.78 0 0 0  .16-.88l-1.2-2.6a.79.79 0 0 0 -.68-.5z" fill="#45feff"/></svg>