<svg height="0" style="display: none;" overflow="hidden" width="0" xmlns="http://www.w3.org/2000/svg"><defs><symbol id="icon-mobile-header-roof" viewBox="0 0 201 32"><path d="m200.784 10.667-100.392 21.333-100.392-21.333v-10.667h200.784z"/></symbol><symbol id="icon-switches" viewBox="0 0 32 32"><path d="m31.947 16c0 8.807-7.14 15.947-15.947 15.947s-15.947-7.14-15.947-15.947 7.14-15.947 15.947-15.947 15.947 7.14 15.947 15.947z" fill="#1d1d1b" opacity=".5"/><path d="m16 32c-8.823 0-16-7.177-16-16s7.177-16 16-16 16 7.177 16 16-7.177 16-16 16zm0-31.894c-8.763 0-15.894 7.13-15.894 15.894s7.13 15.894 15.894 15.894 15.894-7.13 15.894-15.894-7.13-15.894-15.894-15.894z" fill="#fff"/><path d="m23.92 22.884h-15.841c-.49-.001-.887-.398-.888-.888v-3.869c.001-.49.398-.887.888-.888h15.841c.49.001.887.398.888.888v3.869c-.001.49-.398.887-.888.888zm-15.84-5.325c-.314 0-.569.255-.569.569v3.869c0 .314.255.569.569.569h15.841c.314 0 .569-.255.569-.569v-3.869c0-.314-.255-.569-.569-.569z" fill="#45feff"/><path d="m10.312 21.339c-.705 0-1.276-.571-1.276-1.276s.571-1.276 1.276-1.276 1.276.571 1.276 1.276-.571 1.276-1.276 1.276zm0-2.233c-.528 0-.957.428-.957.957s.428.957.957.957c.528 0 .957-.428.957-.957 0-.001 0-.001 0-.002 0-.528-.428-.957-.957-.957v0z" fill="#45feff"/><path d="m15.77 19.367h-1.051c-.088 0-.159-.071-.159-.159v-.526c0-.088.071-.159.159-.159h1.051c.088 0 .159.071.159.159v.526c0 .088-.071.159-.159.159zm-.892-.319h.732v-.207h-.732z" fill="#45feff"/><path d="m17.611 19.367h-1.051c-.088 0-.159-.071-.159-.159v-.526c0-.088.071-.159.159-.159h1.051c.088 0 .159.071.159.159v.526c0 .088-.071.159-.159.159zm-.892-.319h.733v-.207h-.733z" fill="#45feff"/><path d="m19.455 19.367h-1.051c-.088 0-.159-.071-.159-.159v-.526c0-.088.071-.159.159-.159h1.051c.088 0 .159.071.159.159v.526c0 .088-.071.159-.159.159zm-.892-.319h.733v-.207h-.733z" fill="#45feff"/><path d="m21.292 19.367h-1.051c-.088 0-.159-.071-.159-.159v-.526c0-.088.071-.159.159-.159h1.051c.088 0 .159.071.159.159v.526c0 .088-.071.159-.159.159zm-.892-.319h.733v-.207h-.733z" fill="#45feff"/><path d="m23.133 19.367h-1.051c-.088 0-.159-.071-.159-.159v-.526c0-.088.071-.159.159-.159h1.051c.088 0 .159.071.159.159v.526c0 .088-.071.159-.159.159zm-.892-.319h.733v-.207h-.733z" fill="#45feff"/><path d="m15.77 20.879h-1.051c-.088 0-.159-.071-.159-.159v-.526c0-.088.071-.159.159-.159h1.051c.088 0 .159.071.159.159v.526c0 .088-.071.159-.159.159zm-.892-.319h.732v-.207h-.732z" fill="#45feff"/><path d="m17.611 20.879h-1.051c-.088 0-.159-.071-.159-.159v-.526c0-.088.071-.159.159-.159h1.051c.088 0 .159.071.159.159v.526c0 .088-.071.159-.159.159zm-.892-.319h.733v-.207h-.733z" fill="#45feff"/><path d="m19.455 20.879h-1.051c-.088 0-.159-.071-.159-.159v-.526c0-.088.071-.159.159-.159h1.051c.088 0 .159.071.159.159v.526c0 .088-.071.159-.159.159zm-.892-.319h.733v-.207h-.733z" fill="#45feff"/><path d="m21.292 20.879h-1.051c-.088 0-.159-.071-.159-.159v-.526c0-.088.071-.159.159-.159h1.051c.088 0 .159.071.159.159v.526c0 .088-.071.159-.159.159zm-.892-.319h.733v-.207h-.733z" fill="#45feff"/><path d="m23.133 20.879h-1.051c-.088 0-.159-.071-.159-.159v-.526c0-.088.071-.159.159-.159h1.051c.088 0 .159.071.159.159v.526c0 .088-.071.159-.159.159zm-.892-.319h.733v-.207h-.733z" fill="#45feff"/><path d="m10.905 24.133h-2.104c-.088 0-.159-.071-.159-.159v-1.249c0-.088.071-.159.159-.159h2.104c.088 0 .159.071.159.159v1.249c0 .088-.071.159-.159.159zm-1.944-.319h1.785v-.93h-1.785z" fill="#45feff"/><path d="m23.198 24.133h-2.104c-.088 0-.159-.071-.159-.159v-1.249c0-.088.071-.159.159-.159h2.104c.088 0 .159.071.159.159v1.249c0 .088-.071.159-.159.159zm-1.944-.319h1.785v-.93h-1.785z" fill="#45feff"/><path d="m14.916 12.793c-.414-.001-.749-.336-.749-.751s.336-.751.751-.751.751.336.751.751c-.001.415-.337.751-.752.751zm0-1.184c-.238.001-.431.194-.431.432s.193.432.432.432c.238 0 .431-.193.432-.431 0-.239-.194-.433-.433-.433z" fill="#45feff"/><path d="m14.916 17.527c-.088 0-.159-.071-.159-.159v-4.734c0-.088.071-.159.159-.159s.159.071.159.159v4.733.001c0 .088-.071.159-.159.159z" fill="#45feff"/><path d="m12.975 14.256c-.041-.001-.079-.017-.106-.044-.578-.545-.937-1.316-.937-2.171s.36-1.626.936-2.17c.027-.019.058-.029.091-.029.088 0 .159.071.159.159 0 .037-.013.071-.034.098-.515.487-.837 1.175-.837 1.939s.321 1.452.835 1.938c.032.03.051.072.051.117 0 .087-.07.158-.156.159z" fill="#45feff"/><path d="m12.074 15.212c-.041-.001-.079-.017-.106-.044-.832-.785-1.35-1.896-1.35-3.127s.518-2.342 1.348-3.125c.027-.019.057-.029.09-.029.088 0 .159.071.159.159 0 .036-.012.069-.032.096-.77.727-1.25 1.755-1.25 2.895s.48 2.168 1.248 2.894c.033.031.052.072.052.118 0 .087-.07.158-.156.159z" fill="#45feff"/><path d="m11.127 16.217c-.041-.001-.079-.017-.106-.044-1.099-1.038-1.783-2.505-1.783-4.131s.684-3.094 1.781-4.129c.031-.028.069-.044.11-.044.088 0 .159.071.159.159 0 .044-.018.085-.047.114-1.037.979-1.683 2.364-1.683 3.899s.646 2.92 1.68 3.897c.033.032.053.073.053.118 0 .087-.07.158-.156.159z" fill="#45feff"/><path d="m16.756 14.256c-.087-.002-.156-.072-.156-.159 0-.046.019-.087.05-.116.516-.487.837-1.176.837-1.939s-.321-1.452-.835-1.938c-.031-.03-.049-.07-.049-.115 0-.088.071-.159.159-.159.041 0 .079.016.107.041.577.545.937 1.316.937 2.171s-.36 1.626-.936 2.17c-.03.028-.068.044-.11.044-.001 0-.003 0-.004 0z" fill="#45feff"/><path d="m17.658 15.212c-.087-.002-.156-.072-.156-.159 0-.046.019-.087.05-.116.77-.727 1.25-1.755 1.25-2.896s-.48-2.168-1.248-2.894c-.031-.031-.049-.071-.049-.115 0-.088.071-.159.159-.159.041 0 .079.016.107.041.832.785 1.35 1.896 1.35 3.127s-.518 2.342-1.348 3.125c-.031.029-.069.046-.112.046-.001 0-.002 0-.003 0z" fill="#45feff"/><path d="m18.605 16.217c-.087-.002-.156-.073-.156-.159 0-.046.019-.087.05-.116 1.037-.979 1.683-2.364 1.683-3.899s-.646-2.92-1.68-3.897c-.025-.03-.038-.065-.038-.103 0-.088.071-.159.159-.159.033 0 .064.01.089.027 1.099 1.037 1.783 2.504 1.783 4.131s-.684 3.094-1.781 4.129c-.03.029-.068.045-.109.046z" fill="#45feff"/></symbol><symbol id="icon-mail" viewBox="0 0 32 32"><path d="m31.947 16c0 8.807-7.14 15.947-15.947 15.947s-15.947-7.14-15.947-15.947 7.14-15.947 15.947-15.947 15.947 7.14 15.947 15.947z" fill="#1d1d1b" opacity=".5"/><path d="m16 32c-8.823 0-16-7.177-16-16s7.177-16 16-16 16 7.177 16 16-7.177 16-16 16zm0-31.894c-8.763 0-15.894 7.13-15.894 15.894s7.13 15.894 15.894 15.894 15.894-7.13 15.894-15.894-7.13-15.894-15.894-15.894z" fill="#fff"/><path d="m20.661 18.204h-9.321c-.424-.001-.768-.345-.768-.769v-6.143c.001-.424.344-.767.768-.768h9.322c.424.001.767.344.768.768v6.143 0c0 .424-.344.768-.768.769zm-9.322-7.36c-.248.001-.448.201-.449.449v6.143c.001.248.201.448.449.449h9.322c.248-.001.448-.201.449-.449v-6.143c-.001-.248-.201-.448-.449-.449z" fill="#45feff"/><path d="m16 15.566-5.428-3.995v-.279c.001-.424.344-.767.768-.768h9.322c.424.001.767.344.768.768v.279zm-5.109-4.157 5.109 3.76 5.109-3.76v-.117c-.001-.248-.201-.448-.449-.449h-9.322c-.248.001-.448.201-.449.449z" fill="#45feff"/><path d="m13.512 18.134v3.022c0 .085.069.154.154.154h4.665.002c.085 0 .154-.069.154-.154v0-3.022c0-.085-.069-.154-.154-.154h-4.666-.001c-.085 0-.154.069-.154.154zm2.86 2.332h-.744l.156-.695c-.186-.084-.313-.267-.313-.48 0-.29.235-.525.525-.525s.525.235.525.525c0 .213-.127.397-.309.479z" fill="#45feff"/><path d="m17.967 19.168h-.587v-1.846c0-.755-.612-1.367-1.367-1.367s-1.367.612-1.367 1.367v1.846h-.587v-1.846c0-1.079.875-1.954 1.954-1.954s1.954.875 1.954 1.954z" fill="#45feff"/></symbol><symbol id="icon-siem" viewBox="0 0 32 32"><path d="m31.947 16c0 8.807-7.14 15.947-15.947 15.947s-15.947-7.14-15.947-15.947 7.14-15.947 15.947-15.947 15.947 7.14 15.947 15.947z" fill="#1d1d1b" opacity=".5"/><path d="m16 32c-8.823 0-16-7.177-16-16s7.177-16 16-16 16 7.177 16 16-7.177 16-16 16zm0-31.894c-8.763 0-15.894 7.13-15.894 15.894s7.13 15.894 15.894 15.894 15.894-7.13 15.894-15.894-7.13-15.894-15.894-15.894z" fill="#fff"/><path d="m13.386 17.157-.047-.014c-2.775-.843-2.862-4.24-2.862-4.274v-.142l.141-.018c.213-.027.583-.135.67-.309.099-.198-.045-.54-.106-.644l-.088-.159.169-.067c.89-.351 2.07-.355 2.12-.355s1.23 0 2.12.355l.169.067-.088.159c-.062.113-.201.448-.106.644s.491.287.67.309l.142.018v.144c0 .034-.087 3.43-2.862 4.274zm-2.581-4.158c.048.612.376 3.12 2.581 3.827 2.206-.704 2.534-3.212 2.581-3.827-.223-.048-.625-.171-.769-.457-.131-.262-.046-.58.031-.774-.815-.271-1.833-.275-1.845-.275s-1.03 0-1.845.275c.077.194.162.512.031.774-.141.287-.543.41-.767.458z" fill="#45feff"/><path d="m10.557 17.09c-.782-.91-1.258-2.103-1.258-3.408 0-1.287.464-2.465 1.233-3.378q.091-.105.197-.205c-1.214.76-2.01 2.09-2.01 3.606 0 1.563.846 2.929 2.106 3.664q-.131-.127-.267-.28z" fill="#45feff"/><path d="m24.755 21.594c-2.028-1.624-4.146-3.138-6.32-4.592l-.219.26-.355-.296.447-.532-.386-.325c.357-.718.566-1.564.566-2.458 0-3.103-2.516-5.619-5.619-5.619s-5.619 2.516-5.619 5.619 2.516 5.619 5.619 5.619c1.242 0 2.39-.403 3.32-1.085l.365.33.447-.532.351.296-.203.241c1.807 1.892 3.655 3.721 5.599 5.447.29-.084.744-.54 1.1-.94v0l .082-.099.083-.098c.333-.409.709-.938.742-1.237zm-8.233-4.867c-.882 1.043-2.192 1.7-3.655 1.7-2.639 0-4.778-2.139-4.778-4.778s2.139-4.778 4.778-4.778c2.495 0 4.544 1.913 4.759 4.352.013.142.019.285.019.431 0 1.174-.425 2.249-1.129 3.079z" fill="#45feff"/></symbol><symbol id="icon-adc" viewBox="0 0 32 32"><path d="m31.947 16c0 8.807-7.14 15.947-15.947 15.947s-15.947-7.14-15.947-15.947 7.14-15.947 15.947-15.947 15.947 7.14 15.947 15.947z" fill="#1d1d1b" opacity=".5"/><path d="m16 32c-8.823 0-16-7.177-16-16s7.177-16 16-16 16 7.177 16 16-7.177 16-16 16zm0-31.894c-8.763 0-15.894 7.13-15.894 15.894s7.13 15.894 15.894 15.894 15.894-7.13 15.894-15.894-7.13-15.894-15.894-15.894z" fill="#fff"/><path d="m24.903 13.513h-6.309c-.088 0-.159-.072-.159-.159 0-.032.01-.063.026-.088l3.244-4.951c.029-.044.078-.072.133-.072h0c .056.001.106.03.134.075l3.064 4.953c.015.024.024.053.024.084 0 .088-.071.159-.159.159 0 0 0 0-.001 0zm-6.013-.319h5.727l-2.782-4.496z" fill="#45feff"/><path d="m21.77 12.301c-.462 0-.869-.398-1-.973-.1-.102-.164-.24-.17-.393 0-.01-.001-.02-.001-.03 0-.112.03-.218.083-.308.002-.275.115-.526.295-.711.202-.205.483-.332.793-.332s.592.127.793.332c.179.184.29.435.294.712.051.088.081.194.081.306 0 .01 0 .02-.001.03-.006.153-.07.291-.17.393-.13.579-.535.974-.998.974zm0-2.428c-.002 0-.005 0-.008 0-.218 0-.415.09-.556.235-.128.131-.207.309-.207.507v.026.004c0 .035-.011.067-.03.093-.032.046-.052.104-.052.166v.015c.002.08.039.152.096.2.029.023.049.056.057.093.089.454.377.77.699.77s.61-.319.7-.769c.008-.038.028-.07.056-.093.058-.049.095-.121.097-.201 0-.005 0-.01 0-.015 0-.062-.02-.12-.053-.167-.018-.025-.029-.057-.029-.092 0-.002 0-.003 0-.005 0-.007 0-.016 0-.024 0-.197-.079-.376-.207-.507-.141-.145-.338-.235-.556-.235-.003 0-.005 0-.008 0z" fill="#45feff"/><path d="m19.938 13.513s0 0-.001 0c-.088 0-.159-.071-.159-.159 0-.014.002-.028.005-.04.14-.556.605-1.01 1.243-1.214.014-.005.031-.007.048-.007.062 0 .115.035.142.086.101.196.301.327.532.327s.431-.131.53-.323c.029-.055.082-.091.144-.091.017 0 .034.003.049.008.637.204 1.101.659 1.242 1.215.003.012.005.025.005.039 0 .088-.071.159-.159.159-.074 0-.137-.051-.154-.12-.107-.417-.444-.764-.915-.949-.168.231-.438.379-.742.379s-.573-.148-.74-.376c-.473.182-.811.529-.916.946-.018.07-.079.12-.153.121z" fill="#45feff"/><path d="m21.142 10.844c-.002 0-.005 0-.008 0-.12 0-.236-.016-.346-.045-.059-.017-.109-.079-.109-.152 0-.088.071-.16.16-.16.015 0 .029.002.043.006.03.008.726.183.982-.393.025-.057.081-.097.147-.097s.122.039.146.096c0 .008.118.252.532.252.088 0 .159.071.159.159s-.071.159-.159.159v0c-.013.001-.028.001-.044.001-.238 0-.456-.087-.623-.231-.199.247-.503.404-.842.404-.013 0-.026 0-.04-.001z" fill="#45feff"/><path d="m15.124 22.464c-.088 0-.159-.071-.159-.159v-11.154c0-.088.071-.159.159-.159s.159.071.159.159v11.154c0 .088-.071.159-.159.159z" fill="#45feff"/><path d="m16.876 22.464c-.088 0-.159-.071-.159-.159v-11.154c0-.088.071-.159.159-.159s.159.071.159.159v11.154c0 .088-.071.159-.159.159z" fill="#45feff"/><path d="m20.251 24.133h-8.505v0c-.088 0-.159-.071-.159-.159 0-.03.008-.058.023-.083.637-1.073 2.406-1.794 4.387-1.794s3.744.721 4.387 1.795c.014.023.023.052.023.082 0 .088-.071.159-.159.159v0zm-8.193-.319h7.886c-.697-.851-2.233-1.398-3.943-1.398s-3.244.547-3.944 1.398z" fill="#45feff"/><path d="m16.035 11.588c-.863 0-1.562-.699-1.562-1.562s.699-1.562 1.562-1.562 1.562.699 1.562 1.562-.699 1.561-1.562 1.562zm0-2.803c-.686 0-1.243.556-1.243 1.243s.556 1.243 1.243 1.243c.686 0 1.243-.556 1.243-1.243 0-.001 0-.001 0-.002 0-.687-.556-1.243-1.243-1.244z" fill="#45feff"/><path d="m17.381 9.79c-.088 0-.159-.071-.159-.159 0-.072.048-.133.114-.153l5.49-1.605c.013-.004.029-.006.045-.006.088 0 .159.071.159.159 0 .072-.048.133-.114.153l-5.49 1.601c-.013.005-.028.008-.044.01z" fill="#45feff"/><path d="m12.281 11.281c-.088 0-.159-.071-.159-.159 0-.072.048-.133.114-.153l2.409-.704c.013-.004.029-.006.045-.006.088 0 .159.071.159.159 0 .072-.048.133-.114.153l-2.409.704c-.013.004-.029.006-.045.006z" fill="#45feff"/><path d="m12.281 16.738c-.088 0-.159-.071-.159-.159v-7.476c0-.031-.025-.056-.056-.056h-3.667c-.031 0-.056.025-.056.056v7.476c0 .088-.071.159-.159.159s-.159-.071-.159-.159v-7.476c0-.207.168-.375.375-.375h3.662.002c.207 0 .375.168.375.375v0 7.476 0c0 .087-.07.158-.157.159z" fill="#45feff"/><path d="m11.419 10.662h-2.37c-.088 0-.159-.071-.159-.159v-.431c0-.088.071-.159.159-.159h2.37c.088 0 .159.071.159.159v.431c0 .088-.071.159-.159.159zm-2.21-.319h2.051v-.112h-2.051z" fill="#45feff"/><path d="m11.419 11.632h-2.37c-.088 0-.159-.071-.159-.159v-.431c0-.088.071-.159.159-.159h2.37c.088 0 .159.071.159.159v.431c0 .088-.071.159-.159.159zm-2.21-.319h2.051v-.112h-2.051z" fill="#45feff"/><path d="m10.234 16.159c-.564 0-1.022-.457-1.022-1.022s.457-1.022 1.022-1.022c.564 0 1.022.457 1.022 1.022s-.458 1.021-1.022 1.022zm0-1.723c-.388 0-.703.315-.703.703s.315.703.703.703.703-.315.703-.703c0-.001 0-.003 0-.004 0-.388-.315-.703-.703-.703v0z" fill="#45feff"/><path d="m10.234 15.617c-.267 0-.483-.216-.483-.483s.216-.483.483-.483.483.216.483.483-.216.483-.483.483zm0-.646c-.09 0-.164.073-.164.164s.073.164.164.164c.09 0 .164-.073.164-.164s-.073-.164-.164-.164z" fill="#45feff"/><path d="m10.252 19.29c-1.617-.007-2.967-1.141-3.306-2.656-.006-.033-.008-.044-.008-.056 0-.088.071-.159.159-.159v0h6.309v0c .088 0 .159.071.159.159 0 .012-.001.023-.004.034-.343 1.537-1.693 2.671-3.31 2.678zm-2.952-2.551c.375 1.299 1.554 2.233 2.951 2.233s2.575-.934 2.945-2.211z" fill="#45feff"/><path d="m21.748 16.066c-1.617-.007-2.967-1.141-3.306-2.656-.006-.033-.008-.044-.008-.056 0-.088.071-.159.159-.159v0h6.309v0c .088 0 .159.071.159.159 0 .012-.001.023-.004.034-.343 1.537-1.693 2.671-3.31 2.678zm-2.951-2.552c.375 1.299 1.554 2.233 2.951 2.233s2.575-.934 2.945-2.211z" fill="#45feff"/><path d="m13.406 16.738h-1.125c-.088 0-.159-.071-.159-.159v-1.819-.001c0-.088.071-.159.159-.159.057 0 .108.03.136.076l1.126 1.82c.015.024.024.053.024.084 0 .088-.071.159-.159.159 0 0 0 0-.001 0zm-.966-.319h.68l-.681-1.099z" fill="#45feff"/><path d="m8.186 16.738h-1.089c-.088 0-.159-.072-.159-.159 0-.032.01-.063.026-.088l1.089-1.662c.029-.043.078-.071.133-.071.088 0 .159.071.159.158v1.663 0c0 .088-.071.159-.159.159h-.001zm-.794-.319h.638v-.97z" fill="#45feff"/></symbol><symbol id="icon-manager" viewBox="0 0 32 32"><path d="m31.947 16c0 8.807-7.14 15.947-15.947 15.947s-15.947-7.14-15.947-15.947 7.14-15.947 15.947-15.947 15.947 7.14 15.947 15.947z" fill="#1d1d1b" opacity=".5"/><path d="m16 32c-8.823 0-16-7.177-16-16s7.177-16 16-16 16 7.177 16 16-7.177 16-16 16zm0-31.894c-8.763 0-15.894 7.13-15.894 15.894s7.13 15.894 15.894 15.894 15.894-7.13 15.894-15.894-7.13-15.894-15.894-15.894z" fill="#fff"/><path d="m22.394 24.133h-11.634c-.107 0-.212-.012-.313-.035-.071-.007-.134-.075-.134-.158 0-.089.072-.16.16-.16.006 0 .012 0 .018.001h11.227l-.425-2.379c-.002-.008-.003-.018-.003-.028s.001-.02.003-.029l1.063-5.854c.005-.027.008-.058.008-.09 0-.279-.227-.506-.506-.506 0 0 0 0-.001 0h-3.142v0c-.081 0-.148-.061-.158-.14l-.064-.532c-.001-.006-.001-.012-.001-.019 0-.088.071-.159.159-.159v0h .489l.088-.509c.084-.482.499-.843.999-.843h.002 3.062c.561 0 1.015.455 1.015 1.015 0 .061-.005.12-.016.178l-1.742 10.11c-.011.078-.076.137-.156.138zm-.347-.319h.213l1.719-9.984c.006-.035.01-.076.01-.118 0-.385-.312-.696-.696-.696 0 0 0 0-.001 0h-3.062-.001c-.343 0-.627.248-.685.574l-.107.642c-.013.076-.079.133-.157.133v0h-.443l.026.213h2.991v0c .456 0 .825.369.825.825 0 .052-.005.103-.014.152l-1.053 5.821z" fill="#45feff"/><path d="m21.445 21.537v0 0c-.078 0-.143-.056-.157-.13l-.925-5.116c-.051-.276-.289-.482-.576-.482 0 0 0 0-.001 0h-.957v0c-.081 0-.148-.061-.158-.14l-.106-.913c-.001-.006-.001-.012-.001-.019 0-.088.071-.159.159-.159v0h3.132v0c .456 0 .825.369.825.825 0 .052-.005.103-.014.152l-1.062 5.85c-.014.075-.079.132-.157.132-.001 0-.002 0-.003 0zm-2.477-6.046h.82v0c .443 0 .811.318.889.739l.768 4.252.902-4.986c.005-.027.008-.058.008-.09 0-.279-.227-.506-.506-.506 0 0 0 0-.001 0h-2.951z" fill="#45feff"/><path d="m18.827 15.81h-9.897v0c-.081 0-.148-.061-.158-.14l-.305-2.541c-.017-.131-.026-.284-.026-.438 0-.812.263-1.563.71-2.171l.95-1.319c.247-.339.624-.572 1.056-.626l5.808-.701c.039-.005.084-.008.129-.008.551 0 1.006.412 1.073.945l.82 6.816c.001.006.001.012.001.019 0 .088-.071.159-.159.159v0zm-9.753-.319h9.568l-.796-6.635c-.047-.38-.368-.67-.757-.67-.033 0-.066.002-.098.006l-5.797.7c-.348.044-.646.228-.84.493l-.959 1.332c-.398.545-.637 1.228-.637 1.967 0 .143.009.284.026.423z" fill="#45feff"/><path d="m21.909 24.103h-11.995-.001c-.493 0-.904-.355-.991-.823l-1.215-6.724c-.009-.048-.014-.102-.014-.158 0-.499.405-.904.904-.905h11.192v0c .443 0 .811.318.889.739l1.389 7.689c.002.009.003.019.003.029 0 .088-.071.159-.159.159v0zm-13.313-8.292c-.323 0-.586.262-.586.586 0 .037.003.073.01.108l1.214 6.714c.06.325.341.568.679.568v0h11.801l-.425-2.379-.925-5.115c-.051-.276-.289-.482-.576-.482 0 0 0 0-.001 0z" fill="#45feff"/><path d="m8.588 12.961v0c-.088 0-.159-.071-.159-.159 0-.05.023-.095.059-.124l3.227-2.594-1.245-.995c-.033-.029-.053-.072-.053-.119 0-.088.071-.159.159-.159.035 0 .067.011.093.03l1.301 1.038c.06.048.098.122.098.204s-.038.156-.098.204l-3.282 2.639c-.027.022-.062.036-.1.036z" fill="#45feff"/><path d="m12.773 11.999c-.003 0-.006 0-.01 0-.088 0-.16-.072-.16-.16 0-.085.066-.154.15-.159l3.658-.442c.006-.001.012-.001.019-.001.089 0 .161.072.161.161 0 .082-.061.15-.141.159l-3.658.442z" fill="#45feff"/><path d="m13.03 13.231c-.003 0-.006 0-.01 0-.088 0-.16-.072-.16-.16 0-.085.066-.154.15-.159l3.551-.425c.006-.001.012-.001.019-.001.089 0 .161.072.161.161 0 .082-.061.15-.141.159l-3.552.425z" fill="#45feff"/><path d="m11.182 14.717c-.003 0-.006 0-.01 0-.088 0-.16-.072-.16-.16 0-.085.066-.154.15-.159l5.55-.671c.006-.001.012-.001.019-.001.089 0 .161.072.161.161 0 .082-.061.15-.141.159l-5.55.671z" fill="#45feff"/></symbol><symbol id="icon-wifi" viewBox="0 0 32 32"><path d="m31.947 16c0 8.807-7.14 15.947-15.947 15.947s-15.947-7.14-15.947-15.947 7.14-15.947 15.947-15.947 15.947 7.14 15.947 15.947z" fill="#1d1d1b" opacity=".5"/><path d="m16 32c-8.823 0-16-7.177-16-16s7.177-16 16-16 16 7.177 16 16-7.177 16-16 16zm0-31.894c-8.763 0-15.894 7.13-15.894 15.894s7.13 15.894 15.894 15.894 15.894-7.13 15.894-15.894-7.13-15.894-15.894-15.894z" fill="#fff"/><path d="m17.993 16.68v-.066q0-.063 0-.124c-.591-.284-1.286-.451-2.019-.451-1.441 0-2.732.642-3.603 1.655-.111.123-.176.28-.176.451 0 .367.297.664.664.664.207 0 .392-.095.514-.243.631-.736 1.56-1.198 2.598-1.198.552 0 1.073.131 1.534.363l-.02-.361c.001-.322.211-.594.502-.689z" fill="#45feff"/><path d="m19.419 14.42c-.996-.549-2.182-.873-3.444-.873-2.133 0-4.05.923-5.374 2.391-.106.122-.168.275-.168.441 0 .367.297.664.664.664.191 0 .364-.081.485-.21 1.086-1.205 2.651-1.958 4.393-1.958.856 0 1.67.182 2.405.51.219-.432.587-.759 1.024-.959z" fill="#45feff"/><path d="m23.455 13.997c-1.855-2.039-4.518-3.313-7.48-3.313-2.934 0-5.575 1.251-7.42 3.248-.115.125-.182.283-.182.458 0 .367.298.665.665.665.193 0 .367-.082.488-.213 1.608-1.741 3.902-2.827 6.45-2.827 2.572 0 4.885 1.107 6.49 2.87.127.133.297.211.485.211.367 0 .664-.297.664-.664 0-.166-.061-.317-.161-.433z" fill="#45feff"/><path d="m16.053 18.427c-.001 0-.002 0-.002 0-.815 0-1.55.342-2.071.89l2.046 1.999 1.461-1.426v-1.073c-.411-.245-.905-.389-1.434-.39z" fill="#45feff"/><path d="m22.564 17.223h-.344v-.612c0-1.006-.816-1.822-1.822-1.822s-1.822.816-1.822 1.822v.612h-.36c-.079 0-.144.064-.144.144v2.824c0 .079.064.144.144.144h4.35c.079 0 .144-.064.144-.144v-2.819c0-.001 0-.003 0-.004 0-.079-.064-.144-.144-.144h-.001zm-1.976 1.671.146.648h-.691l.146-.648c-.172-.079-.29-.249-.29-.447 0-.271.219-.49.49-.49s.49.219.49.49c0 .198-.118.369-.287.446zm1.083-1.671h-2.552v-.612c0-.705.571-1.276 1.276-1.276s1.276.571 1.276 1.276z" fill="#45feff"/></symbol><symbol id="icon-ddos" viewBox="0 0 32 32"><path d="m31.947 16c0 8.807-7.14 15.947-15.947 15.947s-15.947-7.14-15.947-15.947 7.14-15.947 15.947-15.947 15.947 7.14 15.947 15.947z" fill="#1d1d1b" opacity=".5"/><path d="m16 32c-8.823 0-16-7.177-16-16s7.177-16 16-16 16 7.177 16 16-7.177 16-16 16zm0-31.894c-8.763 0-15.894 7.13-15.894 15.894s7.13 15.894 15.894 15.894 15.894-7.13 15.894-15.894-7.13-15.894-15.894-15.894z" fill="#fff"/><path d="m21.783 19.379c-.088 0-.159-.071-.159-.159-.044-3.063-2.536-5.529-5.605-5.529s-5.562 2.466-5.605 5.525c0 .092-.071.164-.159.164s-.159-.071-.159-.159c.045-3.238 2.68-5.845 5.924-5.845s5.88 2.608 5.924 5.841c0 .092-.071.164-.159.164z" fill="#45feff"/><path d="m18.433 22.941c-.235 0-.425-.19-.425-.425s.19-.425.425-.425.425.19.425.425-.19.425-.425.425zm0-.744c-.176 0-.319.143-.319.319s.143.319.319.319.319-.143.319-.319c0-.001 0-.003 0-.004 0-.176-.143-.319-.319-.319v0z" fill="#45feff"/><path d="m18.433 16.877c-.235 0-.425-.19-.425-.425s.19-.425.425-.425.425.19.425.425-.19.425-.425.425zm0-.744c-.176 0-.319.143-.319.319s.143.319.319.319.319-.143.319-.319c0-.002 0-.003 0-.005 0-.176-.143-.319-.319-.319v0z" fill="#45feff"/><path d="m18.433 19.909c-.235 0-.425-.19-.425-.425s.19-.425.425-.425.425.19.425.425-.19.425-.425.425zm0-.744c-.176 0-.319.143-.319.319s.143.319.319.319.319-.143.319-.319c0-.001 0-.003 0-.004 0-.176-.143-.319-.319-.319v0z" fill="#45feff"/><path d="m15.326 20.941h1.385v.561h-1.385z" fill="#45feff"/><path d="m15.326 17.909h1.385v.561h-1.385z" fill="#45feff"/><path d="m18.772 18.073h-5.505c-.356-.001-.645-.289-.645-.645v-1.499c.001-.356.289-.645.645-.645h5.505c.356.001.645.289.645.645v1.499c-.001.356-.289.645-.645.645zm-5.505-2.471c-.18 0-.326.146-.326.326v1.499c0 .18.146.326.326.326h5.505c.18 0 .326-.146.326-.326v-1.499c0-.18-.146-.326-.326-.326zm5.166 1.382c-.294 0-.532-.238-.532-.532s.238-.532.532-.532.532.238.532.532-.238.53-.532.53v0zm0-.744c-.117 0-.213.095-.213.213s.095.213.213.213c.117 0 .213-.095.213-.213 0-.002 0-.004 0-.006 0-.117-.095-.213-.213-.213v0z" fill="#45feff"/><path d="m18.772 21.101h-5.505c-.356-.001-.645-.289-.645-.645v-1.499c.001-.356.289-.645.645-.645h5.505c.356 0 .645.289.645.645v1.499c0 .356-.289.645-.645.645zm-5.505-2.471c-.18 0-.326.146-.326.326v1.499c0 .18.146.326.326.326h5.505c.18 0 .326-.146.326-.326v-1.499c0-.18-.146-.326-.326-.326zm5.166 1.382c-.294 0-.532-.238-.532-.532s.238-.532.532-.532.532.238.532.532v.003c0 .294-.238.532-.532.532v0zm0-.744c-.117 0-.213.095-.213.213s.095.213.213.213c.117 0 .213-.095.213-.213v-.001c0-.117-.095-.213-.213-.213v0z" fill="#45feff"/><path d="m18.772 24.133h-5.505c-.356-.001-.645-.289-.645-.645v-1.499c.001-.356.289-.645.645-.645h5.505c.356 0 .645.289.645.645v1.499c0 .356-.289.645-.645.645zm-5.505-2.471c-.18 0-.326.146-.326.326v1.499c0 .18.146.326.326.326h5.505c.18 0 .326-.146.326-.326v-1.499c0-.18-.146-.326-.326-.326zm5.166 1.382c-.294 0-.532-.238-.532-.532s.238-.532.532-.532.532.238.532.532v.003c0 .294-.238.532-.532.532v0zm0-.744c-.117 0-.213.095-.213.213s.095.213.213.213c.117 0 .213-.095.213-.213v-.001c0-.117-.095-.213-.213-.213v0z" fill="#45feff"/><path d="m16.019 12.127c-.088 0-.159-.071-.159-.159v-1.84c0-.088.071-.159.159-.159s.159.071.159.159v1.84c0 .088-.071.159-.159.159z" fill="#45feff"/><path d="m16.089 10.285.616-1.018v-1.24l-.686.686-.686-.686v1.24l.614 1.018h.141z" fill="#45feff"/><path d="m16.019 12.931c-.168-.453-.455-1.014-.758-1.363l.758.274.758-.274c-.299.348-.59.91-.758 1.363z" fill="#45feff"/><path d="m21.18 13.862c-.088 0-.159-.071-.159-.159 0-.044.018-.084.047-.113l1.301-1.301c.028-.027.067-.043.109-.043.088 0 .159.071.159.159 0 .042-.016.08-.043.109l-1.301 1.306c-.028.026-.066.042-.107.042-.002 0-.004 0-.006 0z" fill="#45feff"/><path d="m22.419 12.563 1.156-.286.877-.876h-.97l-.001-.97-.876.876-.286 1.156z" fill="#45feff"/><path d="m20.499 14.383c.201-.439.395-1.039.425-1.5l.342.73.73.342c-.459.032-1.059.226-1.498.427z" fill="#45feff"/><path d="m10.82 13.862c-.044 0-.084-.018-.113-.047l-1.301-1.301c-.027-.028-.043-.067-.043-.109 0-.088.071-.159.159-.159.042 0 .08.016.109.043l1.301 1.301c.029.029.047.069.047.113 0 .088-.071.159-.159.159z" fill="#45feff"/><path d="m9.681 12.463-.286-1.156-.876-.876v.97h-.971l.877.876 1.155.286z" fill="#45feff"/><path d="m11.501 14.383c-.439-.201-1.039-.395-1.5-.425l.73-.342.342-.73c.032.459.226 1.06.427 1.498z" fill="#45feff"/></symbol><symbol id="icon-sandbox" viewBox="0 0 32 32"><path d="m31.947 16c0 8.807-7.14 15.947-15.947 15.947s-15.947-7.14-15.947-15.947 7.14-15.947 15.947-15.947 15.947 7.14 15.947 15.947z" fill="#1d1d1b" opacity=".5"/><path d="m16 32c-8.823 0-16-7.177-16-16s7.177-16 16-16 16 7.177 16 16-7.177 16-16 16zm0-31.894c-8.763 0-15.894 7.13-15.894 15.894s7.13 15.894 15.894 15.894 15.894-7.13 15.894-15.894-7.13-15.894-15.894-15.894z" fill="#fff"/><path d="m16 24.251-.078-.023c-3.189-.97-5.575-3.334-6.896-6.839-.579-1.486-.953-3.204-1.04-4.998l-.001-.276.236-.03c.458-.057 1.717-.345 2.031-.973.378-.757-.286-1.975-.292-1.988l-.147-.265.282-.106c2.475-.98 5.767-.992 5.907-.992s3.432.012 5.91.988l.283.106-.148.265c-.006.012-.671 1.231-.292 1.988.319.629 1.572.915 2.031.973l.236.03v.238c-.089 1.832-.463 3.55-1.08 5.148-1.284 3.396-3.669 5.757-6.858 6.727zm-7.474-11.679c.12 1.699.477 3.278 1.041 4.756 1.232 3.242 3.409 5.421 6.433 6.366 3.025-.944 5.201-3.125 6.471-6.48.525-1.364.883-2.944 1-4.59-.529-.159-1.792-.472-2.194-1.275-.377-.754-.039-1.736.169-2.208-2.356-.84-5.415-.851-5.446-.851s-3.092.011-5.446.851c.213.472.546 1.454.169 2.208-.401.804-1.66 1.122-2.195 1.223z" fill="#45feff"/><path d="m18.924 14.725h-.465v-.823c0-1.352-1.096-2.448-2.448-2.448s-2.448 1.096-2.448 2.448v.823h-.486c-.107 0-.194.087-.194.194v3.792c0 .107.087.194.194.194h5.847c.107 0 .194-.087.194-.194v-3.792c0-.107-.087-.194-.194-.194zm-4.626-.823c0-.946.767-1.713 1.713-1.713s1.713.767 1.713 1.713v.823h-3.426zm1.968 3.069.196.871h-.929l.196-.871c-.231-.105-.389-.335-.389-.601 0-.363.295-.658.658-.658s.658.295.658.658c0 .266-.158.495-.385.599z" fill="#45feff"/></symbol><symbol id="icon-authenticator" viewBox="0 0 32 32"><path d="m31.947 16c0 8.807-7.14 15.947-15.947 15.947s-15.947-7.14-15.947-15.947 7.14-15.947 15.947-15.947 15.947 7.14 15.947 15.947z" fill="#1d1d1b" opacity=".5"/><path d="m16 32c-8.823 0-16-7.177-16-16s7.177-16 16-16 16 7.177 16 16-7.177 16-16 16zm0-31.894c-8.763 0-15.894 7.13-15.894 15.894s7.13 15.894 15.894 15.894 15.894-7.13 15.894-15.894-7.13-15.894-15.894-15.894z" fill="#fff"/><path d="m7.861 17.251c-1.222 0-2.295-1.097-2.625-2.674-.275-.249-.451-.604-.466-.999-.001-.023-.002-.048-.002-.072 0-.297.088-.574.24-.805-.004-.007-.004-.022-.004-.038 0-.739.295-1.41.775-1.9.53-.537 1.267-.871 2.082-.871s1.552.333 2.082.871c.479.49.775 1.16.775 1.899v.045c.148.223.237.5.237.797 0 .025-.001.049-.002.073-.014.394-.19.749-.464.997-.332 1.583-1.405 2.675-2.627 2.675zm0-7.04c-.007 0-.015 0-.022 0-.718 0-1.366.296-1.83.773-.424.433-.686 1.026-.686 1.68 0 .029.001.059.002.088 0-.003 0-.001 0 .001 0 .035-.011.067-.03.093-.13.183-.207.411-.207.657 0 .02.001.041.002.061.01.321.16.608.391.802.03.025.05.057.058.094.287 1.456 1.242 2.473 2.323 2.473s2.037-1.016 2.324-2.474c.008-.038.028-.07.056-.093.233-.195.383-.482.394-.804.001-.019.002-.039.002-.06 0-.246-.078-.474-.21-.661-.016-.022-.027-.054-.027-.089 0-.002 0-.003 0-.005.001-.025.001-.054.001-.083 0-.654-.261-1.247-.685-1.68-.464-.475-1.111-.771-1.827-.771-.009 0-.019 0-.028 0z" fill="#45feff"/><path d="m6.053 13.021c-.003 0-.006 0-.01 0-.326 0-.643-.039-.947-.112-.041-.013-.091-.075-.091-.149 0-.088.071-.16.16-.16.015 0 .029.002.043.006.255.061.548.097.85.097.158 0 .314-.01.467-.028.891-.114 1.532-.576 1.888-1.374.026-.056.083-.095.148-.095v0c .065.001.12.041.144.098.016.037.403.915 1.836.916.088 0 .159.071.159.159s-.071.159-.159.159v0c-1.151 0-1.722-.517-1.97-.851-.627 1.109-1.729 1.332-2.519 1.332z" fill="#45feff"/><path d="m7.314 14.598h-1.248v0c-.081 0-.148-.06-.158-.138l-.167-1.075c-.001-.007-.002-.016-.002-.024 0-.088.071-.159.159-.159h1.807c.088 0 .159.072.159.159 0 .019-.003.037-.009.054l-.386 1.077c-.023.063-.081.106-.15.106-.002 0-.003 0-.005 0zm-1.112-.319h1l .271-.759h-1.392z" fill="#45feff"/><path d="m9.656 14.598h-1.248c-.069 0-.127-.044-.15-.105l-.386-1.079c-.006-.016-.009-.034-.009-.053 0-.088.071-.159.159-.159h1.807c.088 0 .159.071.159.159 0 .009-.001.017-.002.025l-.173 1.073c-.01.079-.077.139-.157.139zm-1.136-.319h.999l.12-.759h-1.391z" fill="#45feff"/><path d="m8.09 13.52h-.458c-.088 0-.159-.071-.159-.159s.071-.159.159-.159h.458c.088 0 .159.071.159.159s-.071.159-.159.159z" fill="#45feff"/><path d="m21.636 15.623v0c-.088 0-.159-.071-.159-.159 0-.047.021-.09.053-.119.009-.008.59-.552 1.045-2.295.398-1.525 2.055-1.74 2.072-1.742.005-.001.012-.001.018-.001.067 0 .124.041.148.099.031.077.773 1.846 2.797 1.963.084.005.151.074.151.159 0 .088-.072.16-.16.16-.003 0-.006 0-.009 0-1.913-.106-2.801-1.607-3.019-2.043-.349.071-1.399.375-1.689 1.488-.485 1.858-1.115 2.429-1.142 2.453-.028.024-.064.039-.105.039-.001 0-.001 0-.002 0z" fill="#45feff"/><path d="m22.113 19.372c-.516 0-.874-.125-1.07-.375s-.772-4.571.495-7.166c.663-1.364 1.714-2.059 3.126-2.05v0c1.41 0 2.461.691 3.126 2.055 1.267 2.599.696 6.91.495 7.166-.247.319-.753.433-1.504.35-.381-.045-.723-.116-1.054-.213-.016-.007-.06-.058-.068-.121 0-.025-.071-.613.136-2.156.011-.079.078-.14.159-.14.089 0 .161.072.161.161 0 .008 0 .015-.002.022-.153 1.139-.152 1.745-.142 1.969.542.147 1.711.356 2.057-.06.158-.395.753-4.928-.785-7.307-.603-.94-1.47-1.409-2.579-1.409v0c-1.106 0-1.973.474-2.577 1.409-1.537 2.38-.944 6.91-.785 7.307.347.416 1.515.206 2.057.06.01-.224.011-.83-.142-1.97-.001-.006-.001-.014-.001-.021 0-.089.072-.161.161-.161.081 0 .149.06.159.139.213 1.543.139 2.127.136 2.156-.008.063-.053.115-.112.133-.288.087-.63.157-.981.199-.151.016-.291.023-.432.023-.012 0-.024 0-.036 0z" fill="#45feff"/><path d="m24.664 17.465c-1.345 0-2.456-1.268-2.583-2.951 0-.004-.001-.008-.001-.013 0-.024.005-.047.015-.067.177-.385.341-.845.465-1.322.411-1.584 2.068-1.8 2.085-1.802.006-.001.012-.001.019-.001.067 0 .124.041.148.099v.001c.006.015.638 1.518 2.252 1.886.062.014.109.063.121.124.047.235.075.504.075.779v.005c.001 1.796-1.163 3.261-2.595 3.261zm-2.262-2.934c.13 1.494 1.096 2.615 2.262 2.615 1.256 0 2.276-1.323 2.276-2.948v0c0-.219-.019-.434-.054-.643-1.451-.355-2.131-1.531-2.317-1.911-.351.072-1.398.376-1.688 1.488-.138.544-.302 1.01-.501 1.456z" fill="#45feff"/><path d="m24.634 20.588c-1.063 0-2.065-.473-2.673-1.265-.021-.027-.033-.06-.033-.097 0-.026.006-.051.018-.073.025-.051.078-.086.139-.086h.007.047c.279 0 .552-.028.815-.08-.018.003-.007.002.003.002.047 0 .089.02.118.053.384.429.939.697 1.557.697.622 0 1.181-.272 1.564-.704.031-.035.074-.056.122-.056.011 0 .022.001.032.003.248.054.534.085.828.086h.001c.088 0 .159.072.159.159 0 .037-.012.07-.033.097-.607.792-1.606 1.265-2.671 1.265zm-2.202-1.21c.57.553 1.348.894 2.206.894s1.636-.341 2.207-.895c-.174-.014-.335-.038-.466-.061-.439.46-1.058.747-1.743.747-.681 0-1.295-.282-1.733-.737-.136.016-.298.039-.471.051z" fill="#45feff"/><path d="m15.65 17.442c-1.411 0-2.651-1.276-3.031-3.1-.319-.286-.523-.694-.54-1.15-.001-.027-.002-.056-.002-.084 0-.343.103-.662.279-.928-.004-.011-.004-.031-.004-.051 0-.854.341-1.627.894-2.193.612-.621 1.463-1.006 2.404-1.006s1.792.385 2.404 1.006c.553.565.894 1.339.894 2.193 0 .02 0 .04-.001.06.173.257.275.576.275.919 0 .029-.001.057-.002.085-.016.455-.221.863-.538 1.147-.381 1.83-1.622 3.101-3.033 3.101zm0-8.193c-.008 0-.017 0-.027 0-.843 0-1.604.348-2.148.908-.498.509-.805 1.205-.805 1.973 0 .034.001.067.002.101 0-.003 0-.002 0 0 0 .035-.011.067-.03.093-.154.217-.247.488-.247.781 0 .024.001.049.002.073.012.381.19.722.465.952.031.025.051.057.058.094.336 1.702 1.459 2.899 2.729 2.899s2.393-1.192 2.729-2.898c.008-.038.028-.07.056-.093.277-.232.455-.572.467-.955.001-.023.002-.047.002-.071 0-.293-.093-.564-.25-.786-.016-.022-.027-.054-.027-.089 0-.002 0-.003 0-.005.001-.029.002-.064.002-.099 0-.768-.307-1.464-.805-1.972-.544-.559-1.304-.905-2.145-.905-.01 0-.019 0-.029 0z" fill="#45feff"/><path d="m12.513 12.405v0c-.088 0-.159-.071-.159-.159 0-.029.008-.057.022-.081s1.427-2.411 3.625-1.362l.437-.343c.027-.021.061-.034.099-.034.008 0 .015.001.022.002.058.007 1.451.213 2.366 1.737.012.022.019.047.019.075 0 .088-.071.159-.159.159-.055 0-.103-.028-.132-.07-.731-1.218-1.808-1.515-2.073-1.573l-.46.361c-.027.021-.061.034-.098.034-.027 0-.052-.007-.075-.018-.828-.425-1.631-.362-2.387.199-.359.275-.661.604-.898.979-.037.063-.088.095-.146.095z" fill="#45feff"/><path d="m15.65 23.07c-.026 0-.056 0-.086 0-2.17 0-4.314-.111-6.427-.328.186.014.125-.05.121-.13 0-.066 0-.133 0-.2 0-2.191 1.6-4.12 4.076-4.914.014-.005.031-.007.048-.007.062 0 .115.035.142.086l2.127 4.17 2.126-4.17c.027-.052.08-.087.142-.087.017 0 .034.003.049.008 2.475.794 4.075 2.722 4.075 4.913v.2c-.004.079-.065.143-.143.151-1.852.196-3.999.307-6.173.307-.027 0-.055 0-.082 0zm-6.082-.609c1.948.192 3.991.29 6.077.29s4.129-.098 6.077-.29q0-.024 0-.048c0-2.011-1.458-3.792-3.726-4.571l-2.209 4.326c-.027.052-.08.087-.142.087s-.115-.035-.142-.086l-2.21-4.327c-2.269.775-3.726 2.552-3.726 4.571q.001.019.001.048z" fill="#45feff"/><path d="m7.798 22.087c-.024 0-.052 0-.08 0-1.863 0-3.704-.095-5.519-.282.149.011.088-.053.084-.132 0-.058 0-.115 0-.174 0-1.892 1.382-3.558 3.518-4.243.014-.005.031-.007.048-.007.062 0 .115.035.142.086.345.661 1.025 1.105 1.808 1.105s1.463-.443 1.802-1.092c.032-.063.086-.098.147-.098.017 0 .034.003.049.008.764.245 1.425.619 1.992 1.1.026.023.047.066.047.114 0 .055-.028.103-.07.132-1.242.839-2.008 2.02-2.164 3.318-.01.078-.075.138-.154.14-.575.016-1.115.024-1.651.024zm-5.2-.566c1.667.164 3.416.248 5.2.248.49 0 .984-.006 1.508-.021.195-1.276.938-2.432 2.11-3.286-.456-.357-.984-.649-1.556-.848-.454.688-1.206 1.149-2.066 1.149s-1.612-.462-2.021-1.15c-1.938.655-3.178 2.173-3.178 3.888.004.007.004.015.004.021z" fill="#45feff"/><path d="m24.634 22.087c-.929 0-1.87-.031-2.798-.094-.076-.005-.137-.063-.148-.136-.132-.958-.603-1.86-1.363-2.607-.03-.029-.048-.069-.048-.114 0-.029.008-.057.022-.08.191-.329.396-.614.627-.877.024-.027.067-.048.114-.048.08 0 .146.059.158.136.024.206.062.39.113.568.126.132.399.22.785.231.05.001.094.026.122.062.58.699 1.448 1.141 2.42 1.141s1.84-.442 2.416-1.135c.033-.043.079-.067.13-.068.418 0 .711-.091.851-.257.04-.136.073-.299.093-.466.013-.093.079-.152.159-.152.049 0 .092.022.122.056.767.913 1.254 2.083 1.317 3.365.001.015.001.018.001.021 0 .081-.06.148-.139.158-1.47.188-3.169.296-4.893.296-.021 0-.041 0-.062 0zm-2.649-.399c.879.056 1.77.084 2.649.084h.057c1.657 0 3.29-.1 4.895-.293-.274-1.028-.642-1.975-1.218-2.76-.033.222-.063.261-.079.28-.19.243-.537.373-1.03.388-.639.739-1.577 1.204-2.625 1.204s-1.986-.465-2.621-1.2c-.463-.028-.788-.157-.97-.39-.016-.02-.051-.065-.106-.331-.098.127-.198.272-.29.423.67.7 1.151 1.581 1.334 2.566z" fill="#45feff"/></symbol><symbol id="icon-fortiweb" viewBox="0 0 32 32"><path d="m31.947 16c0 8.807-7.14 15.947-15.947 15.947s-15.947-7.14-15.947-15.947 7.14-15.947 15.947-15.947 15.947 7.14 15.947 15.947z" fill="#1d1d1b" opacity=".5"/><path d="m16 32c-8.823 0-16-7.177-16-16s7.177-16 16-16 16 7.177 16 16-7.177 16-16 16zm0-31.894c-8.763 0-15.894 7.13-15.894 15.894s7.13 15.894 15.894 15.894 15.894-7.13 15.894-15.894-7.13-15.894-15.894-15.894z" fill="#fff"/><path d="m10.836 10.346h4.638v.843h-4.638z" fill="#45feff"/><path d="m10.836 12.244h4.638v.843h-4.638z" fill="#45feff"/><path d="m13.155 22.102c-1.02 0-1.847-.827-1.847-1.847s.827-1.847 1.847-1.847 1.847.827 1.847 1.847c-.001 1.019-.827 1.845-1.847 1.847zm0-3.373c-.844 0-1.528.684-1.528 1.528s.684 1.528 1.528 1.528 1.528-.684 1.528-1.528-.684-1.527-1.528-1.528z" fill="#45feff"/><path d="m13.788 20.256c0 .349-.283.633-.633.633s-.633-.283-.633-.633c0-.349.283-.633.633-.633s.633.283.633.633z" fill="#45feff"/><path d="m15.628 18.559s.833-.106 1.041-.521-.139-1.041-.139-1.041c1.145-.451 2.708-.451 2.708-.451s1.562 0 2.708.451c0 0-.347.625-.139 1.041s1.041.521 1.041.521-.069 4.339-3.615 5.415c-3.532-1.076-3.604-5.415-3.604-5.415zm5.519-.937s-.638-.243-1.891-.243-1.891.243-1.891.243c.246 1.318-.886 1.408-.886 1.408.313 3.575 2.777 4.165 2.777 4.165s2.464-.59 2.777-4.165c.003 0-1.125-.089-.882-1.409z" fill="#45feff"/><path d="m16.74 24h-7.172c-.321 0-.582-.26-.582-.582v-14.97c0-.321.26-.582.582-.582h7.169c.321 0 .582.26.582.582v8.774h-.319v-8.774 0c0-.144-.116-.261-.259-.263h-7.172c-.145 0-.263.118-.263.263v14.97c0 .145.118.263.263.263h7.169c.145 0 .263-.118.263-.263v-1.412h.319v1.408.004c0 .32-.259.58-.578.582z" fill="#45feff"/></symbol><symbol id="icon-firewall" viewBox="0 0 32 32"><path d="m31.947 16c0 8.807-7.14 15.947-15.947 15.947s-15.947-7.14-15.947-15.947 7.14-15.947 15.947-15.947 15.947 7.14 15.947 15.947z" fill="#1d1d1b" opacity=".5"/><path d="m16 32c-8.823 0-16-7.177-16-16s7.177-16 16-16 16 7.177 16 16-7.177 16-16 16zm0-31.894c-8.763 0-15.894 7.13-15.894 15.894s7.13 15.894 15.894 15.894 15.894-7.13 15.894-15.894-7.13-15.894-15.894-15.894z" fill="#fff"/><path d="m22.585 20.696h-15.834v-4.076h11.079l.08.093c.156.179.322.339.502.484l.008.006c.957.773 2.394 1.588 3.812 1.09l.354-.124zm-15.303-.532h14.771v-1.268c-1.218.277-2.582-.159-3.969-1.276v0c-.181-.146-.342-.298-.492-.461l-10.31-.003z" fill="#45feff"/><path d="m18.286 17.151h-11.535v-4.075h10.684l-.094.337c-.372 1.345-.186 2.424.57 3.296zm-11.007-.531h9.897c-.54-.851-.686-1.857-.435-3.012h-9.462z" fill="#45feff"/><path d="m13.564 17.151h-6.814v-4.075h6.814zm-6.282-.531h5.75v-3.012h-5.75z" fill="#45feff"/><path d="m10.826 20.696h-4.075v-4.076h4.075zm-3.544-.532h3.012v-3.013h-3.012z" fill="#45feff"/><path d="m16.464 20.696h-6.166v-4.076h6.166zm-5.635-.532h5.103v-3.013h-5.103z" fill="#45feff"/><path d="m22.585 24.239h-15.834v-4.075h15.834zm-15.303-.531h14.771v-3.012h-14.771z" fill="#45feff"/><path d="m13.564 24.239h-6.814v-4.075h6.814zm-6.282-.531h5.75v-3.012h-5.75z" fill="#45feff"/><path d="m18.961 24.239h-5.928v-4.075h5.928zm-5.397-.531h4.865v-3.012h-4.865z" fill="#45feff"/><path d="m23.527 10.121c.162 1.208-.563 1.53-.563 1.53-.403-3.543-4.027-3.624-4.027-3.624 1.45 1.611.319 3.624.319 3.624-.479-1.126-2.09-1.126-2.09-1.126s.786.587.319 1.691c-.136.302-.273.677-.386 1.061-.313 1.136-.388 2.457.607 3.61.166.191.344.362.535.517.965.78 3.529 2.545 5.726-.075 2.098-2.497.434-6.38-.44-7.209z" fill="#45feff"/><path d="m21.32 18.982c-1.013 0-2.107-.455-3.235-1.366-.212-.171-.401-.353-.573-.551-.873-1.011-1.102-2.286-.684-3.794.134-.464.274-.849.438-1.222.349-.827-.237-1.295-.263-1.32l-.613-.476h.775c.063 0 1.347.011 2.051.827.223-.638.454-1.847-.476-2.881l-.411-.457.614.014c.036 0 3.497.117 4.199 3.338.106-.192.182-.492.122-.943l-.1-.744.543.521c.975.926 2.648 4.968.464 7.572-.826.989-1.795 1.483-2.851 1.483zm-3.566-8.118c.164.361.231.858-.018 1.453-.132.293-.265.657-.376 1.031-.389 1.41-.203 2.489.553 3.361.156.179.322.339.502.484 1.451 1.175 3.551 2.112 5.355-.039 1.638-1.953.819-4.908.009-6.272-.152.749-.676.993-.704 1.006l-.332.147-.04-.36c-.281-2.467-2.2-3.138-3.189-3.321.962 1.621-.011 3.402-.021 3.421l-.264.471-.213-.496c-.239-.546-.819-.784-1.262-.885z" fill="#45feff"/></symbol><symbol id="icon-roof" viewBox="0 0 201 32"><path d="m0 21.333 100.392-21.333 100.392 21.333v10.667h-200.784z"/></symbol><symbol id="icon-email" viewBox="0 0 32 32"><path d="m28.269 32h-24.775v0c-1.93 0-3.494-1.564-3.494-3.494 0-.017 0-.033 0-.05v-14.938c.002-1.062.479-2.013 1.228-2.652l11.42-9.68c.867-.742 2.001-1.194 3.241-1.194s2.375.452 3.248 1.2l11.377 9.654c.757.645 1.233 1.599 1.233 2.664v.008 14.94.047c0 1.924-1.556 3.485-3.478 3.494zm-12.364-30.04c-.773.003-1.481.284-2.028.747l-11.426 9.593c-.349.292-.569.728-.569 1.215v.019 14.924c0 .873.708 1.581 1.581 1.581h24.806c.873 0 1.581-.708 1.581-1.581v-14.941c0-.005 0-.012 0-.018 0-.487-.22-.923-.567-1.213l-11.386-9.662c-.535-.453-1.23-.732-1.99-.743z" fill="#45feff"/><path d="m15.81 22.814c-.005 0-.011 0-.018 0-.162 0-.313-.041-.446-.113l-12.185-6.796c-.167-.171-.27-.405-.27-.663 0-.524.425-.949.949-.949.085 0 .167.011.245.032l11.725 6.465 11.731-6.561c.172-.176.413-.286.679-.286.524 0 .949.425.949.949 0 .439-.298.809-.704.917l-12.228 6.784c-.116.106-.261.184-.421.22z" fill="#45feff"/><path d="m23.447 18.277c-.005 0-.01 0-.016 0-.515 0-.933-.418-.933-.933 0-.006 0-.011 0-.017v-5.944h-13.233v6.008c-.063.469-.46.826-.941.826s-.878-.358-.94-.822l-.001-6.961c0-.005 0-.01 0-.016 0-.515.418-.933.933-.933h.017 15.114.016c.515 0 .933.418.933.933v.017 6.956c-.026.494-.433.886-.932.886-.006 0-.012 0-.018 0z" fill="#45feff"/><path d="m20.126 14.83h-8.49c-.037.005-.079.008-.122.008-.524 0-.949-.425-.949-.949s.425-.949.949-.949c.043 0 .085.003.127.008l8.485-.001c.469.063.826.46.826.941s-.358.878-.822.94z" fill="#45feff"/><path d="m20.126 17.391h-8.49c-.469-.063-.826-.46-.826-.941s.358-.878.822-.94l8.495-.001c.469.063.826.46.826.941s-.358.878-.822.94z" fill="#45feff"/></symbol><symbol id="icon-fax" viewBox="0 0 30 32"><path d="m3.598 10.937h21.646v1.892h-21.646z" fill="#45feff"/><path d="m3.598 19.755h21.646v1.892h-21.646z" fill="#45feff"/><path d="m21.404 11.89v-9.956h-13.966v9.956h-1.892v-10.951c0-.518.42-.939.939-.939h15.872c.518 0 .939.42.939.939v10.951z" fill="#45feff"/><path d="m22.357 32h-15.872c-.518 0-.939-.42-.939-.939v-10.368h1.892v9.415h13.98v-9.415h1.892v10.368 0c0 .518-.42.939-.939.939-.005 0-.01 0-.015 0z" fill="#45feff"/><path d="m8.192 24.391h12.26v.939h-12.26z" fill="#45feff"/><path d="m8.192 22.599h12.26v.939h-12.26z" fill="#45feff"/><path d="m8.192 26.382h12.26v.939h-12.26z" fill="#45feff"/><path d="m17.621 28.26h2.83v.939h-2.83z" fill="#45feff"/><path d="m4.622 13.924c-.644 0-1.166.522-1.166 1.166s.522 1.166 1.166 1.166 1.166-.522 1.166-1.166-.522-1.166-1.166-1.166zm0 1.422c-.118 0-.213-.095-.213-.213s.096-.213.213-.213c.118 0 .213.095.213.213-.021.098-.106.171-.209.171-.002 0-.003 0-.005 0z" fill="#45feff"/><path d="m7.381 13.924c-.004 0-.009 0-.014 0-.644 0-1.166.522-1.166 1.166s.522 1.166 1.166 1.166 1.166-.522 1.166-1.166c0-.005 0-.01 0-.015-.008-.632-.519-1.143-1.151-1.151zm0 1.422c-.118 0-.213-.095-.213-.213s.096-.213.213-.213c.118 0 .213.095.213.213-.021.098-.106.171-.209.171-.002 0-.003 0-.005 0z" fill="#45feff"/><path d="m10.14 13.924c-.644 0-1.166.522-1.166 1.166s.522 1.166 1.166 1.166 1.166-.522 1.166-1.166-.522-1.166-1.166-1.166zm0 1.422c-.118 0-.213-.095-.213-.213s.095-.213.213-.213.213.095.213.213c-.021.098-.106.171-.209.171-.002 0-.003 0-.005 0z" fill="#45feff"/><path d="m24.178 7.211h3.456v15.73h-3.456v1.892h4.395c.518 0 .939-.42.939-.939v-17.621c0-.518-.42-.939-.939-.939h-4.395z" fill="#45feff"/><path d="m1.892 22.94v-15.73h2.716v-1.892h-3.669v0c-.518 0-.939.42-.939.939v.015 17.621c0 .518.42.939.939.939h3.669v-1.892z" fill="#45feff"/></symbol><symbol id="icon-name" viewBox="0 0 30 32"><path d="m29.717 32h-29.717v-1.282c.319-2.32 1.507-4.314 3.22-5.679l5.163-3.142c.359-.229.797-.366 1.267-.366s.908.136 1.276.371l3.916 2.34 3.926-2.518c.359-.24.8-.383 1.275-.383s.916.143 1.283.388l5.262 3.295c1.684 1.397 2.833 3.389 3.123 5.649zm-27.387-1.861h25.024c-.403-1.328-1.124-2.458-2.076-3.343l-4.947-3.429c-.075-.048-.167-.076-.266-.076s-.19.029-.268.078l-4.925 2.955-4.88-2.862c-.073-.048-.162-.077-.258-.077s-.185.029-.26.078l-5.081 3.346c-.949.886-1.665 2.01-2.051 3.279z" fill="#45feff"/><path d="m11.042 23.851c-.006 0-.013 0-.02 0-.518 0-.938-.42-.938-.938 0-.241.091-.461.24-.627l-.001.001c.396-.798.627-1.737.627-2.731 0-.052-.001-.103-.002-.155-.976-.997-1.776-2.178-2.348-3.482-.316-.162-.566-.29-.786-.456-.783-.65-1.308-1.599-1.401-2.671-.05-.222-.078-.461-.078-.706 0-.679.216-1.308.584-1.821.163-.197.365-.369.593-.501-.003-.189-.011-.402-.011-.618 0-2.15.764-4.122 2.035-5.659.283-.264.631-.491 1.014-.649l1.117-.493c.194-.725.484-1.36.86-1.933.154-.238.445-.411.777-.411.229 0 .438.082.601.218.492.375 1.071.669 1.698.85 1.649.506 3.018 1.395 4.081 2.567 2.165 1.462 2.525 4.7 2.572 6.107.252.139.465.317.638.528.394.52.629 1.173.629 1.881 0 .221-.023.437-.067.645-.09 1.067-.615 2.015-1.398 2.665-.229.17-.49.298-.772.377-.654 1.389-1.495 2.57-2.517 3.568-.003.03-.003.064-.003.097 0 1.046.261 2.031.721 2.894.096.12.164.312.164.52 0 .303-.143.572-.366.744-.156.12-.351.192-.564.192-.291 0-.55-.135-.72-.345-.706-1.143-1.124-2.527-1.124-4.009 0-.153.004-.305.013-.456-.001.016-.001.009-.001.003 0-.263.108-.5.282-.67 1.057-.985 1.88-2.206 2.388-3.58.136-.462.496-.748.924-.748.079 0 .156.01.229.028l-.006-.001c.203 0 .657-.328.86-1.564.109-.688 0-.938-.094-1.032-.046-.049-.104-.087-.169-.109-.013 0-.024 0-.035 0-.518 0-.938-.42-.938-.938 0-.017 0-.033.001-.05 0-1.108-.188-4.205-1.814-5.222-.078-.049-.145-.106-.203-.171-.862-.993-1.979-1.742-3.25-2.145-.585-.192-1.03-.377-1.459-.59-.042.27-.128.553-.183.848-.037.367-.25.653-.545.789l-1.57.675c-.187.073-.348.174-.486.298-1.719 1.735-1.438 5.426-1.438 5.457.002.024.003.051.003.079 0 .503-.396.913-.893.937-.08.018-.145.063-.189.124-.001.079-.188.345-.095 1.018.203 1.267.641 1.564.907 1.564.044-.008.095-.012.146-.012.416 0 .764.29.854.679.537 1.441 1.359 2.661 2.405 3.646.179.175.287.413.287.675 0 .012 0 .023-.001.035.011.15.017.328.017.506 0 1.432-.39 2.773-1.069 3.923-.146.197-.412.349-.714.355z" fill="#45feff"/></symbol><symbol id="icon-phone" viewBox="0 0 31 32"><path d="m23.099 32c-.17.01-.369.015-.569.015s-.399-.005-.597-.016c-5.692-.964-10.642-3.737-14.33-7.699-3.964-3.671-6.7-8.587-7.585-14.121-.509-4.883 1.563-8.598 5.578-10.005.305-.107.656-.17 1.022-.17 1.263 0 2.353.74 2.859 1.81l1.905 4.13c.184.389.291.844.291 1.325 0 .864-.346 1.647-.908 2.217l-2.577 2.545c1.06 2.407 2.57 4.439 4.438 6.07 1.683 1.901 3.724 3.409 6.028 4.432l2.625-2.47c.57-.56 1.353-.906 2.216-.906.506 0 .983.119 1.407.33l4.804 2.411c1.017.54 1.697 1.591 1.697 2.802 0 .302-.042.595-.122.872-.86 3.699-4.148 6.429-8.074 6.429-.039 0-.078 0-.116-.001zm-16.427-30.119c-.055-.01-.118-.015-.182-.015s-.127.005-.188.016c-3.155 1.122-4.737 4.078-4.357 7.904v0c .866 5.201 3.379 9.705 6.975 13.063 3.428 3.667 7.963 6.235 13.07 7.168.456.075.815.105 1.18.105 3.097 0 5.688-2.167 6.34-5.067.035-.14.05-.251.05-.365 0-.486-.278-.907-.683-1.114l-4.829-2.422c-.16-.081-.348-.128-.547-.128-.342 0-.652.14-.876.365l-3.162 3.162h-.427c-.285 0-2.909-.348-7.668-5.107s-5.138-7.431-5.138-7.7v-.411l3.162-3.162c.226-.224.366-.534.366-.876 0-.187-.042-.364-.116-.522l-1.894-4.103c-.176-.442-.585-.755-1.071-.79z" fill="#45feff"/></symbol><symbol id="icon-logo" viewBox="0 0 54 32"><path d="m36.098 10.944q-4.209 0-4.209 3.961 0 4.186 4.209 4.186h.064c.78 0 1.531-.123 2.236-.351l-.051-.886c-.634.249-1.367.394-2.135.394-.003 0-.007 0-.01 0q-3.287 0-3.287-3.344.008-3.117 3.288-3.117h.001c.768 0 1.501.144 2.176.408l-.041-.915c-.651-.212-1.4-.335-2.178-.335-.022 0-.043 0-.065 0z" fill="#fff"/><path d="m41.772 15.438q-2.393 0-2.393 1.814 0 1.781 2.105 1.781h.011c.713 0 1.375-.219 1.922-.593l.348.593h.585v-4.066q0-1.831-2.631-1.831c-.667.005-1.308.107-1.911.294l.047.829c.557-.175 1.198-.277 1.862-.282q1.593 0 1.593 1.017v.556c-.462-.071-.995-.112-1.537-.112zm1.541 2.181c-.478.358-1.082.574-1.735.574-.032 0-.064-.001-.096-.002q-1.062 0-1.062-.955t1.355-.956h.001c.543 0 1.077.041 1.598.119z" fill="#fff"/><path d="m47.924 13.977c.753 0 1.476.123 2.152.351l-.048-.913c-.631-.179-1.356-.282-2.105-.282q-2.456 0-2.456 1.684 0 1.743 1.911 1.743h.842q.983 0 .983.787 0 .842-1.41.842c-.753-.001-1.476-.124-2.153-.351l.048.915c.631.179 1.356.282 2.105.282q2.45 0 2.45-1.684 0-1.743-2.023-1.743h-.842q-.928 0-.928-.787 0-.844 1.473-.844z" fill="#fff"/><path d="m53.834 13.977v-.842h-1.595l-.225-.956h-.659v5.262q0 1.591 1.473 1.591h.989v-.842h-.72q-.714 0-.714-.827v-3.386z" fill="#fff"/><path d="m16.6 10.944q-4.209 0-4.209 3.961 0 4.186 4.209 4.186h.064c.78 0 1.531-.123 2.235-.351l-.051-.886c-.633.249-1.366.394-2.134.394 0 0 0 0-.001 0q-3.288 0-3.288-3.344 0-3.117 3.288-3.117h.003c.767 0 1.5.144 2.174.408l-.041-.915c-.651-.213-1.4-.335-2.178-.335-.025 0-.051 0-.076 0z" fill="#45feff"/><path d="m22.257 17.743-1.669-4.609h-1.128l2.258 5.935c-.288.638-.795 1.134-1.422 1.403l.382.743q1.303-.4 1.955-2.006l2.45-6.076h-1.09z" fill="#45feff"/><path d="m28.247 13.133c-.007 0-.015 0-.024 0-.509 0-.993.104-1.433.291l.024-2.425h-1.04v7.787c.675.154 1.45.242 2.246.242h.091q2.942 0 2.942-3.069-.006-2.827-2.806-2.827zm-.191 5.035c-.028.001-.06.001-.093.001-.409 0-.805-.06-1.178-.171l.029-3.661c.399-.192.866-.304 1.361-.304.023 0 .047 0 .07.001q1.777 0 1.777 1.894.002 2.242-1.966 2.242z" fill="#45feff"/><path d="m1.103 16.086c-.276-2.023-.019-4.161.804-6.424.655-1.705 1.674-3.144 2.968-4.277l-.533-.825c-1.475 1.263-2.623 2.865-3.328 4.687-.909 2.511-1.191 4.809-.909 6.973z" fill="#45feff"/><path d="m4.045 23.876.796-.615q-2.406-2.456-3.304-5.262l-1.021.137q.932 3.069 3.53 5.74z" fill="#45feff"/><path d="m22.278 27.214c.103-.017.196-.05.297-.069l-.57-.88c-.456.08-.98.125-1.516.125-1.669 0-3.234-.443-4.585-1.218q-1.468-.818-2.733-1.704l-.772.65c.859.613 1.862 1.251 2.898 1.838 1.618.924 3.351 1.415 5.199 1.415.63 0 1.247-.057 1.845-.167z" fill="#45feff"/><path d="m18.431 4.062c-.96 0-1.904.065-2.829.191l.421.931c3.471-.421 7.07.082 9.379 1.374 1.284.732 2.35 1.701 3.173 2.856l1.195.03c-.971-1.558-2.279-2.82-3.828-3.708-1.974-1.105-4.683-1.674-7.51-1.674z" fill="#45feff"/><path d="m10.814 22.897.762-.644c-4.601-3.78-5.912-7.941-3.864-12.445.918-2.006 3.212-3.532 6.363-4.279l-.309-.932c-3.443.827-5.893 2.505-6.946 4.807-2.239 4.908-.884 9.442 3.995 13.493z" fill="#45feff"/><path d="m27.965 26.429c-1.441 1.183-3.205 2.025-5.139 2.378-.624.111-1.263.169-1.915.169-.476 0-.945-.031-1.404-.09l-.135.965c.463.064.998.101 1.541.101.711 0 1.407-.063 2.083-.183 2.486-.459 4.709-1.651 6.441-3.345z" fill="#45feff"/><path d="m28.767 6.689c.829.797 1.545 1.704 2.126 2.698l1.143.059c-.697-1.321-1.55-2.452-2.556-3.427z" fill="#45feff"/><path d="m5.157 9.821c.244-.761.515-1.406.832-2.023 1.167-2.286 3.92-3.95 7.719-4.611 4.698-.819 10.204.067 13.386 2.155.048.034.093.072.141.105l.722-.682c-.112-.078-.21-.166-.328-.24-2.538-1.667-6.451-2.616-10.332-2.616-.016 0-.035 0-.054 0-1.308 0-2.589.114-3.835.333-3.976.705-6.982 2.544-8.325 5.186-.298.573-.588 1.258-.824 1.967z" fill="#45feff"/><path d="m14.278 27.961c.918.61 1.976 1.115 3.104 1.461l.278-.939c-1.084-.337-2.029-.79-2.89-1.358-7.535-4.947-10.902-10.177-10.06-15.563l-.059.166-.922-.322c-.947 5.769 2.585 11.325 10.549 16.556z" fill="#45feff"/><path d="m13.912 1.313c1.188-.218 2.556-.342 3.953-.342.132 0 .263.001.394.003l.218-.975q-.322 0-.646 0c-.005 0-.011 0-.017 0-1.438 0-2.846.127-4.214.371-2.891.509-5.559 1.557-7.706 2.997l.541.81c2.033-1.364 4.576-2.357 7.478-2.865z" fill="#45feff"/><path d="m25.004 1.263c-1.326-.532-2.865-.922-4.468-1.1l-.316.948c1.632.166 3.129.538 4.535 1.092 3.552 1.502 6.558 4.012 8.666 7.171l1.206.071c-2.279-3.652-5.573-6.483-9.488-8.133z" fill="#45feff"/><path d="m23.501 30.811c-.73.135-1.57.212-2.427.212-1.88 0-3.673-.371-5.31-1.044q-5.889-2.378-9.45-5.371l-.81.619q3.74 3.157 9.993 5.683c1.661.691 3.589 1.092 5.612 1.092.905 0 1.791-.08 2.651-.234 2.085-.381 4.022-1.165 5.732-2.27l-.603-.773c-1.543.991-3.354 1.72-5.297 2.072z" fill="#45feff"/><path d="m31.76 23.617-.318-.055v-1.526h.442v-.284h-.442v-.267c-.001-.009-.001-.02-.001-.031 0-.098.031-.189.084-.263.055-.061.136-.101.227-.101.009 0 .017 0 .026.001h.102l.084.013.046-.293-.149-.029c-.04-.007-.086-.011-.133-.011-.001 0-.001 0-.002 0-.011-.001-.024-.001-.037-.001-.177 0-.338.071-.456.186-.111.127-.178.294-.178.476 0 .016.001.032.002.048v.265h-.328v.284h.33v1.526l-.318.055v.246h1.021z" fill="#fff"/><path d="m33.402 23.903h.028c.151 0 .296-.028.429-.079.107-.042.207-.105.291-.183l-.15-.25c-.072.065-.156.117-.249.152-.101.037-.212.057-.327.057-.007 0-.015 0-.022 0s-.017.001-.027.001c-.16 0-.302-.077-.392-.195-.097-.136-.155-.305-.155-.486 0-.006 0-.011 0-.017v.001h1.37v-.24c.001-.019.002-.041.002-.063 0-.236-.08-.454-.214-.627-.145-.157-.355-.256-.588-.256-.02 0-.039.001-.059.002-.251.001-.477.117-.628.297-.169.191-.271.442-.271.717 0 .012 0 .025.001.037v.084c-.001.014-.001.031-.001.047 0 .273.099.523.263.716.162.175.396.286.655.286.016 0 .031 0 .047-.001zm-.39-1.728c.077-.099.197-.162.33-.162.009-.001.02-.001.031-.001.132 0 .25.059.329.152.077.099.123.225.123.361v.02.05h-.974c.013-.159.072-.302.163-.418z" fill="#fff"/><path d="m36.437 21.969c-.147-.159-.356-.259-.589-.259-.02 0-.04.001-.06.002-.251.001-.477.117-.628.297-.169.191-.271.442-.271.717 0 .012 0 .025.001.037v.084c-.001.014-.001.03-.001.047 0 .273.099.524.263.717.163.18.399.294.662.294.014 0 .028 0 .041-.001h.026c.151 0 .296-.028.429-.079.107-.042.207-.105.291-.183l-.15-.25c-.072.065-.156.117-.249.152-.101.037-.212.057-.328.057-.007 0-.015 0-.022 0s-.017.001-.026.001c-.16 0-.303-.077-.393-.195-.097-.136-.155-.305-.155-.486 0-.006 0-.011 0-.017v.001h1.37v-.24c.002-.021.002-.045.002-.069 0-.237-.081-.456-.217-.63zm-.164.631h-.974c.016-.157.077-.296.169-.41.076-.097.195-.16.329-.161.011-.001.023-.001.035-.001.13 0 .247.059.324.152.077.099.123.224.123.36v.02z" fill="#fff"/><path d="m37.283 23.617v.246h1.023v-.246l-.32-.055v-2.745h-.703v.246l.32.055v2.444z" fill="#fff"/><path d="m41.042 22.013h.011c.083 0 .162.015.235.042.064.024.123.06.172.106l.063.254h.288l-.019-.467c-.089-.076-.195-.136-.311-.173-.13-.042-.273-.065-.42-.065-.006 0-.012 0-.018 0-.011-.001-.024-.001-.038-.001-.201 0-.386.068-.533.183-.127.1-.209.257-.209.432v.007.014c0 .155.077.293.195.376.167.111.361.191.571.229.148.024.271.074.379.147.056.047.094.12.094.202v.007c-.001.087-.047.164-.115.21-.083.053-.183.084-.29.084-.012 0-.023 0-.034-.001h0c-.082 0-.162-.01-.239-.029-.063-.013-.124-.044-.175-.087l-.071-.284h-.288v.482c.098.069.211.124.333.16.131.037.271.057.417.057h.024c.012.001.027.001.043.001.207 0 .398-.066.554-.178.136-.099.225-.26.225-.442 0-.004 0-.007 0-.011s0-.008 0-.013c0-.157-.077-.296-.195-.382-.171-.114-.372-.196-.588-.233-.144-.02-.265-.065-.371-.132-.063-.04-.108-.114-.11-.197.001-.084.039-.16.099-.21.074-.056.167-.09.268-.09.019 0 .038.001.057.004z" fill="#fff"/><path d="m42.526 22.762v.086c-.001.014-.001.03-.001.047 0 .273.099.524.263.717.163.18.399.294.662.294.014 0 .028 0 .041-.001h.026c.151 0 .296-.028.429-.079.107-.042.207-.105.291-.183l-.15-.25c-.072.065-.156.117-.249.152-.101.037-.212.057-.328.057-.007 0-.015 0-.022 0s-.017.001-.026.001c-.16 0-.303-.077-.393-.195-.097-.136-.155-.305-.155-.486 0-.006 0-.011 0-.017v.001h1.37v-.24c.001-.019.002-.042.002-.064 0-.236-.08-.453-.214-.626-.145-.157-.355-.256-.587-.256-.02 0-.04.001-.06.002-.251.001-.477.117-.628.297-.17.192-.273.443-.273.719v.026zm.574-.585c.077-.099.197-.162.33-.162.011-.001.023-.001.035-.001.13 0 .247.059.324.152.077.099.123.224.123.36v.02.05h-.977c.013-.16.073-.304.165-.42z" fill="#fff"/><path d="m45.489 22.232c.084-.129.227-.212.389-.212.015 0 .029.001.044.002h.011c.082 0 .161.015.234.042.064.023.123.06.172.106l.084.332h.301l-.017-.469c-.091-.098-.203-.176-.328-.227-.136-.056-.287-.087-.444-.087-.007 0-.013 0-.019 0-.016-.001-.035-.002-.055-.002-.259 0-.491.117-.646.302-.154.196-.246.444-.246.713 0 .015 0 .029.001.044v.08c-.001.013-.001.027-.001.042 0 .27.092.519.247.716.154.183.386.3.645.3.02 0 .039-.001.059-.002h.012c.22 0 .421-.08.576-.212.147-.108.243-.282.243-.479 0-.002 0-.004 0-.007v-.012h-.345v.002c0 .118-.057.223-.144.288-.09.074-.205.119-.33.119-.003 0-.005 0-.008 0-.013.001-.028.002-.044.002-.163 0-.306-.084-.388-.211-.082-.146-.13-.319-.13-.503 0-.014 0-.028.001-.042v-.08c-.001-.014-.001-.03-.001-.047 0-.183.048-.355.132-.504z" fill="#fff"/><path d="m47.587 21.75h-.242v.248l.242.055v.943c-.002.025-.003.054-.003.084 0 .227.074.437.199.607.121.128.296.209.489.209.016 0 .032-.001.047-.002h.01c.129 0 .249-.034.353-.095.104-.062.191-.151.252-.256l.027.308h.587v-.246l-.242-.055v-1.812h-.667v.248l.284.055v1.221c-.045.1-.118.18-.208.234-.092.053-.2.084-.315.084-.009 0-.019 0-.028-.001-.008.001-.018.001-.028.001-.111 0-.211-.049-.279-.127-.065-.112-.103-.246-.103-.389 0-.027.001-.054.004-.08v-1.247z" fill="#fff"/><path d="m51.372 21.71c-.002 0-.004 0-.006 0-.11 0-.213.035-.297.094-.09.066-.165.151-.217.25l-.04-.303h-.663v.248l.318.055v1.509l-.318.055v.246h1.021v-.246l-.318-.055v-1.212c.033-.086.088-.158.159-.21.069-.046.153-.073.242-.073h.015l.21.013.05-.358-.074-.015c-.007 0-.016 0-.024 0-.02 0-.041.001-.061.003z" fill="#fff"/><path d="m53.834 22.897v-.24c.001-.019.002-.041.002-.063 0-.236-.08-.454-.214-.627-.145-.157-.355-.256-.588-.256-.02 0-.039.001-.059.002-.251.001-.477.117-.628.297-.169.191-.271.442-.271.717 0 .012 0 .025.001.037v.084c-.001.014-.001.031-.001.047 0 .273.099.523.263.716.163.18.399.294.662.294.013 0 .026 0 .039-.001h.026c.151 0 .296-.028.429-.079.107-.042.207-.105.291-.183l-.15-.25c-.072.065-.156.117-.249.152-.101.037-.212.057-.327.057-.007 0-.015 0-.022 0s-.017.001-.027.001c-.16 0-.302-.077-.392-.195-.097-.136-.155-.305-.155-.486 0-.006 0-.011 0-.017v.001zm-1.195-.72c.077-.099.197-.162.33-.162.009-.001.02-.001.031-.001.132 0 .25.059.329.152.077.099.123.225.123.361v.02.05h-.974c.012-.16.071-.304.163-.42z" fill="#fff"/><path d="m33.044 26.429h-1.326c-.388.396-.793.768-1.218 1.12l.519.84c.74-.608 1.402-1.249 2.008-1.94z" fill="#45feff"/></symbol><symbol id="icon-office" viewBox="0 0 38 32"><path d="m0 8v6.908c5.052 1.962 10.899 3.109 17.01 3.132l.01-1.485c0-.652.529-1.181 1.181-1.181h1.647c.652 0 1.181.529 1.181 1.181v1.503c6.115-.026 11.956-1.172 17.336-3.245l-.334-6.813c0-.652-.529-1.181-1.181-1.181h-35.669c-.652 0-1.181.529-1.181 1.181z" fill="#45feff"/><path d="m21.029 22.264c0 .652-.529 1.181-1.181 1.181h-1.647c-.652 0-1.181-.529-1.181-1.181v-2.899c-6.12-.024-11.967-1.164-17.357-3.227l.336 14.681c0 .652.529 1.181 1.181 1.181h35.669c.652 0 1.181-.529 1.181-1.181v-14.568c-5.048 1.948-10.888 3.088-16.991 3.114z" fill="#45feff"/><path d="m10.899 5.62v-1.503c0-.988.801-1.79 1.79-1.79h12.725c.988 0 1.79.801 1.79 1.79v1.503h2.38v-1.503 0c0-2.273-1.843-4.116-4.116-4.116-.019 0-.038 0-.057 0h-12.776c-2.273 0-4.116 1.843-4.116 4.116v1.503z" fill="#45feff"/></symbol><symbol id="icon-user" viewBox="0 0 36 32"><path d="m21.712 16.836-1.034-1.499c-.202-.25-.502-.414-.842-.431h-3.346c-.342.017-.643.181-.843.429l-1.053 1.501c-.06.076-.097.173-.097.278 0 .183.11.34.266.41l2.433 1.242-1.43 10.184c-.004.036-.005.078-.005.12 0 .307.106.59.283.814l1.721 1.945c.086.1.212.162.353.162s.267-.063.353-.162l1.724-1.948c.175-.221.281-.503.281-.811 0-.042-.002-.084-.006-.125l-1.413-10.179 2.43-1.241c.181-.06.309-.228.309-.426 0-.099-.032-.19-.086-.264z" fill="#45feff"/><path d="m18.145 14.148c-3.902 0-7.065-3.163-7.065-7.065s3.163-7.065 7.065-7.065c3.896 0 7.055 3.153 7.065 7.047v.001c0 3.905-3.161 7.073-7.064 7.082zm0-12.063c-2.731 0-4.945 2.214-4.945 4.946s2.214 4.946 4.946 4.946c2.719 0 4.926-2.195 4.945-4.909-.01-2.726-2.22-4.93-4.946-4.93v0z" fill="#45feff"/><path d="m13.2 29.708c-.237.006-.516.009-.796.009-4.228 0-8.273-.787-11.994-2.224l-.41-.267v-.689c0-7.614 6.172-13.786 13.786-13.786.595 0 1.077.482 1.077 1.077s-.482 1.077-1.077 1.077c-.006 0-.013 0-.02 0-6.181 0-11.237 4.822-11.61 10.91 3.173 1.127 6.831 1.758 10.636 1.758.137 0 .275-.001.412-.002.569 0 1.048.479 1.048 1.069s-.478 1.068-1.068 1.068z" fill="#45feff"/><path d="m23.108 29.708c-.59 0-1.068-.478-1.068-1.068s.478-1.068 1.068-1.068c.117.001.255.002.393.002 3.805 0 7.462-.632 10.872-1.796-.61-6.033-5.639-10.846-11.797-10.872-.593 0-1.071-.478-1.071-1.068s.478-1.068 1.068-1.068c7.614 0 13.786 6.172 13.786 13.786v.689l-.689.327c-3.493 1.359-7.536 2.146-11.764 2.146-.281 0-.561-.003-.84-.01z" fill="#45feff"/></symbol><symbol id="icon-x" viewBox="0 0 32 32"><path d="m31.909 15.999c0 8.787-7.123 15.91-15.91 15.91s-15.91-7.123-15.91-15.91 7.123-15.91 15.91-15.91 15.91 7.123 15.91 15.91z" fill="#1d1d1b" opacity=".5"/><path d="m15.999 32c-8.836 0-15.999-7.163-15.999-15.999s7.163-15.999 15.999-15.999 15.999 7.163 15.999 15.999c-.01 8.832-7.167 15.989-15.998 15.999zm0-31.821c-8.737 0-15.82 7.083-15.82 15.82s7.083 15.82 15.82 15.82 15.82-7.083 15.82-15.82c-.01-8.733-7.087-15.81-15.82-15.82z" fill="#fff"/><path d="m8.264 24.438 6.528-8.796-5.758-8.08h2.66l3.062 4.328c.432.584.88 1.26 1.295 1.959.524-.628.964-1.255 1.435-1.857l3.358-4.43h2.43l-5.927 7.955 6.39 8.921h-2.764l-4.248-6.02q-.357-.518-.736-1.129-.565.922-.806 1.267l-4.237 5.883z" fill="#45feff"/></symbol></defs></svg>