<svg style="position: absolute; width: 0; height: 0; overflow: hidden;" version="1.1" xmlns="http://www.w3.org/2000/svg">
<defs>
<symbol id="icon-roof" viewBox="0 0 201 32">
<title>roof</title>
<path d="M0 21.333l100.392-21.333 100.392 21.333v10.667h-200.784v-10.667z"></path>
</symbol>
<symbol id="icon-email" viewBox="0 0 32 32">
<title>email</title>
<path fill="#45feff" style="fill: var(--color1, #45feff)" d="M28.269 32h-24.775c-0 0-0 0-0 0-1.93 0-3.494-1.564-3.494-3.494 0-0.017 0-0.033 0-0.050l-0-14.938c0.002-1.062 0.479-2.013 1.228-2.652l11.42-9.68c0.867-0.742 2.001-1.194 3.241-1.194s2.375 0.452 3.248 1.2l11.377 9.654c0.757 0.645 1.233 1.599 1.233 2.664 0 0.003 0 0.006 0 0.008v14.94c0 0.014 0 0.031 0 0.047 0 1.924-1.556 3.485-3.478 3.494zM15.905 1.96c-0.773 0.003-1.481 0.284-2.028 0.747l-11.426 9.593c-0.349 0.292-0.569 0.728-0.569 1.215 0 0.006 0 0.013 0 0.019v14.924c0 0.873 0.708 1.581 1.581 1.581h24.806c0.873 0 1.581-0.708 1.581-1.581v-14.941c0-0.005 0-0.012 0-0.018 0-0.487-0.22-0.923-0.567-1.213l-11.386-9.662c-0.535-0.453-1.23-0.732-1.99-0.743z"></path>
<path fill="#45feff" style="fill: var(--color1, #45feff)" d="M15.81 22.814c-0.005 0-0.011 0-0.018 0-0.162 0-0.313-0.041-0.446-0.113l-12.185-6.796c-0.167-0.171-0.27-0.405-0.27-0.663 0-0.524 0.425-0.949 0.949-0.949 0.085 0 0.167 0.011 0.245 0.032l11.725 6.465 11.731-6.561c0.172-0.176 0.413-0.286 0.679-0.286 0.524 0 0.949 0.425 0.949 0.949 0 0.439-0.298 0.809-0.704 0.917l-12.228 6.784c-0.116 0.106-0.261 0.184-0.421 0.22z"></path>
<path fill="#45feff" style="fill: var(--color1, #45feff)" d="M23.447 18.277c-0.005 0-0.010 0-0.016 0-0.515 0-0.933-0.418-0.933-0.933 0-0.006 0-0.011 0-0.017v-5.944h-13.233v6.008c-0.063 0.469-0.46 0.826-0.941 0.826s-0.878-0.358-0.94-0.822l-0.001-6.961c-0-0.005-0-0.010-0-0.016 0-0.515 0.418-0.933 0.933-0.933 0.006 0 0.011 0 0.017 0h15.114c0.005-0 0.010-0 0.016-0 0.515 0 0.933 0.418 0.933 0.933 0 0.006-0 0.011-0 0.017v6.956c-0.026 0.494-0.433 0.886-0.932 0.886-0.006 0-0.012-0-0.018-0z"></path>
<path fill="#45feff" style="fill: var(--color1, #45feff)" d="M20.126 14.83h-8.49c-0.037 0.005-0.079 0.008-0.122 0.008-0.524 0-0.949-0.425-0.949-0.949s0.425-0.949 0.949-0.949c0.043 0 0.085 0.003 0.127 0.008l8.485-0.001c0.469 0.063 0.826 0.46 0.826 0.941s-0.358 0.878-0.822 0.94z"></path>
<path fill="#45feff" style="fill: var(--color1, #45feff)" d="M20.126 17.391h-8.49c-0.469-0.063-0.826-0.46-0.826-0.941s0.358-0.878 0.822-0.94l8.495-0.001c0.469 0.063 0.826 0.46 0.826 0.941s-0.358 0.878-0.822 0.94z"></path>
</symbol>
<symbol id="icon-fax" viewBox="0 0 30 32">
<title>fax</title>
<path fill="#45feff" style="fill: var(--color1, #45feff)" d="M3.598 10.937h21.646v1.892h-21.646v-1.892z"></path>
<path fill="#45feff" style="fill: var(--color1, #45feff)" d="M3.598 19.755h21.646v1.892h-21.646v-1.892z"></path>
<path fill="#45feff" style="fill: var(--color1, #45feff)" d="M21.404 11.89v-9.956h-13.966v9.956h-1.892v-10.951c0-0.518 0.42-0.939 0.939-0.939h15.872c0.518 0 0.939 0.42 0.939 0.939v10.951z"></path>
<path fill="#45feff" style="fill: var(--color1, #45feff)" d="M22.357 32h-15.872c-0.518 0-0.939-0.42-0.939-0.939v-10.368h1.892v9.415h13.98v-9.415h1.892v10.368c0 0 0 0 0 0 0 0.518-0.42 0.939-0.939 0.939-0.005 0-0.010-0-0.015-0z"></path>
<path fill="#45feff" style="fill: var(--color1, #45feff)" d="M8.192 24.391h12.26v0.939h-12.26v-0.939z"></path>
<path fill="#45feff" style="fill: var(--color1, #45feff)" d="M8.192 22.599h12.26v0.939h-12.26v-0.939z"></path>
<path fill="#45feff" style="fill: var(--color1, #45feff)" d="M8.192 26.382h12.26v0.939h-12.26v-0.939z"></path>
<path fill="#45feff" style="fill: var(--color1, #45feff)" d="M17.621 28.26h2.83v0.939h-2.83v-0.939z"></path>
<path fill="#45feff" style="fill: var(--color1, #45feff)" d="M4.622 13.924c-0.644 0-1.166 0.522-1.166 1.166s0.522 1.166 1.166 1.166c0.644 0 1.166-0.522 1.166-1.166s-0.522-1.166-1.166-1.166zM4.622 15.346c-0.118 0-0.213-0.095-0.213-0.213s0.096-0.213 0.213-0.213c0.118 0 0.213 0.095 0.213 0.213-0.021 0.098-0.106 0.171-0.209 0.171-0.002 0-0.003-0-0.005-0z"></path>
<path fill="#45feff" style="fill: var(--color1, #45feff)" d="M7.381 13.924c-0.004-0-0.009-0-0.014-0-0.644 0-1.166 0.522-1.166 1.166s0.522 1.166 1.166 1.166c0.644 0 1.166-0.522 1.166-1.166 0-0.005-0-0.010-0-0.015-0.008-0.632-0.519-1.143-1.151-1.151zM7.381 15.346c-0.118 0-0.213-0.095-0.213-0.213s0.096-0.213 0.213-0.213c0.118 0 0.213 0.095 0.213 0.213-0.021 0.098-0.106 0.171-0.209 0.171-0.002 0-0.003-0-0.005-0z"></path>
<path fill="#45feff" style="fill: var(--color1, #45feff)" d="M10.14 13.924c-0.644 0-1.166 0.522-1.166 1.166s0.522 1.166 1.166 1.166c0.644 0 1.166-0.522 1.166-1.166s-0.522-1.166-1.166-1.166zM10.14 15.346c-0.118 0-0.213-0.095-0.213-0.213s0.095-0.213 0.213-0.213c0.118 0 0.213 0.095 0.213 0.213-0.021 0.098-0.106 0.171-0.209 0.171-0.002 0-0.003-0-0.005-0z"></path>
<path fill="#45feff" style="fill: var(--color1, #45feff)" d="M24.178 7.211h3.456v15.73h-3.456v1.892h4.395c0.518 0 0.939-0.42 0.939-0.939v-17.621c0-0.518-0.42-0.939-0.939-0.939h-4.395z"></path>
<path fill="#45feff" style="fill: var(--color1, #45feff)" d="M1.892 22.94v-15.73h2.716v-1.892h-3.669c-0 0-0 0-0 0-0.518 0-0.939 0.42-0.939 0.939 0 0.005 0 0.010 0 0.015v17.621c0 0.518 0.42 0.939 0.939 0.939h3.669v-1.892z"></path>
</symbol>
<symbol id="icon-name" viewBox="0 0 30 32">
<title>name</title>
<path fill="#45feff" style="fill: var(--color1, #45feff)" d="M29.717 32h-29.717v-1.282c0.319-2.32 1.507-4.314 3.22-5.679l5.163-3.142c0.359-0.229 0.797-0.366 1.267-0.366s0.908 0.136 1.276 0.371l3.916 2.34 3.926-2.518c0.359-0.24 0.8-0.383 1.275-0.383s0.916 0.143 1.283 0.388l5.262 3.295c1.684 1.397 2.833 3.389 3.123 5.649zM2.33 30.139h25.024c-0.403-1.328-1.124-2.458-2.076-3.343l-4.947-3.429c-0.075-0.048-0.167-0.076-0.266-0.076s-0.19 0.029-0.268 0.078l-4.925 2.955-4.88-2.862c-0.073-0.048-0.162-0.077-0.258-0.077s-0.185 0.029-0.26 0.078l-5.081 3.346c-0.949 0.886-1.665 2.010-2.051 3.279z"></path>
<path fill="#45feff" style="fill: var(--color1, #45feff)" d="M11.042 23.851c-0.006 0-0.013 0-0.020 0-0.518 0-0.938-0.42-0.938-0.938 0-0.241 0.091-0.461 0.24-0.627l-0.001 0.001c0.396-0.798 0.627-1.737 0.627-2.731 0-0.052-0.001-0.103-0.002-0.155-0.976-0.997-1.776-2.178-2.348-3.482-0.316-0.162-0.566-0.29-0.786-0.456-0.783-0.65-1.308-1.599-1.401-2.671-0.050-0.222-0.078-0.461-0.078-0.706 0-0.679 0.216-1.308 0.584-1.821 0.163-0.197 0.365-0.369 0.593-0.501-0.003-0.189-0.011-0.402-0.011-0.618 0-2.15 0.764-4.122 2.035-5.659 0.283-0.264 0.631-0.491 1.014-0.649l1.117-0.493c0.194-0.725 0.484-1.36 0.86-1.933 0.154-0.238 0.445-0.411 0.777-0.411 0.229 0 0.438 0.082 0.601 0.218 0.492 0.375 1.071 0.669 1.698 0.85 1.649 0.506 3.018 1.395 4.081 2.567 2.165 1.462 2.525 4.7 2.572 6.107 0.252 0.139 0.465 0.317 0.638 0.528 0.394 0.52 0.629 1.173 0.629 1.881 0 0.221-0.023 0.437-0.067 0.645-0.090 1.067-0.615 2.015-1.398 2.665-0.229 0.17-0.49 0.298-0.772 0.377-0.654 1.389-1.495 2.57-2.517 3.568-0.003 0.030-0.003 0.064-0.003 0.097 0 1.046 0.261 2.031 0.721 2.894 0.096 0.12 0.164 0.312 0.164 0.52 0 0.303-0.143 0.572-0.366 0.744-0.156 0.12-0.351 0.192-0.564 0.192-0.291 0-0.55-0.135-0.72-0.345-0.706-1.143-1.124-2.527-1.124-4.009 0-0.153 0.004-0.305 0.013-0.456-0.001 0.016-0.001 0.009-0.001 0.003 0-0.263 0.108-0.5 0.282-0.67 1.057-0.985 1.88-2.206 2.388-3.58 0.136-0.462 0.496-0.748 0.924-0.748 0.079 0 0.156 0.010 0.229 0.028l-0.006-0.001c0.203 0 0.657-0.328 0.86-1.564 0.109-0.688 0-0.938-0.094-1.032-0.046-0.049-0.104-0.087-0.169-0.109-0.013-0-0.024-0-0.035-0-0.518 0-0.938-0.42-0.938-0.938 0-0.017 0-0.033 0.001-0.050-0-1.108-0.188-4.205-1.814-5.222-0.078-0.049-0.145-0.106-0.203-0.171-0.862-0.993-1.979-1.742-3.25-2.145-0.585-0.192-1.030-0.377-1.459-0.59-0.042 0.27-0.128 0.553-0.183 0.848-0.037 0.367-0.25 0.653-0.545 0.789l-1.57 0.675c-0.187 0.073-0.348 0.174-0.486 0.298-1.719 1.735-1.438 5.426-1.438 5.457 0.002 0.024 0.003 0.051 0.003 0.079 0 0.503-0.396 0.913-0.893 0.937-0.080 0.018-0.145 0.063-0.189 0.124-0.001 0.079-0.188 0.345-0.095 1.018 0.203 1.267 0.641 1.564 0.907 1.564 0.044-0.008 0.095-0.012 0.146-0.012 0.416 0 0.764 0.29 0.854 0.679 0.537 1.441 1.359 2.661 2.405 3.646 0.179 0.175 0.287 0.413 0.287 0.675 0 0.012-0 0.023-0.001 0.035 0.011 0.15 0.017 0.328 0.017 0.506 0 1.432-0.39 2.773-1.069 3.923-0.146 0.197-0.412 0.349-0.714 0.355z"></path>
</symbol>
<symbol id="icon-phone" viewBox="0 0 31 32">
<title>phone</title>
<path fill="#45feff" style="fill: var(--color1, #45feff)" d="M23.099 32c-0.17 0.010-0.369 0.015-0.569 0.015s-0.399-0.005-0.597-0.016c-5.692-0.964-10.642-3.737-14.33-7.699-3.964-3.671-6.7-8.587-7.585-14.121-0.509-4.883 1.563-8.598 5.578-10.005 0.305-0.107 0.656-0.17 1.022-0.17 1.263 0 2.353 0.74 2.859 1.81l1.905 4.13c0.184 0.389 0.291 0.844 0.291 1.325 0 0.864-0.346 1.647-0.908 2.217l-2.577 2.545c1.060 2.407 2.57 4.439 4.438 6.070 1.683 1.901 3.724 3.409 6.028 4.432l2.625-2.47c0.57-0.56 1.353-0.906 2.216-0.906 0.506 0 0.983 0.119 1.407 0.33l4.804 2.411c1.017 0.54 1.697 1.591 1.697 2.802 0 0.302-0.042 0.595-0.122 0.872-0.86 3.699-4.148 6.429-8.074 6.429-0.039 0-0.078-0-0.116-0.001zM6.672 1.881c-0.055-0.010-0.118-0.015-0.182-0.015s-0.127 0.005-0.188 0.016c-3.155 1.122-4.737 4.078-4.357 7.904v0c0.866 5.201 3.379 9.705 6.975 13.063 3.428 3.667 7.963 6.235 13.070 7.168 0.456 0.075 0.815 0.105 1.18 0.105 3.097 0 5.688-2.167 6.34-5.067 0.035-0.14 0.050-0.251 0.050-0.365 0-0.486-0.278-0.907-0.683-1.114l-4.829-2.422c-0.16-0.081-0.348-0.128-0.547-0.128-0.342 0-0.652 0.14-0.876 0.365l-3.162 3.162h-0.427c-0.285 0-2.909-0.348-7.668-5.107s-5.138-7.431-5.138-7.7v-0.411l3.162-3.162c0.226-0.224 0.366-0.534 0.366-0.876 0-0.187-0.042-0.364-0.116-0.522l-1.894-4.103c-0.176-0.442-0.585-0.755-1.071-0.79z"></path>
</symbol>
<symbol id="icon-logo" viewBox="0 0 54 32">
<title>logo</title>
<path fill="#fff" style="fill: var(--color2, #fff)" d="M36.098 10.944q-4.209 0-4.209 3.961 0 4.186 4.209 4.186c0.019 0 0.041 0 0.064 0 0.78 0 1.531-0.123 2.236-0.351l-0.051-0.886c-0.634 0.249-1.367 0.394-2.135 0.394-0.003 0-0.007 0-0.010 0q-3.287 0-3.287-3.344 0.008-3.117 3.288-3.117c0 0 0.001 0 0.001 0 0.768 0 1.501 0.144 2.176 0.408l-0.041-0.915c-0.651-0.212-1.4-0.335-2.178-0.335-0.022 0-0.043 0-0.065 0z"></path>
<path fill="#fff" style="fill: var(--color2, #fff)" d="M41.772 15.438q-2.393 0-2.393 1.814 0 1.781 2.105 1.781c0.003 0 0.007 0 0.011 0 0.713 0 1.375-0.219 1.922-0.593l0.348 0.593h0.585v-4.066q0-1.831-2.631-1.831c-0.667 0.005-1.308 0.107-1.911 0.294l0.047 0.829c0.557-0.175 1.198-0.277 1.862-0.282q1.593 0 1.593 1.017v0.556c-0.462-0.071-0.995-0.112-1.537-0.112-0 0-0.001 0-0.001 0zM43.313 17.619c-0.478 0.358-1.082 0.574-1.735 0.574-0.032 0-0.064-0.001-0.096-0.002q-1.062 0-1.062-0.955t1.355-0.956c0 0 0.001 0 0.001 0 0.543 0 1.077 0.041 1.598 0.119z"></path>
<path fill="#fff" style="fill: var(--color2, #fff)" d="M47.924 13.977c0.753 0 1.476 0.123 2.152 0.351l-0.048-0.913c-0.631-0.179-1.356-0.282-2.105-0.282q-2.456 0-2.456 1.684 0 1.743 1.911 1.743h0.842q0.983 0 0.983 0.787 0 0.842-1.41 0.842c-0.753-0.001-1.476-0.124-2.153-0.351l0.048 0.915c0.631 0.179 1.356 0.282 2.105 0.282q2.45 0 2.45-1.684 0-1.743-2.023-1.743h-0.842q-0.928 0-0.928-0.787 0-0.844 1.473-0.844z"></path>
<path fill="#fff" style="fill: var(--color2, #fff)" d="M53.834 13.977v-0.842h-1.595l-0.225-0.956h-0.659v5.262q0 1.591 1.473 1.591h0.989v-0.842h-0.72q-0.714 0-0.714-0.827v-3.386z"></path>
<path fill="#45feff" style="fill: var(--color1, #45feff)" d="M16.6 10.944q-4.209 0-4.209 3.961 0 4.186 4.209 4.186c0.019 0 0.041 0 0.064 0 0.78 0 1.531-0.123 2.235-0.351l-0.051-0.886c-0.633 0.249-1.366 0.394-2.134 0.394-0 0-0 0-0.001 0q-3.288 0-3.288-3.344 0-3.117 3.288-3.117c0.001 0 0.002 0 0.003 0 0.767 0 1.5 0.144 2.174 0.408l-0.041-0.915c-0.651-0.213-1.4-0.335-2.178-0.335-0.025 0-0.051 0-0.076 0z"></path>
<path fill="#45feff" style="fill: var(--color1, #45feff)" d="M22.257 17.743l-1.669-4.609h-1.128l2.258 5.935c-0.288 0.638-0.795 1.134-1.422 1.403l0.382 0.743q1.303-0.4 1.955-2.006l2.45-6.076h-1.090z"></path>
<path fill="#45feff" style="fill: var(--color1, #45feff)" d="M28.247 13.133c-0.007-0-0.015-0-0.024-0-0.509 0-0.993 0.104-1.433 0.291l0.024-2.425h-1.040v7.787c0.675 0.154 1.45 0.242 2.246 0.242 0.030 0 0.061-0 0.091-0q2.942 0 2.942-3.069-0.006-2.827-2.806-2.827zM28.056 18.168c-0.028 0.001-0.060 0.001-0.093 0.001-0.409 0-0.805-0.060-1.178-0.171l0.029-3.661c0.399-0.192 0.866-0.304 1.361-0.304 0.023 0 0.047 0 0.070 0.001q1.777-0 1.777 1.894 0.002 2.242-1.966 2.242z"></path>
<path fill="#45feff" style="fill: var(--color1, #45feff)" d="M1.103 16.086c-0.276-2.023-0.019-4.161 0.804-6.424 0.655-1.705 1.674-3.144 2.968-4.277l-0.533-0.825c-1.475 1.263-2.623 2.865-3.328 4.687-0.909 2.511-1.191 4.809-0.909 6.973z"></path>
<path fill="#45feff" style="fill: var(--color1, #45feff)" d="M4.045 23.876l0.796-0.615q-2.406-2.456-3.304-5.262l-1.021 0.137q0.932 3.069 3.53 5.74z"></path>
<path fill="#45feff" style="fill: var(--color1, #45feff)" d="M22.278 27.214c0.103-0.017 0.196-0.050 0.297-0.069l-0.57-0.88c-0.456 0.080-0.98 0.125-1.516 0.125-1.669 0-3.234-0.443-4.585-1.218q-1.468-0.818-2.733-1.704l-0.772 0.65c0.859 0.613 1.862 1.251 2.898 1.838 1.618 0.924 3.351 1.415 5.199 1.415 0.63 0 1.247-0.057 1.845-0.167z"></path>
<path fill="#45feff" style="fill: var(--color1, #45feff)" d="M18.431 4.062c-0.96 0-1.904 0.065-2.829 0.191l0.421 0.931c3.471-0.421 7.070 0.082 9.379 1.374 1.284 0.732 2.35 1.701 3.173 2.856l1.195 0.030c-0.971-1.558-2.279-2.82-3.828-3.708-1.974-1.105-4.683-1.674-7.51-1.674z"></path>
<path fill="#45feff" style="fill: var(--color1, #45feff)" d="M10.814 22.897l0.762-0.644c-4.601-3.78-5.912-7.941-3.864-12.445 0.918-2.006 3.212-3.532 6.363-4.279l-0.309-0.932c-3.443 0.827-5.893 2.505-6.946 4.807-2.239 4.908-0.884 9.442 3.995 13.493z"></path>
<path fill="#45feff" style="fill: var(--color1, #45feff)" d="M27.965 26.429c-1.441 1.183-3.205 2.025-5.139 2.378-0.624 0.111-1.263 0.169-1.915 0.169-0.476 0-0.945-0.031-1.404-0.090l-0.135 0.965c0.463 0.064 0.998 0.101 1.541 0.101 0.711 0 1.407-0.063 2.083-0.183 2.486-0.459 4.709-1.651 6.441-3.345z"></path>
<path fill="#45feff" style="fill: var(--color1, #45feff)" d="M28.767 6.689c0.829 0.797 1.545 1.704 2.126 2.698l1.143 0.059c-0.697-1.321-1.55-2.452-2.556-3.427z"></path>
<path fill="#45feff" style="fill: var(--color1, #45feff)" d="M5.157 9.821c0.244-0.761 0.515-1.406 0.832-2.023 1.167-2.286 3.92-3.95 7.719-4.611 4.698-0.819 10.204 0.067 13.386 2.155 0.048 0.034 0.093 0.072 0.141 0.105l0.722-0.682c-0.112-0.078-0.21-0.166-0.328-0.24-2.538-1.667-6.451-2.616-10.332-2.616-0.016-0-0.035-0-0.054-0-1.308 0-2.589 0.114-3.835 0.333-3.976 0.705-6.982 2.544-8.325 5.186-0.298 0.573-0.588 1.258-0.824 1.967z"></path>
<path fill="#45feff" style="fill: var(--color1, #45feff)" d="M14.278 27.961c0.918 0.61 1.976 1.115 3.104 1.461l0.278-0.939c-1.084-0.337-2.029-0.79-2.89-1.358-7.535-4.947-10.902-10.177-10.060-15.563l-0.059 0.166-0.922-0.322c-0.947 5.769 2.585 11.325 10.549 16.556z"></path>
<path fill="#45feff" style="fill: var(--color1, #45feff)" d="M13.912 1.313c1.188-0.218 2.556-0.342 3.953-0.342 0.132 0 0.263 0.001 0.394 0.003l0.218-0.975q-0.322 0-0.646 0c-0.005 0-0.011 0-0.017 0-1.438 0-2.846 0.127-4.214 0.371-2.891 0.509-5.559 1.557-7.706 2.997l0.541 0.81c2.033-1.364 4.576-2.357 7.478-2.865z"></path>
<path fill="#45feff" style="fill: var(--color1, #45feff)" d="M25.004 1.263c-1.326-0.532-2.865-0.922-4.468-1.1l-0.316 0.948c1.632 0.166 3.129 0.538 4.535 1.092 3.552 1.502 6.558 4.012 8.666 7.171l1.206 0.071c-2.279-3.652-5.573-6.483-9.488-8.133z"></path>
<path fill="#45feff" style="fill: var(--color1, #45feff)" d="M23.501 30.811c-0.73 0.135-1.57 0.212-2.427 0.212-1.88 0-3.673-0.371-5.31-1.044q-5.889-2.378-9.45-5.371l-0.81 0.619q3.74 3.157 9.993 5.683c1.661 0.691 3.589 1.092 5.612 1.092 0.905 0 1.791-0.080 2.651-0.234 2.085-0.381 4.022-1.165 5.732-2.27l-0.603-0.773c-1.543 0.991-3.354 1.72-5.297 2.072z"></path>
<path fill="#fff" style="fill: var(--color2, #fff)" d="M31.76 23.617l-0.318-0.055v-1.526h0.442v-0.284h-0.442v-0.267c-0.001-0.009-0.001-0.020-0.001-0.031 0-0.098 0.031-0.189 0.084-0.263 0.055-0.061 0.136-0.101 0.227-0.101 0.009 0 0.017 0 0.026 0.001l0.102-0 0.084 0.013 0.046-0.293-0.149-0.029c-0.040-0.007-0.086-0.011-0.133-0.011-0.001 0-0.001 0-0.002 0-0.011-0.001-0.024-0.001-0.037-0.001-0.177 0-0.338 0.071-0.456 0.186-0.111 0.127-0.178 0.294-0.178 0.476 0 0.016 0.001 0.032 0.002 0.048l-0 0.265h-0.328v0.284h0.33v1.526l-0.318 0.055v0.246h1.021z"></path>
<path fill="#fff" style="fill: var(--color2, #fff)" d="M33.402 23.903c0.008 0 0.018 0 0.028 0 0.151 0 0.296-0.028 0.429-0.079 0.107-0.042 0.207-0.105 0.291-0.183l-0.15-0.25c-0.072 0.065-0.156 0.117-0.249 0.152-0.101 0.037-0.212 0.057-0.327 0.057-0.007 0-0.015-0-0.022-0s-0.017 0.001-0.027 0.001c-0.16 0-0.302-0.077-0.392-0.195-0.097-0.136-0.155-0.305-0.155-0.486 0-0.006 0-0.011 0-0.017v0.001h1.37v-0.24c0.001-0.019 0.002-0.041 0.002-0.063 0-0.236-0.080-0.454-0.214-0.627-0.145-0.157-0.355-0.256-0.588-0.256-0.020 0-0.039 0.001-0.059 0.002-0.251 0.001-0.477 0.117-0.628 0.297-0.169 0.191-0.271 0.442-0.271 0.717 0 0.012 0 0.025 0.001 0.037l-0 0.084c-0.001 0.014-0.001 0.031-0.001 0.047 0 0.273 0.099 0.523 0.263 0.716 0.162 0.175 0.396 0.286 0.655 0.286 0.016 0 0.031-0 0.047-0.001zM33.012 22.175c0.077-0.099 0.197-0.162 0.33-0.162 0.009-0.001 0.020-0.001 0.031-0.001 0.132 0 0.25 0.059 0.329 0.152 0.077 0.099 0.123 0.225 0.123 0.361 0 0.007-0 0.013-0 0.020l0 0.050h-0.974c0.013-0.159 0.072-0.302 0.163-0.418z"></path>
<path fill="#fff" style="fill: var(--color2, #fff)" d="M36.437 21.969c-0.147-0.159-0.356-0.259-0.589-0.259-0.020 0-0.040 0.001-0.060 0.002-0.251 0.001-0.477 0.117-0.628 0.297-0.169 0.191-0.271 0.442-0.271 0.717 0 0.012 0 0.025 0.001 0.037l-0 0.084c-0.001 0.014-0.001 0.030-0.001 0.047 0 0.273 0.099 0.524 0.263 0.717 0.163 0.18 0.399 0.294 0.662 0.294 0.014 0 0.028-0 0.041-0.001 0.006 0 0.016 0 0.026 0 0.151 0 0.296-0.028 0.429-0.079 0.107-0.042 0.207-0.105 0.291-0.183l-0.15-0.25c-0.072 0.065-0.156 0.117-0.249 0.152-0.101 0.037-0.212 0.057-0.328 0.057-0.007 0-0.015-0-0.022-0s-0.017 0.001-0.026 0.001c-0.16 0-0.303-0.077-0.393-0.195-0.097-0.136-0.155-0.305-0.155-0.486 0-0.006 0-0.011 0-0.017v0.001h1.37v-0.24c0.002-0.021 0.002-0.045 0.002-0.069 0-0.237-0.081-0.456-0.217-0.63zM36.273 22.6h-0.974c0.016-0.157 0.077-0.296 0.169-0.41 0.076-0.097 0.195-0.16 0.329-0.161 0.011-0.001 0.023-0.001 0.035-0.001 0.13 0 0.247 0.059 0.324 0.152 0.077 0.099 0.123 0.224 0.123 0.36 0 0.007-0 0.014-0 0.020z"></path>
<path fill="#fff" style="fill: var(--color2, #fff)" d="M37.283 23.617v0.246h1.023v-0.246l-0.32-0.055v-2.745h-0.703v0.246l0.32 0.055v2.444l-0.32 0.055z"></path>
<path fill="#fff" style="fill: var(--color2, #fff)" d="M41.042 22.013c0.003-0 0.007-0 0.011-0 0.083 0 0.162 0.015 0.235 0.042 0.064 0.024 0.123 0.060 0.172 0.106l0.063 0.254h0.288l-0.019-0.467c-0.089-0.076-0.195-0.136-0.311-0.173-0.13-0.042-0.273-0.065-0.42-0.065-0.006 0-0.012 0-0.018 0-0.011-0.001-0.024-0.001-0.038-0.001-0.201 0-0.386 0.068-0.533 0.183-0.127 0.1-0.209 0.257-0.209 0.432 0 0.002 0 0.005 0 0.007-0 0.004-0 0.009-0 0.014 0 0.155 0.077 0.293 0.195 0.376 0.167 0.111 0.361 0.191 0.571 0.229 0.148 0.024 0.271 0.074 0.379 0.147 0.056 0.047 0.094 0.12 0.094 0.202 0 0.002-0 0.005-0 0.007-0.001 0.087-0.047 0.164-0.115 0.21-0.083 0.053-0.183 0.084-0.29 0.084-0.012 0-0.023-0-0.034-0.001 0.001 0 0 0-0 0-0.082 0-0.162-0.010-0.239-0.029-0.063-0.013-0.124-0.044-0.175-0.087l-0.071-0.284h-0.288v0.482c0.098 0.069 0.211 0.124 0.333 0.16 0.131 0.037 0.271 0.057 0.417 0.057 0.008 0 0.016-0 0.024-0 0.012 0.001 0.027 0.001 0.043 0.001 0.207 0 0.398-0.066 0.554-0.178 0.136-0.099 0.225-0.26 0.225-0.442 0-0.004-0-0.007-0-0.011s0-0.008 0-0.013c0-0.157-0.077-0.296-0.195-0.382-0.171-0.114-0.372-0.196-0.588-0.233-0.144-0.020-0.265-0.065-0.371-0.132-0.063-0.040-0.108-0.114-0.11-0.197 0.001-0.084 0.039-0.16 0.099-0.21 0.074-0.056 0.167-0.090 0.268-0.090 0.019 0 0.038 0.001 0.057 0.004z"></path>
<path fill="#fff" style="fill: var(--color2, #fff)" d="M42.526 22.762v0.086c-0.001 0.014-0.001 0.030-0.001 0.047 0 0.273 0.099 0.524 0.263 0.717 0.163 0.18 0.399 0.294 0.662 0.294 0.014 0 0.028-0 0.041-0.001 0.006 0 0.016 0 0.026 0 0.151 0 0.296-0.028 0.429-0.079 0.107-0.042 0.207-0.105 0.291-0.183l-0.15-0.25c-0.072 0.065-0.156 0.117-0.249 0.152-0.101 0.037-0.212 0.057-0.328 0.057-0.007 0-0.015-0-0.022-0s-0.017 0.001-0.026 0.001c-0.16 0-0.303-0.077-0.393-0.195-0.097-0.136-0.155-0.305-0.155-0.486 0-0.006 0-0.011 0-0.017v0.001h1.37v-0.24c0.001-0.019 0.002-0.042 0.002-0.064 0-0.236-0.080-0.453-0.214-0.626-0.145-0.157-0.355-0.256-0.587-0.256-0.020 0-0.040 0.001-0.060 0.002-0.251 0.001-0.477 0.117-0.628 0.297-0.17 0.192-0.273 0.443-0.273 0.719 0 0.009 0 0.018 0 0.026zM43.1 22.177c0.077-0.099 0.197-0.162 0.33-0.162 0.011-0.001 0.023-0.001 0.035-0.001 0.13 0 0.247 0.059 0.324 0.152 0.077 0.099 0.123 0.224 0.123 0.36 0 0.007-0 0.014-0 0.020l0 0.050h-0.977c0.013-0.16 0.073-0.304 0.165-0.42z"></path>
<path fill="#fff" style="fill: var(--color2, #fff)" d="M45.489 22.232c0.084-0.129 0.227-0.212 0.389-0.212 0.015 0 0.029 0.001 0.044 0.002 0.002-0 0.007-0 0.011-0 0.082 0 0.161 0.015 0.234 0.042 0.064 0.023 0.123 0.060 0.172 0.106l0.084 0.332h0.301l-0.017-0.469c-0.091-0.098-0.203-0.176-0.328-0.227-0.136-0.056-0.287-0.087-0.444-0.087-0.007 0-0.013 0-0.019 0-0.016-0.001-0.035-0.002-0.055-0.002-0.259 0-0.491 0.117-0.646 0.302-0.154 0.196-0.246 0.444-0.246 0.713 0 0.015 0 0.029 0.001 0.044l-0 0.080c-0.001 0.013-0.001 0.027-0.001 0.042 0 0.27 0.092 0.519 0.247 0.716 0.154 0.183 0.386 0.3 0.645 0.3 0.020 0 0.039-0.001 0.059-0.002 0.002 0 0.007 0 0.012 0 0.22 0 0.421-0.080 0.576-0.212 0.147-0.108 0.243-0.282 0.243-0.479 0-0.002 0-0.004-0-0.007v-0.012h-0.345c0 0 0 0.001 0 0.002 0 0.118-0.057 0.223-0.144 0.288-0.090 0.074-0.205 0.119-0.33 0.119-0.003 0-0.005-0-0.008-0-0.013 0.001-0.028 0.002-0.044 0.002-0.163 0-0.306-0.084-0.388-0.211-0.082-0.146-0.13-0.319-0.13-0.503 0-0.014 0-0.028 0.001-0.042l-0-0.080c-0.001-0.014-0.001-0.030-0.001-0.047 0-0.183 0.048-0.355 0.132-0.504z"></path>
<path fill="#fff" style="fill: var(--color2, #fff)" d="M47.587 21.75h-0.242v0.248l0.242 0.055v0.943c-0.002 0.025-0.003 0.054-0.003 0.084 0 0.227 0.074 0.437 0.199 0.607 0.121 0.128 0.296 0.209 0.489 0.209 0.016 0 0.032-0.001 0.047-0.002 0.002 0 0.006 0 0.010 0 0.129 0 0.249-0.034 0.353-0.095 0.104-0.062 0.191-0.151 0.252-0.256l0.027 0.308h0.587v-0.246l-0.242-0.055v-1.812h-0.667v0.248l0.284 0.055v1.221c-0.045 0.1-0.118 0.18-0.208 0.234-0.092 0.053-0.2 0.084-0.315 0.084-0.009 0-0.019-0-0.028-0.001-0.008 0.001-0.018 0.001-0.028 0.001-0.111 0-0.211-0.049-0.279-0.127-0.065-0.112-0.103-0.246-0.103-0.389 0-0.027 0.001-0.054 0.004-0.080l-0-1.247z"></path>
<path fill="#fff" style="fill: var(--color2, #fff)" d="M51.372 21.71c-0.002-0-0.004-0-0.006-0-0.11 0-0.213 0.035-0.297 0.094-0.090 0.066-0.165 0.151-0.217 0.25l-0.040-0.303h-0.663v0.248l0.318 0.055v1.509l-0.318 0.055v0.246h1.021v-0.246l-0.318-0.055v-1.212c0.033-0.086 0.088-0.158 0.159-0.21 0.069-0.046 0.153-0.073 0.242-0.073 0.005 0 0.010 0 0.015 0l0.21 0.013 0.050-0.358-0.074-0.015c-0.007-0-0.016-0-0.024-0-0.020 0-0.041 0.001-0.061 0.003z"></path>
<path fill="#fff" style="fill: var(--color2, #fff)" d="M53.834 22.897v-0.24c0.001-0.019 0.002-0.041 0.002-0.063 0-0.236-0.080-0.454-0.214-0.627-0.145-0.157-0.355-0.256-0.588-0.256-0.020 0-0.039 0.001-0.059 0.002-0.251 0.001-0.477 0.117-0.628 0.297-0.169 0.191-0.271 0.442-0.271 0.717 0 0.012 0 0.025 0.001 0.037l-0 0.084c-0.001 0.014-0.001 0.031-0.001 0.047 0 0.273 0.099 0.523 0.263 0.716 0.163 0.18 0.399 0.294 0.662 0.294 0.013 0 0.026-0 0.039-0.001 0.006 0 0.016 0 0.026 0 0.151 0 0.296-0.028 0.429-0.079 0.107-0.042 0.207-0.105 0.291-0.183l-0.15-0.25c-0.072 0.065-0.156 0.117-0.249 0.152-0.101 0.037-0.212 0.057-0.327 0.057-0.007 0-0.015-0-0.022-0s-0.017 0.001-0.027 0.001c-0.16 0-0.302-0.077-0.392-0.195-0.097-0.136-0.155-0.305-0.155-0.486 0-0.006 0-0.011 0-0.017v0.001zM52.639 22.177c0.077-0.099 0.197-0.162 0.33-0.162 0.009-0.001 0.020-0.001 0.031-0.001 0.132 0 0.25 0.059 0.329 0.152 0.077 0.099 0.123 0.225 0.123 0.361 0 0.007-0 0.013-0 0.020l0 0.050h-0.974c0.012-0.16 0.071-0.304 0.163-0.42z"></path>
<path fill="#45feff" style="fill: var(--color1, #45feff)" d="M33.044 26.429h-1.326c-0.388 0.396-0.793 0.768-1.218 1.12l0.519 0.84c0.74-0.608 1.402-1.249 2.008-1.94z"></path>
</symbol>
<symbol id="icon-office" viewBox="0 0 38 32">
<title>office</title>
<path fill="#45feff" style="fill: var(--color1, #45feff)" d="M0 8v6.908c5.052 1.962 10.899 3.109 17.010 3.132l0.010-1.485c0-0.652 0.529-1.181 1.181-1.181h1.647c0.652 0 1.181 0.529 1.181 1.181v1.503c6.115-0.026 11.956-1.172 17.336-3.245l-0.334-6.813c0-0.652-0.529-1.181-1.181-1.181h-35.669c-0.652 0-1.181 0.529-1.181 1.181z"></path>
<path fill="#45feff" style="fill: var(--color1, #45feff)" d="M21.029 22.264c0 0.652-0.529 1.181-1.181 1.181h-1.647c-0.652 0-1.181-0.529-1.181-1.181v-2.899c-6.12-0.024-11.967-1.164-17.357-3.227l0.336 14.681c0 0.652 0.529 1.181 1.181 1.181h35.669c0.652 0 1.181-0.529 1.181-1.181v-14.568c-5.048 1.948-10.888 3.088-16.991 3.114z"></path>
<path fill="#45feff" style="fill: var(--color1, #45feff)" d="M10.899 5.62v-1.503c0-0.988 0.801-1.79 1.79-1.79h12.725c0.988 0 1.79 0.801 1.79 1.79v1.503h2.38v-1.503c0-0 0-0 0-0 0-2.273-1.843-4.116-4.116-4.116-0.019 0-0.038 0-0.057 0l-12.776-0c-2.273 0-4.116 1.843-4.116 4.116v1.503z"></path>
</symbol>
<symbol id="icon-user" viewBox="0 0 36 32">
<title>user</title>
<path fill="#45feff" style="fill: var(--color1, #45feff)" d="M21.712 16.836l-1.034-1.499c-0.202-0.25-0.502-0.414-0.842-0.431l-3.346-0c-0.342 0.017-0.643 0.181-0.843 0.429l-1.053 1.501c-0.060 0.076-0.097 0.173-0.097 0.278 0 0.183 0.11 0.34 0.266 0.41l2.433 1.242-1.43 10.184c-0.004 0.036-0.005 0.078-0.005 0.12 0 0.307 0.106 0.59 0.283 0.814l1.721 1.945c0.086 0.1 0.212 0.162 0.353 0.162s0.267-0.063 0.353-0.162l1.724-1.948c0.175-0.221 0.281-0.503 0.281-0.811 0-0.042-0.002-0.084-0.006-0.125l-1.413-10.179 2.43-1.241c0.181-0.060 0.309-0.228 0.309-0.426 0-0.099-0.032-0.19-0.086-0.264z"></path>
<path fill="#45feff" style="fill: var(--color1, #45feff)" d="M18.145 14.148c-3.902 0-7.065-3.163-7.065-7.065s3.163-7.065 7.065-7.065c3.896 0 7.055 3.153 7.065 7.047 0 0.001 0 0.001 0 0.001 0 3.905-3.161 7.073-7.064 7.082zM18.145 2.085c-2.731 0-4.945 2.214-4.945 4.946s2.214 4.946 4.946 4.946c2.719 0 4.926-2.195 4.945-4.909-0.010-2.726-2.22-4.93-4.946-4.93 0 0-0 0-0 0z"></path>
<path fill="#45feff" style="fill: var(--color1, #45feff)" d="M13.2 29.708c-0.237 0.006-0.516 0.009-0.796 0.009-4.228 0-8.273-0.787-11.994-2.224l-0.41-0.267v-0.689c0-7.614 6.172-13.786 13.786-13.786 0.595 0 1.077 0.482 1.077 1.077s-0.482 1.077-1.077 1.077c-0.006 0-0.013-0-0.020-0-6.181 0-11.237 4.822-11.61 10.91 3.173 1.127 6.831 1.758 10.636 1.758 0.137 0 0.275-0.001 0.412-0.002 0.569 0 1.048 0.479 1.048 1.069s-0.478 1.068-1.068 1.068z"></path>
<path fill="#45feff" style="fill: var(--color1, #45feff)" d="M23.108 29.708c-0.59 0-1.068-0.478-1.068-1.068s0.478-1.068 1.068-1.068c0.117 0.001 0.255 0.002 0.393 0.002 3.805 0 7.462-0.632 10.872-1.796-0.61-6.033-5.639-10.846-11.797-10.872-0.593 0-1.071-0.478-1.071-1.068s0.478-1.068 1.068-1.068c7.614 0 13.786 6.172 13.786 13.786v0.689l-0.689 0.327c-3.493 1.359-7.536 2.146-11.764 2.146-0.281 0-0.561-0.003-0.84-0.010z"></path>
</symbol>
<symbol id="icon-x" viewBox="0 0 32 32">
<title>x</title>
<path fill="#1d1d1b" opacity="0.5" style="fill: var(--color3, #1d1d1b)" d="M31.909 15.999c0 8.787-7.123 15.91-15.91 15.91s-15.91-7.123-15.91-15.91c0-8.787 7.123-15.91 15.91-15.91s15.91 7.123 15.91 15.91z"></path>
<path fill="#fff" style="fill: var(--color2, #fff)" d="M15.999 32c-8.836 0-15.999-7.163-15.999-15.999s7.163-15.999 15.999-15.999c8.836 0 15.999 7.163 15.999 15.999-0.010 8.832-7.167 15.989-15.998 15.999zM15.999 0.179c-8.737 0-15.82 7.083-15.82 15.82s7.083 15.82 15.82 15.82c8.737 0 15.82-7.083 15.82-15.82-0.010-8.733-7.087-15.81-15.82-15.82z"></path>
<path fill="#45feff" style="fill: var(--color1, #45feff)" d="M8.264 24.438l6.528-8.796-5.758-8.080h2.66l3.062 4.328c0.432 0.584 0.88 1.26 1.295 1.959 0.524-0.628 0.964-1.255 1.435-1.857l3.358-4.43h2.43l-5.927 7.955 6.39 8.921h-2.764l-4.248-6.020q-0.357-0.518-0.736-1.129-0.565 0.922-0.806 1.267l-4.237 5.883z"></path>
</symbol>
</defs>
</svg>
