<svg style="position: absolute; width: 0; height: 0; overflow: hidden;" version="1.1" xmlns="http://www.w3.org/2000/svg">
<defs>
<symbol id="icon-mobile-header-roof" viewBox="0 0 201 32">
<title>mobile-header-roof</title>
<path d="M200.784 10.667l-100.392 21.333-100.392-21.333v-10.667h200.784z"></path>
</symbol>
<symbol id="icon-switches" viewBox="0 0 32 32">
<title>switches</title>
<path fill="#1d1d1b" opacity="0.5" style="fill: var(--color1, #1d1d1b)" d="M31.947 16c0 8.807-7.14 15.947-15.947 15.947s-15.947-7.14-15.947-15.947c0-8.807 7.14-15.947 15.947-15.947s15.947 7.14 15.947 15.947z"></path>
<path fill="#fff" style="fill: var(--color2, #fff)" d="M16 32c-8.823 0-16-7.177-16-16s7.177-16 16-16 16 7.177 16 16-7.177 16-16 16zM16 0.106c-8.763 0-15.894 7.13-15.894 15.894s7.13 15.894 15.894 15.894 15.894-7.13 15.894-15.894-7.13-15.894-15.894-15.894z"></path>
<path fill="#45feff" style="fill: var(--color3, #45feff)" d="M23.92 22.884h-15.841c-0.49-0.001-0.887-0.398-0.888-0.888v-3.869c0.001-0.49 0.398-0.887 0.888-0.888h15.841c0.49 0.001 0.887 0.398 0.888 0.888v3.869c-0.001 0.49-0.398 0.887-0.888 0.888zM8.080 17.559c-0.314 0-0.569 0.255-0.569 0.569v3.869c0 0.314 0.255 0.569 0.569 0.569h15.841c0.314 0 0.569-0.255 0.569-0.569v-3.869c0-0.314-0.255-0.569-0.569-0.569z"></path>
<path fill="#45feff" style="fill: var(--color3, #45feff)" d="M10.312 21.339c-0.705 0-1.276-0.571-1.276-1.276s0.571-1.276 1.276-1.276c0.705 0 1.276 0.571 1.276 1.276s-0.571 1.276-1.276 1.276zM10.312 19.106c-0.528 0-0.957 0.428-0.957 0.957s0.428 0.957 0.957 0.957c0.528 0 0.957-0.428 0.957-0.957 0-0.001 0-0.001 0-0.002 0-0.528-0.428-0.957-0.957-0.957 0 0 0 0 0 0z"></path>
<path fill="#45feff" style="fill: var(--color3, #45feff)" d="M15.77 19.367h-1.051c-0.088 0-0.159-0.071-0.159-0.159v-0.526c0-0.088 0.071-0.159 0.159-0.159h1.051c0.088 0 0.159 0.071 0.159 0.159v0.526c0 0.088-0.071 0.159-0.159 0.159zM14.878 19.048h0.732v-0.207h-0.732z"></path>
<path fill="#45feff" style="fill: var(--color3, #45feff)" d="M17.611 19.367h-1.051c-0.088 0-0.159-0.071-0.159-0.159v-0.526c0-0.088 0.071-0.159 0.159-0.159h1.051c0.088 0 0.159 0.071 0.159 0.159v0.526c0 0.088-0.071 0.159-0.159 0.159zM16.719 19.048h0.733v-0.207h-0.733z"></path>
<path fill="#45feff" style="fill: var(--color3, #45feff)" d="M19.455 19.367h-1.051c-0.088 0-0.159-0.071-0.159-0.159v-0.526c0-0.088 0.071-0.159 0.159-0.159h1.051c0.088 0 0.159 0.071 0.159 0.159v0.526c0 0.088-0.071 0.159-0.159 0.159zM18.563 19.048h0.733v-0.207h-0.733z"></path>
<path fill="#45feff" style="fill: var(--color3, #45feff)" d="M21.292 19.367h-1.051c-0.088 0-0.159-0.071-0.159-0.159v-0.526c0-0.088 0.071-0.159 0.159-0.159h1.051c0.088 0 0.159 0.071 0.159 0.159v0.526c0 0.088-0.071 0.159-0.159 0.159zM20.4 19.048h0.733v-0.207h-0.733z"></path>
<path fill="#45feff" style="fill: var(--color3, #45feff)" d="M23.133 19.367h-1.051c-0.088 0-0.159-0.071-0.159-0.159v-0.526c0-0.088 0.071-0.159 0.159-0.159h1.051c0.088 0 0.159 0.071 0.159 0.159v0.526c0 0.088-0.071 0.159-0.159 0.159zM22.241 19.048h0.733v-0.207h-0.733z"></path>
<path fill="#45feff" style="fill: var(--color3, #45feff)" d="M15.77 20.879h-1.051c-0.088 0-0.159-0.071-0.159-0.159v-0.526c0-0.088 0.071-0.159 0.159-0.159h1.051c0.088 0 0.159 0.071 0.159 0.159v0.526c0 0.088-0.071 0.159-0.159 0.159zM14.878 20.56h0.732v-0.207h-0.732z"></path>
<path fill="#45feff" style="fill: var(--color3, #45feff)" d="M17.611 20.879h-1.051c-0.088 0-0.159-0.071-0.159-0.159v-0.526c0-0.088 0.071-0.159 0.159-0.159h1.051c0.088 0 0.159 0.071 0.159 0.159v0.526c0 0.088-0.071 0.159-0.159 0.159zM16.719 20.56h0.733v-0.207h-0.733z"></path>
<path fill="#45feff" style="fill: var(--color3, #45feff)" d="M19.455 20.879h-1.051c-0.088 0-0.159-0.071-0.159-0.159v-0.526c0-0.088 0.071-0.159 0.159-0.159h1.051c0.088 0 0.159 0.071 0.159 0.159v0.526c0 0.088-0.071 0.159-0.159 0.159zM18.563 20.56h0.733v-0.207h-0.733z"></path>
<path fill="#45feff" style="fill: var(--color3, #45feff)" d="M21.292 20.879h-1.051c-0.088 0-0.159-0.071-0.159-0.159v-0.526c0-0.088 0.071-0.159 0.159-0.159h1.051c0.088 0 0.159 0.071 0.159 0.159v0.526c0 0.088-0.071 0.159-0.159 0.159zM20.4 20.56h0.733v-0.207h-0.733z"></path>
<path fill="#45feff" style="fill: var(--color3, #45feff)" d="M23.133 20.879h-1.051c-0.088 0-0.159-0.071-0.159-0.159v-0.526c0-0.088 0.071-0.159 0.159-0.159h1.051c0.088 0 0.159 0.071 0.159 0.159v0.526c0 0.088-0.071 0.159-0.159 0.159zM22.241 20.56h0.733v-0.207h-0.733z"></path>
<path fill="#45feff" style="fill: var(--color3, #45feff)" d="M10.905 24.133h-2.104c-0.088 0-0.159-0.071-0.159-0.159v-1.249c0-0.088 0.071-0.159 0.159-0.159h2.104c0.088 0 0.159 0.071 0.159 0.159v1.249c0 0.088-0.071 0.159-0.159 0.159zM8.961 23.814h1.785v-0.93h-1.785z"></path>
<path fill="#45feff" style="fill: var(--color3, #45feff)" d="M23.198 24.133h-2.104c-0.088 0-0.159-0.071-0.159-0.159v-1.249c0-0.088 0.071-0.159 0.159-0.159h2.104c0.088 0 0.159 0.071 0.159 0.159v1.249c0 0.088-0.071 0.159-0.159 0.159zM21.254 23.814h1.785v-0.93h-1.785z"></path>
<path fill="#45feff" style="fill: var(--color3, #45feff)" d="M14.916 12.793c-0.414-0.001-0.749-0.336-0.749-0.751s0.336-0.751 0.751-0.751 0.751 0.336 0.751 0.751c-0.001 0.415-0.337 0.751-0.752 0.751zM14.916 11.609c-0.238 0.001-0.431 0.194-0.431 0.432s0.193 0.432 0.432 0.432c0.238 0 0.431-0.193 0.432-0.431 0-0.239-0.194-0.433-0.433-0.433z"></path>
<path fill="#45feff" style="fill: var(--color3, #45feff)" d="M14.916 17.527c-0.088 0-0.159-0.071-0.159-0.159v-4.734c0-0.088 0.071-0.159 0.159-0.159s0.159 0.071 0.159 0.159v4.733c0 0 0 0.001 0 0.001 0 0.088-0.071 0.159-0.159 0.159 0 0 0 0 0 0z"></path>
<path fill="#45feff" style="fill: var(--color3, #45feff)" d="M12.975 14.256c-0.041-0.001-0.079-0.017-0.106-0.044-0.578-0.545-0.937-1.316-0.937-2.171s0.36-1.626 0.936-2.17c0.027-0.019 0.058-0.029 0.091-0.029 0.088 0 0.159 0.071 0.159 0.159 0 0.037-0.013 0.071-0.034 0.098-0.515 0.487-0.837 1.175-0.837 1.939s0.321 1.452 0.835 1.938c0.032 0.030 0.051 0.072 0.051 0.117 0 0.087-0.070 0.158-0.156 0.159z"></path>
<path fill="#45feff" style="fill: var(--color3, #45feff)" d="M12.074 15.212c-0.041-0.001-0.079-0.017-0.106-0.044-0.832-0.785-1.35-1.896-1.35-3.127s0.518-2.342 1.348-3.125c0.027-0.019 0.057-0.029 0.090-0.029 0.088 0 0.159 0.071 0.159 0.159 0 0.036-0.012 0.069-0.032 0.096-0.77 0.727-1.25 1.755-1.25 2.895s0.48 2.168 1.248 2.894c0.033 0.031 0.052 0.072 0.052 0.118 0 0.087-0.070 0.158-0.156 0.159z"></path>
<path fill="#45feff" style="fill: var(--color3, #45feff)" d="M11.127 16.217c-0.041-0.001-0.079-0.017-0.106-0.044-1.099-1.038-1.783-2.505-1.783-4.131s0.684-3.094 1.781-4.129c0.031-0.028 0.069-0.044 0.11-0.044 0.088 0 0.159 0.071 0.159 0.159 0 0.044-0.018 0.085-0.047 0.114-1.037 0.979-1.683 2.364-1.683 3.899s0.646 2.92 1.68 3.897c0.033 0.032 0.053 0.073 0.053 0.118 0 0.087-0.070 0.158-0.156 0.159z"></path>
<path fill="#45feff" style="fill: var(--color3, #45feff)" d="M16.756 14.256c-0.087-0.002-0.156-0.072-0.156-0.159 0-0.046 0.019-0.087 0.050-0.116 0.516-0.487 0.837-1.176 0.837-1.939s-0.321-1.452-0.835-1.938c-0.031-0.030-0.049-0.070-0.049-0.115 0-0.088 0.071-0.159 0.159-0.159 0.041 0 0.079 0.016 0.107 0.041 0.577 0.545 0.937 1.316 0.937 2.171s-0.36 1.626-0.936 2.17c-0.030 0.028-0.068 0.044-0.11 0.044-0.001 0-0.003-0-0.004-0z"></path>
<path fill="#45feff" style="fill: var(--color3, #45feff)" d="M17.658 15.212c-0.087-0.002-0.156-0.072-0.156-0.159 0-0.046 0.019-0.087 0.050-0.116 0.77-0.727 1.25-1.755 1.25-2.896s-0.48-2.168-1.248-2.894c-0.031-0.031-0.049-0.071-0.049-0.115 0-0.088 0.071-0.159 0.159-0.159 0.041 0 0.079 0.016 0.107 0.041 0.832 0.785 1.35 1.896 1.35 3.127s-0.518 2.342-1.348 3.125c-0.031 0.029-0.069 0.046-0.112 0.046-0.001 0-0.002 0-0.003-0z"></path>
<path fill="#45feff" style="fill: var(--color3, #45feff)" d="M18.605 16.217c-0.087-0.002-0.156-0.073-0.156-0.159 0-0.046 0.019-0.087 0.050-0.116 1.037-0.979 1.683-2.364 1.683-3.899s-0.646-2.92-1.68-3.897c-0.025-0.030-0.038-0.065-0.038-0.103 0-0.088 0.071-0.159 0.159-0.159 0.033 0 0.064 0.010 0.089 0.027 1.099 1.037 1.783 2.504 1.783 4.131s-0.684 3.094-1.781 4.129c-0.030 0.029-0.068 0.045-0.109 0.046z"></path>
</symbol>
<symbol id="icon-mail" viewBox="0 0 32 32">
<title>mail</title>
<path fill="#1d1d1b" opacity="0.5" style="fill: var(--color1, #1d1d1b)" d="M31.947 16c0 8.807-7.14 15.947-15.947 15.947s-15.947-7.14-15.947-15.947c0-8.807 7.14-15.947 15.947-15.947s15.947 7.14 15.947 15.947z"></path>
<path fill="#fff" style="fill: var(--color2, #fff)" d="M16 32c-8.823 0-16-7.177-16-16s7.177-16 16-16 16 7.177 16 16-7.177 16-16 16zM16 0.106c-8.763 0-15.894 7.13-15.894 15.894s7.13 15.894 15.894 15.894 15.894-7.13 15.894-15.894-7.13-15.894-15.894-15.894z"></path>
<path fill="#45feff" style="fill: var(--color3, #45feff)" d="M20.661 18.204h-9.321c-0.424-0.001-0.768-0.345-0.768-0.769v-6.143c0.001-0.424 0.344-0.767 0.768-0.768h9.322c0.424 0.001 0.767 0.344 0.768 0.768v6.143c0 0 0 0 0 0 0 0.424-0.344 0.768-0.768 0.769zM11.339 10.844c-0.248 0.001-0.448 0.201-0.449 0.449v6.143c0.001 0.248 0.201 0.448 0.449 0.449h9.322c0.248-0.001 0.448-0.201 0.449-0.449v-6.143c-0.001-0.248-0.201-0.448-0.449-0.449z"></path>
<path fill="#45feff" style="fill: var(--color3, #45feff)" d="M16 15.566l-5.428-3.995v-0.279c0.001-0.424 0.344-0.767 0.768-0.768h9.322c0.424 0.001 0.767 0.344 0.768 0.768v0.279zM10.891 11.409l5.109 3.76 5.109-3.76v-0.117c-0.001-0.248-0.201-0.448-0.449-0.449h-9.322c-0.248 0.001-0.448 0.201-0.449 0.449z"></path>
<path fill="#45feff" style="fill: var(--color3, #45feff)" d="M13.512 18.134v3.022c0 0.085 0.069 0.154 0.154 0.154h4.665c0.001 0 0.001 0 0.002 0 0.085 0 0.154-0.069 0.154-0.154 0 0 0 0 0 0v-3.022c0-0.085-0.069-0.154-0.154-0.154h-4.666c-0 0-0.001 0-0.001 0-0.085 0-0.154 0.069-0.154 0.154 0 0 0 0 0 0zM16.372 20.466h-0.744l0.156-0.695c-0.186-0.084-0.313-0.267-0.313-0.48 0-0.29 0.235-0.525 0.525-0.525s0.525 0.235 0.525 0.525c0 0.213-0.127 0.397-0.309 0.479z"></path>
<path fill="#45feff" style="fill: var(--color3, #45feff)" d="M17.967 19.168h-0.587v-1.846c0-0.755-0.612-1.367-1.367-1.367s-1.367 0.612-1.367 1.367v1.846h-0.587v-1.846c0-1.079 0.875-1.954 1.954-1.954s1.954 0.875 1.954 1.954z"></path>
</symbol>
<symbol id="icon-siem" viewBox="0 0 32 32">
<title>siem</title>
<path fill="#1d1d1b" opacity="0.5" style="fill: var(--color1, #1d1d1b)" d="M31.947 16c0 8.807-7.14 15.947-15.947 15.947s-15.947-7.14-15.947-15.947c0-8.807 7.14-15.947 15.947-15.947s15.947 7.14 15.947 15.947z"></path>
<path fill="#fff" style="fill: var(--color2, #fff)" d="M16 32c-8.823 0-16-7.177-16-16s7.177-16 16-16 16 7.177 16 16-7.177 16-16 16zM16 0.106c-8.763 0-15.894 7.13-15.894 15.894s7.13 15.894 15.894 15.894 15.894-7.13 15.894-15.894-7.13-15.894-15.894-15.894z"></path>
<path fill="#45feff" style="fill: var(--color3, #45feff)" d="M13.386 17.157l-0.047-0.014c-2.775-0.843-2.862-4.24-2.862-4.274v-0.142l0.141-0.018c0.213-0.027 0.583-0.135 0.67-0.309 0.099-0.198-0.045-0.54-0.106-0.644l-0.088-0.159 0.169-0.067c0.89-0.351 2.070-0.355 2.12-0.355s1.23 0 2.12 0.355l0.169 0.067-0.088 0.159c-0.062 0.113-0.201 0.448-0.106 0.644s0.491 0.287 0.67 0.309l0.142 0.018v0.144c0 0.034-0.087 3.43-2.862 4.274zM10.805 12.999c0.048 0.612 0.376 3.12 2.581 3.827 2.206-0.704 2.534-3.212 2.581-3.827-0.223-0.048-0.625-0.171-0.769-0.457-0.131-0.262-0.046-0.58 0.031-0.774-0.815-0.271-1.833-0.275-1.845-0.275s-1.030 0-1.845 0.275c0.077 0.194 0.162 0.512 0.031 0.774-0.141 0.287-0.543 0.41-0.767 0.458z"></path>
<path fill="#45feff" style="fill: var(--color3, #45feff)" d="M10.557 17.090c-0.782-0.91-1.258-2.103-1.258-3.408 0-1.287 0.464-2.465 1.233-3.378q0.091-0.105 0.197-0.205c-1.214 0.76-2.010 2.090-2.010 3.606 0 1.563 0.846 2.929 2.106 3.664q-0.131-0.127-0.267-0.28z"></path>
<path fill="#45feff" style="fill: var(--color3, #45feff)" d="M24.755 21.594c-2.028-1.624-4.146-3.138-6.32-4.592l-0.219 0.26-0.355-0.296 0.447-0.532-0.386-0.325c0.357-0.718 0.566-1.564 0.566-2.458 0-3.103-2.516-5.619-5.619-5.619s-5.619 2.516-5.619 5.619c0 3.103 2.516 5.619 5.619 5.619 1.242 0 2.39-0.403 3.32-1.085l0.365 0.33 0.447-0.532 0.351 0.296-0.203 0.241c1.807 1.892 3.655 3.721 5.599 5.447 0.29-0.084 0.744-0.54 1.1-0.94v0l0.082-0.099 0.083-0.098c0.333-0.409 0.709-0.938 0.742-1.237zM16.522 16.727c-0.882 1.043-2.192 1.7-3.655 1.7-2.639 0-4.778-2.139-4.778-4.778s2.139-4.778 4.778-4.778c2.495 0 4.544 1.913 4.759 4.352 0.013 0.142 0.019 0.285 0.019 0.431 0 1.174-0.425 2.249-1.129 3.079z"></path>
</symbol>
<symbol id="icon-adc" viewBox="0 0 32 32">
<title>adc</title>
<path fill="#1d1d1b" opacity="0.5" style="fill: var(--color1, #1d1d1b)" d="M31.947 16c0 8.807-7.14 15.947-15.947 15.947s-15.947-7.14-15.947-15.947c0-8.807 7.14-15.947 15.947-15.947s15.947 7.14 15.947 15.947z"></path>
<path fill="#fff" style="fill: var(--color2, #fff)" d="M16 32c-8.823 0-16-7.177-16-16s7.177-16 16-16 16 7.177 16 16-7.177 16-16 16zM16 0.106c-8.763 0-15.894 7.13-15.894 15.894s7.13 15.894 15.894 15.894 15.894-7.13 15.894-15.894-7.13-15.894-15.894-15.894z"></path>
<path fill="#45feff" style="fill: var(--color3, #45feff)" d="M24.903 13.513h-6.309c-0.088-0-0.159-0.072-0.159-0.159 0-0.032 0.010-0.063 0.026-0.088l3.244-4.951c0.029-0.044 0.078-0.072 0.133-0.072h0c0.056 0.001 0.106 0.030 0.134 0.075l3.064 4.953c0.015 0.024 0.024 0.053 0.024 0.084 0 0.088-0.071 0.159-0.159 0.159-0 0-0 0-0.001 0zM18.89 13.194h5.727l-2.782-4.496z"></path>
<path fill="#45feff" style="fill: var(--color3, #45feff)" d="M21.77 12.301c-0.462 0-0.869-0.398-1-0.973-0.1-0.102-0.164-0.24-0.17-0.393-0-0.010-0.001-0.020-0.001-0.030 0-0.112 0.030-0.218 0.083-0.308 0.002-0.275 0.115-0.526 0.295-0.711 0.202-0.205 0.483-0.332 0.793-0.332s0.592 0.127 0.793 0.332c0.179 0.184 0.29 0.435 0.294 0.712 0.051 0.088 0.081 0.194 0.081 0.306 0 0.010-0 0.020-0.001 0.030-0.006 0.153-0.070 0.291-0.17 0.393-0.13 0.579-0.535 0.974-0.998 0.974zM21.77 9.873c-0.002-0-0.005-0-0.008-0-0.218 0-0.415 0.090-0.556 0.235-0.128 0.131-0.207 0.309-0.207 0.507 0 0.009 0 0.018 0 0.026 0 0 0 0.002 0 0.004 0 0.035-0.011 0.067-0.030 0.093-0.032 0.046-0.052 0.104-0.052 0.166 0 0.005 0 0.010 0 0.015 0.002 0.080 0.039 0.152 0.096 0.2 0.029 0.023 0.049 0.056 0.057 0.093 0.089 0.454 0.377 0.77 0.699 0.77s0.61-0.319 0.7-0.769c0.008-0.038 0.028-0.070 0.056-0.093 0.058-0.049 0.095-0.121 0.097-0.201 0-0.005 0-0.010 0-0.015 0-0.062-0.020-0.12-0.053-0.167-0.018-0.025-0.029-0.057-0.029-0.092 0-0.002 0-0.003 0-0.005 0-0.007 0-0.016 0-0.024 0-0.197-0.079-0.376-0.207-0.507-0.141-0.145-0.338-0.235-0.556-0.235-0.003 0-0.005 0-0.008 0z"></path>
<path fill="#45feff" style="fill: var(--color3, #45feff)" d="M19.938 13.513c-0 0-0 0-0.001 0-0.088 0-0.159-0.071-0.159-0.159 0-0.014 0.002-0.028 0.005-0.040 0.14-0.556 0.605-1.010 1.243-1.214 0.014-0.005 0.031-0.007 0.048-0.007 0.062 0 0.115 0.035 0.142 0.086 0.101 0.196 0.301 0.327 0.532 0.327s0.431-0.131 0.53-0.323c0.029-0.055 0.082-0.091 0.144-0.091 0.017 0 0.034 0.003 0.049 0.008 0.637 0.204 1.101 0.659 1.242 1.215 0.003 0.012 0.005 0.025 0.005 0.039 0 0.088-0.071 0.159-0.159 0.159-0.074 0-0.137-0.051-0.154-0.12-0.107-0.417-0.444-0.764-0.915-0.949-0.168 0.231-0.438 0.379-0.742 0.379s-0.573-0.148-0.74-0.376c-0.473 0.182-0.811 0.529-0.916 0.946-0.018 0.070-0.079 0.12-0.153 0.121z"></path>
<path fill="#45feff" style="fill: var(--color3, #45feff)" d="M21.142 10.844c-0.002 0-0.005 0-0.008 0-0.12 0-0.236-0.016-0.346-0.045-0.059-0.017-0.109-0.079-0.109-0.152 0-0.088 0.071-0.16 0.16-0.16 0.015 0 0.029 0.002 0.043 0.006 0.030 0.008 0.726 0.183 0.982-0.393 0.025-0.057 0.081-0.097 0.147-0.097s0.122 0.039 0.146 0.096c0 0.008 0.118 0.252 0.532 0.252 0.088 0 0.159 0.071 0.159 0.159s-0.071 0.159-0.159 0.159v0c-0.013 0.001-0.028 0.001-0.044 0.001-0.238 0-0.456-0.087-0.623-0.231-0.199 0.247-0.503 0.404-0.842 0.404-0.013 0-0.026-0-0.040-0.001z"></path>
<path fill="#45feff" style="fill: var(--color3, #45feff)" d="M15.124 22.464c-0.088 0-0.159-0.071-0.159-0.159v-11.154c0-0.088 0.071-0.159 0.159-0.159s0.159 0.071 0.159 0.159v11.154c0 0.088-0.071 0.159-0.159 0.159z"></path>
<path fill="#45feff" style="fill: var(--color3, #45feff)" d="M16.876 22.464c-0.088 0-0.159-0.071-0.159-0.159v-11.154c0-0.088 0.071-0.159 0.159-0.159s0.159 0.071 0.159 0.159v11.154c0 0.088-0.071 0.159-0.159 0.159z"></path>
<path fill="#45feff" style="fill: var(--color3, #45feff)" d="M20.251 24.133h-8.505c-0 0-0 0-0 0-0.088 0-0.159-0.071-0.159-0.159 0-0.030 0.008-0.058 0.023-0.083 0.637-1.073 2.406-1.794 4.387-1.794s3.744 0.721 4.387 1.795c0.014 0.023 0.023 0.052 0.023 0.082 0 0.088-0.071 0.159-0.159 0.159-0 0-0 0-0 0zM12.058 23.814h7.886c-0.697-0.851-2.233-1.398-3.943-1.398s-3.244 0.547-3.944 1.398z"></path>
<path fill="#45feff" style="fill: var(--color3, #45feff)" d="M16.035 11.588c-0.863 0-1.562-0.699-1.562-1.562s0.699-1.562 1.562-1.562c0.863 0 1.562 0.699 1.562 1.562s-0.699 1.561-1.562 1.562zM16.035 8.785c-0.686 0-1.243 0.556-1.243 1.243s0.556 1.243 1.243 1.243c0.686 0 1.243-0.556 1.243-1.243 0-0.001 0-0.001 0-0.002 0-0.687-0.556-1.243-1.243-1.244z"></path>
<path fill="#45feff" style="fill: var(--color3, #45feff)" d="M17.381 9.79c-0.088 0-0.159-0.071-0.159-0.159 0-0.072 0.048-0.133 0.114-0.153l5.49-1.605c0.013-0.004 0.029-0.006 0.045-0.006 0.088 0 0.159 0.071 0.159 0.159 0 0.072-0.048 0.133-0.114 0.153l-5.49 1.601c-0.013 0.005-0.028 0.008-0.044 0.010z"></path>
<path fill="#45feff" style="fill: var(--color3, #45feff)" d="M12.281 11.281c-0.088 0-0.159-0.071-0.159-0.159 0-0.072 0.048-0.133 0.114-0.153l2.409-0.704c0.013-0.004 0.029-0.006 0.045-0.006 0.088 0 0.159 0.071 0.159 0.159 0 0.072-0.048 0.133-0.114 0.153l-2.409 0.704c-0.013 0.004-0.029 0.006-0.045 0.006z"></path>
<path fill="#45feff" style="fill: var(--color3, #45feff)" d="M12.281 16.738c-0.088 0-0.159-0.071-0.159-0.159v-7.476c0-0.031-0.025-0.056-0.056-0.056h-3.667c-0.031 0-0.056 0.025-0.056 0.056v7.476c0 0.088-0.071 0.159-0.159 0.159s-0.159-0.071-0.159-0.159v-7.476c0-0.207 0.168-0.375 0.375-0.375h3.662c0.001 0 0.001 0 0.002 0 0.207 0 0.375 0.168 0.375 0.375 0 0 0 0 0 0v7.476c0 0 0 0 0 0 0 0.087-0.070 0.158-0.157 0.159z"></path>
<path fill="#45feff" style="fill: var(--color3, #45feff)" d="M11.419 10.662h-2.37c-0.088 0-0.159-0.071-0.159-0.159v-0.431c0-0.088 0.071-0.159 0.159-0.159h2.37c0.088 0 0.159 0.071 0.159 0.159v0.431c0 0.088-0.071 0.159-0.159 0.159zM9.209 10.343h2.051v-0.112h-2.051z"></path>
<path fill="#45feff" style="fill: var(--color3, #45feff)" d="M11.419 11.632h-2.37c-0.088 0-0.159-0.071-0.159-0.159v-0.431c0-0.088 0.071-0.159 0.159-0.159h2.37c0.088 0 0.159 0.071 0.159 0.159v0.431c0 0.088-0.071 0.159-0.159 0.159zM9.209 11.313h2.051v-0.112h-2.051z"></path>
<path fill="#45feff" style="fill: var(--color3, #45feff)" d="M10.234 16.159c-0.564 0-1.022-0.457-1.022-1.022s0.457-1.022 1.022-1.022c0.564 0 1.022 0.457 1.022 1.022s-0.458 1.021-1.022 1.022zM10.234 14.436c-0.388 0-0.703 0.315-0.703 0.703s0.315 0.703 0.703 0.703c0.388 0 0.703-0.315 0.703-0.703 0-0.001 0-0.003 0-0.004 0-0.388-0.315-0.703-0.703-0.703 0 0 0 0 0 0z"></path>
<path fill="#45feff" style="fill: var(--color3, #45feff)" d="M10.234 15.617c-0.267 0-0.483-0.216-0.483-0.483s0.216-0.483 0.483-0.483c0.267 0 0.483 0.216 0.483 0.483s-0.216 0.483-0.483 0.483zM10.234 14.971c-0.090 0-0.164 0.073-0.164 0.164s0.073 0.164 0.164 0.164c0.090 0 0.164-0.073 0.164-0.164s-0.073-0.164-0.164-0.164z"></path>
<path fill="#45feff" style="fill: var(--color3, #45feff)" d="M10.252 19.29c-1.617-0.007-2.967-1.141-3.306-2.656-0.006-0.033-0.008-0.044-0.008-0.056 0-0.088 0.071-0.159 0.159-0.159 0 0 0 0 0 0h6.309c0 0 0 0 0 0 0.088 0 0.159 0.071 0.159 0.159 0 0.012-0.001 0.023-0.004 0.034-0.343 1.537-1.693 2.671-3.31 2.678zM7.3 16.739c0.375 1.299 1.554 2.233 2.951 2.233s2.575-0.934 2.945-2.211z"></path>
<path fill="#45feff" style="fill: var(--color3, #45feff)" d="M21.748 16.066c-1.617-0.007-2.967-1.141-3.306-2.656-0.006-0.033-0.008-0.044-0.008-0.056 0-0.088 0.071-0.159 0.159-0.159 0 0 0 0 0 0h6.309c0 0 0 0 0 0 0.088 0 0.159 0.071 0.159 0.159 0 0.012-0.001 0.023-0.004 0.034-0.343 1.537-1.693 2.671-3.31 2.678zM18.797 13.514c0.375 1.299 1.554 2.233 2.951 2.233s2.575-0.934 2.945-2.211z"></path>
<path fill="#45feff" style="fill: var(--color3, #45feff)" d="M13.406 16.738h-1.125c-0.088 0-0.159-0.071-0.159-0.159v-1.819c0-0 0-0.001 0-0.001 0-0.088 0.071-0.159 0.159-0.159 0.057 0 0.108 0.030 0.136 0.076l1.126 1.82c0.015 0.024 0.024 0.053 0.024 0.084 0 0.088-0.071 0.159-0.159 0.159-0 0-0 0-0.001 0zM12.44 16.419h0.68l-0.681-1.099z"></path>
<path fill="#45feff" style="fill: var(--color3, #45feff)" d="M8.186 16.738h-1.089c-0.088-0-0.159-0.072-0.159-0.159 0-0.032 0.010-0.063 0.026-0.088l1.089-1.662c0.029-0.043 0.078-0.071 0.133-0.071 0.088 0 0.159 0.071 0.159 0.158v1.663c0 0 0 0 0 0 0 0.088-0.071 0.159-0.159 0.159-0 0-0.001 0-0.001 0zM7.392 16.419h0.638v-0.97z"></path>
</symbol>
<symbol id="icon-manager" viewBox="0 0 32 32">
<title>manager</title>
<path fill="#1d1d1b" opacity="0.5" style="fill: var(--color1, #1d1d1b)" d="M31.947 16c0 8.807-7.14 15.947-15.947 15.947s-15.947-7.14-15.947-15.947c0-8.807 7.14-15.947 15.947-15.947s15.947 7.14 15.947 15.947z"></path>
<path fill="#fff" style="fill: var(--color2, #fff)" d="M16 32c-8.823 0-16-7.177-16-16s7.177-16 16-16 16 7.177 16 16-7.177 16-16 16zM16 0.106c-8.763 0-15.894 7.13-15.894 15.894s7.13 15.894 15.894 15.894 15.894-7.13 15.894-15.894-7.13-15.894-15.894-15.894z"></path>
<path fill="#45feff" style="fill: var(--color3, #45feff)" d="M22.394 24.133h-11.634c-0.107-0-0.212-0.012-0.313-0.035-0.071-0.007-0.134-0.075-0.134-0.158 0-0.089 0.072-0.16 0.16-0.16 0.006 0 0.012 0 0.018 0.001l11.227-0-0.425-2.379c-0.002-0.008-0.003-0.018-0.003-0.028s0.001-0.020 0.003-0.029l1.063-5.854c0.005-0.027 0.008-0.058 0.008-0.090 0-0.279-0.227-0.506-0.506-0.506-0 0-0 0-0.001 0h-3.142c-0 0-0 0-0 0-0.081 0-0.148-0.061-0.158-0.14l-0.064-0.532c-0.001-0.006-0.001-0.012-0.001-0.019 0-0.088 0.071-0.159 0.159-0.159 0 0 0 0 0 0h0.489l0.088-0.509c0.084-0.482 0.499-0.843 0.999-0.843 0.001 0 0.001 0 0.002 0h3.062c0.561 0 1.015 0.455 1.015 1.015 0 0.061-0.005 0.12-0.016 0.178l-1.742 10.11c-0.011 0.078-0.076 0.137-0.156 0.138zM22.047 23.814h0.213l1.719-9.984c0.006-0.035 0.010-0.076 0.010-0.118 0-0.385-0.312-0.696-0.696-0.696-0 0-0 0-0.001 0h-3.062c-0 0-0.001 0-0.001 0-0.343 0-0.627 0.248-0.685 0.574l-0.107 0.642c-0.013 0.076-0.079 0.133-0.157 0.133-0 0-0 0-0 0h-0.443l0.026 0.213h2.991c0 0 0 0 0 0 0.456 0 0.825 0.369 0.825 0.825 0 0.052-0.005 0.103-0.014 0.152l-1.053 5.821z"></path>
<path fill="#45feff" style="fill: var(--color3, #45feff)" d="M21.445 21.537v0c-0 0-0 0-0 0-0.078 0-0.143-0.056-0.157-0.13l-0.925-5.116c-0.051-0.276-0.289-0.482-0.576-0.482-0 0-0 0-0.001 0h-0.957c-0 0-0 0-0 0-0.081 0-0.148-0.061-0.158-0.14l-0.106-0.913c-0.001-0.006-0.001-0.012-0.001-0.019 0-0.088 0.071-0.159 0.159-0.159 0 0 0 0 0 0h3.132c0 0 0 0 0 0 0.456 0 0.825 0.369 0.825 0.825 0 0.052-0.005 0.103-0.014 0.152l-1.062 5.85c-0.014 0.075-0.079 0.132-0.157 0.132-0.001 0-0.002 0-0.003-0zM18.968 15.491h0.82c0 0 0 0 0 0 0.443 0 0.811 0.318 0.889 0.739l0.768 4.252 0.902-4.986c0.005-0.027 0.008-0.058 0.008-0.090 0-0.279-0.227-0.506-0.506-0.506-0 0-0 0-0.001 0h-2.951z"></path>
<path fill="#45feff" style="fill: var(--color3, #45feff)" d="M18.827 15.81h-9.897c-0 0-0 0-0 0-0.081 0-0.148-0.061-0.158-0.14l-0.305-2.541c-0.017-0.131-0.026-0.284-0.026-0.438 0-0.812 0.263-1.563 0.71-2.171l0.95-1.319c0.247-0.339 0.624-0.572 1.056-0.626l5.808-0.701c0.039-0.005 0.084-0.008 0.129-0.008 0.551 0 1.006 0.412 1.073 0.945l0.82 6.816c0.001 0.006 0.001 0.012 0.001 0.019 0 0.088-0.071 0.159-0.159 0.159-0 0-0 0-0 0zM9.074 15.491h9.568l-0.796-6.635c-0.047-0.38-0.368-0.67-0.757-0.67-0.033 0-0.066 0.002-0.098 0.006l-5.797 0.7c-0.348 0.044-0.646 0.228-0.84 0.493l-0.959 1.332c-0.398 0.545-0.637 1.228-0.637 1.967 0 0.143 0.009 0.284 0.026 0.423z"></path>
<path fill="#45feff" style="fill: var(--color3, #45feff)" d="M21.909 24.103h-11.995c-0 0-0.001 0-0.001 0-0.493 0-0.904-0.355-0.991-0.823l-1.215-6.724c-0.009-0.048-0.014-0.102-0.014-0.158 0-0.499 0.405-0.904 0.904-0.905h11.192c0 0 0 0 0 0 0.443 0 0.811 0.318 0.889 0.739l1.389 7.689c0.002 0.009 0.003 0.019 0.003 0.029 0 0.088-0.071 0.159-0.159 0.159-0 0-0 0-0 0zM8.596 15.811c-0.323 0-0.586 0.262-0.586 0.586 0 0.037 0.003 0.073 0.010 0.108l1.214 6.714c0.060 0.325 0.341 0.568 0.679 0.568 0 0 0 0 0 0h11.801l-0.425-2.379-0.925-5.115c-0.051-0.276-0.289-0.482-0.576-0.482-0 0-0 0-0.001 0z"></path>
<path fill="#45feff" style="fill: var(--color3, #45feff)" d="M8.588 12.961c-0 0-0 0-0 0-0.088 0-0.159-0.071-0.159-0.159 0-0.050 0.023-0.095 0.059-0.124l3.227-2.594-1.245-0.995c-0.033-0.029-0.053-0.072-0.053-0.119 0-0.088 0.071-0.159 0.159-0.159 0.035 0 0.067 0.011 0.093 0.030l1.301 1.038c0.060 0.048 0.098 0.122 0.098 0.204s-0.038 0.156-0.098 0.204l-3.282 2.639c-0.027 0.022-0.062 0.036-0.1 0.036z"></path>
<path fill="#45feff" style="fill: var(--color3, #45feff)" d="M12.773 11.999c-0.003 0-0.006 0-0.010 0-0.088 0-0.16-0.072-0.16-0.16 0-0.085 0.066-0.154 0.15-0.159l3.658-0.442c0.006-0.001 0.012-0.001 0.019-0.001 0.089 0 0.161 0.072 0.161 0.161 0 0.082-0.061 0.15-0.141 0.159l-3.658 0.442z"></path>
<path fill="#45feff" style="fill: var(--color3, #45feff)" d="M13.030 13.231c-0.003 0-0.006 0-0.010 0-0.088 0-0.16-0.072-0.16-0.16 0-0.085 0.066-0.154 0.15-0.159l3.551-0.425c0.006-0.001 0.012-0.001 0.019-0.001 0.089 0 0.161 0.072 0.161 0.161 0 0.082-0.061 0.15-0.141 0.159l-3.552 0.425z"></path>
<path fill="#45feff" style="fill: var(--color3, #45feff)" d="M11.182 14.717c-0.003 0-0.006 0-0.010 0-0.088 0-0.16-0.072-0.16-0.16 0-0.085 0.066-0.154 0.15-0.159l5.55-0.671c0.006-0.001 0.012-0.001 0.019-0.001 0.089 0 0.161 0.072 0.161 0.161 0 0.082-0.061 0.15-0.141 0.159l-5.55 0.671z"></path>
</symbol>
<symbol id="icon-wifi" viewBox="0 0 32 32">
<title>wifi</title>
<path fill="#1d1d1b" opacity="0.5" style="fill: var(--color1, #1d1d1b)" d="M31.947 16c0 8.807-7.14 15.947-15.947 15.947s-15.947-7.14-15.947-15.947c0-8.807 7.14-15.947 15.947-15.947s15.947 7.14 15.947 15.947z"></path>
<path fill="#fff" style="fill: var(--color2, #fff)" d="M16 32c-8.823 0-16-7.177-16-16s7.177-16 16-16 16 7.177 16 16-7.177 16-16 16zM16 0.106c-8.763 0-15.894 7.13-15.894 15.894s7.13 15.894 15.894 15.894 15.894-7.13 15.894-15.894-7.13-15.894-15.894-15.894z"></path>
<path fill="#45feff" style="fill: var(--color3, #45feff)" d="M17.993 16.68v-0.066q0-0.063 0-0.124c-0.591-0.284-1.286-0.451-2.019-0.451-1.441 0-2.732 0.642-3.603 1.655-0.111 0.123-0.176 0.28-0.176 0.451 0 0.367 0.297 0.664 0.664 0.664 0.207 0 0.392-0.095 0.514-0.243 0.631-0.736 1.56-1.198 2.598-1.198 0.552 0 1.073 0.131 1.534 0.363l-0.020-0.361c0.001-0.322 0.211-0.594 0.502-0.689z"></path>
<path fill="#45feff" style="fill: var(--color3, #45feff)" d="M19.419 14.42c-0.996-0.549-2.182-0.873-3.444-0.873-2.133 0-4.050 0.923-5.374 2.391-0.106 0.122-0.168 0.275-0.168 0.441 0 0.367 0.297 0.664 0.664 0.664 0.191 0 0.364-0.081 0.485-0.21 1.086-1.205 2.651-1.958 4.393-1.958 0.856 0 1.67 0.182 2.405 0.51 0.219-0.432 0.587-0.759 1.024-0.959z"></path>
<path fill="#45feff" style="fill: var(--color3, #45feff)" d="M23.455 13.997c-1.855-2.039-4.518-3.313-7.48-3.313-2.934 0-5.575 1.251-7.42 3.248-0.115 0.125-0.182 0.283-0.182 0.458 0 0.367 0.298 0.665 0.665 0.665 0.193 0 0.367-0.082 0.488-0.213 1.608-1.741 3.902-2.827 6.45-2.827 2.572 0 4.885 1.107 6.49 2.87 0.127 0.133 0.297 0.211 0.485 0.211 0.367 0 0.664-0.297 0.664-0.664 0-0.166-0.061-0.317-0.161-0.433z"></path>
<path fill="#45feff" style="fill: var(--color3, #45feff)" d="M16.053 18.427c-0.001 0-0.002 0-0.002 0-0.815 0-1.55 0.342-2.071 0.89l2.046 1.999 1.461-1.426v-1.073c-0.411-0.245-0.905-0.389-1.434-0.39z"></path>
<path fill="#45feff" style="fill: var(--color3, #45feff)" d="M22.564 17.223h-0.344v-0.612c0-1.006-0.816-1.822-1.822-1.822s-1.822 0.816-1.822 1.822v0.612h-0.36c-0.079 0-0.144 0.064-0.144 0.144v2.824c0 0.079 0.064 0.144 0.144 0.144h4.35c0.079 0 0.144-0.064 0.144-0.144v-2.819c0-0.001 0-0.003 0-0.004 0-0.079-0.064-0.144-0.144-0.144-0 0-0.001 0-0.001 0zM20.588 18.894l0.146 0.648h-0.691l0.146-0.648c-0.172-0.079-0.29-0.249-0.29-0.447 0-0.271 0.219-0.49 0.49-0.49s0.49 0.219 0.49 0.49c0 0.198-0.118 0.369-0.287 0.446zM21.671 17.223h-2.552v-0.612c0-0.705 0.571-1.276 1.276-1.276s1.276 0.571 1.276 1.276z"></path>
</symbol>
<symbol id="icon-ddos" viewBox="0 0 32 32">
<title>ddos</title>
<path fill="#1d1d1b" opacity="0.5" style="fill: var(--color1, #1d1d1b)" d="M31.947 16c0 8.807-7.14 15.947-15.947 15.947s-15.947-7.14-15.947-15.947c0-8.807 7.14-15.947 15.947-15.947s15.947 7.14 15.947 15.947z"></path>
<path fill="#fff" style="fill: var(--color2, #fff)" d="M16 32c-8.823 0-16-7.177-16-16s7.177-16 16-16 16 7.177 16 16-7.177 16-16 16zM16 0.106c-8.763 0-15.894 7.13-15.894 15.894s7.13 15.894 15.894 15.894 15.894-7.13 15.894-15.894-7.13-15.894-15.894-15.894z"></path>
<path fill="#45feff" style="fill: var(--color3, #45feff)" d="M21.783 19.379c-0.088 0-0.159-0.071-0.159-0.159-0.044-3.063-2.536-5.529-5.605-5.529s-5.562 2.466-5.605 5.525c-0 0.092-0.071 0.164-0.159 0.164s-0.159-0.071-0.159-0.159c0.045-3.238 2.68-5.845 5.924-5.845s5.88 2.608 5.924 5.841c0 0.092-0.071 0.164-0.159 0.164z"></path>
<path fill="#45feff" style="fill: var(--color3, #45feff)" d="M18.433 22.941c-0.235 0-0.425-0.19-0.425-0.425s0.19-0.425 0.425-0.425c0.235 0 0.425 0.19 0.425 0.425s-0.19 0.425-0.425 0.425zM18.433 22.197c-0.176 0-0.319 0.143-0.319 0.319s0.143 0.319 0.319 0.319c0.176 0 0.319-0.143 0.319-0.319 0-0.001 0-0.003 0-0.004 0-0.176-0.143-0.319-0.319-0.319 0 0-0 0-0 0z"></path>
<path fill="#45feff" style="fill: var(--color3, #45feff)" d="M18.433 16.877c-0.235 0-0.425-0.19-0.425-0.425s0.19-0.425 0.425-0.425c0.235 0 0.425 0.19 0.425 0.425s-0.19 0.425-0.425 0.425zM18.433 16.133c-0.176 0-0.319 0.143-0.319 0.319s0.143 0.319 0.319 0.319c0.176 0 0.319-0.143 0.319-0.319 0-0.002 0-0.003 0-0.005 0-0.176-0.143-0.319-0.319-0.319 0 0-0 0-0 0z"></path>
<path fill="#45feff" style="fill: var(--color3, #45feff)" d="M18.433 19.909c-0.235 0-0.425-0.19-0.425-0.425s0.19-0.425 0.425-0.425c0.235 0 0.425 0.19 0.425 0.425s-0.19 0.425-0.425 0.425zM18.433 19.165c-0.176 0-0.319 0.143-0.319 0.319s0.143 0.319 0.319 0.319c0.176 0 0.319-0.143 0.319-0.319 0-0.001 0-0.003 0-0.004 0-0.176-0.143-0.319-0.319-0.319 0 0-0 0-0 0z"></path>
<path fill="#45feff" style="fill: var(--color3, #45feff)" d="M15.326 20.941h1.385v0.561h-1.385v-0.561z"></path>
<path fill="#45feff" style="fill: var(--color3, #45feff)" d="M15.326 17.909h1.385v0.561h-1.385v-0.561z"></path>
<path fill="#45feff" style="fill: var(--color3, #45feff)" d="M18.772 18.073h-5.505c-0.356-0.001-0.645-0.289-0.645-0.645v-1.499c0.001-0.356 0.289-0.645 0.645-0.645h5.505c0.356 0.001 0.645 0.289 0.645 0.645v1.499c-0.001 0.356-0.289 0.645-0.645 0.645zM13.267 15.602c-0.18 0-0.326 0.146-0.326 0.326v1.499c0 0.18 0.146 0.326 0.326 0.326h5.505c0.18 0 0.326-0.146 0.326-0.326v-1.499c0-0.18-0.146-0.326-0.326-0.326zM18.433 16.984c-0.294 0-0.532-0.238-0.532-0.532s0.238-0.532 0.532-0.532c0.294 0 0.532 0.238 0.532 0.532s-0.238 0.53-0.532 0.53c0 0 0 0 0 0zM18.433 16.24c-0.117 0-0.213 0.095-0.213 0.213s0.095 0.213 0.213 0.213c0.117 0 0.213-0.095 0.213-0.213 0-0.002 0-0.004 0-0.006 0-0.117-0.095-0.213-0.213-0.213-0 0-0 0-0 0z"></path>
<path fill="#45feff" style="fill: var(--color3, #45feff)" d="M18.772 21.101h-5.505c-0.356-0.001-0.645-0.289-0.645-0.645v-1.499c0.001-0.356 0.289-0.645 0.645-0.645h5.505c0.356 0 0.645 0.289 0.645 0.645v1.499c0 0.356-0.289 0.645-0.645 0.645zM13.267 18.63c-0.18 0-0.326 0.146-0.326 0.326v1.499c0 0.18 0.146 0.326 0.326 0.326h5.505c0.18 0 0.326-0.146 0.326-0.326v-1.499c0-0.18-0.146-0.326-0.326-0.326zM18.433 20.012c-0.294 0-0.532-0.238-0.532-0.532s0.238-0.532 0.532-0.532c0.294 0 0.532 0.238 0.532 0.532 0 0.001 0 0.002 0 0.003 0 0.294-0.238 0.532-0.532 0.532 0 0 0 0 0 0zM18.433 19.268c-0.117 0-0.213 0.095-0.213 0.213s0.095 0.213 0.213 0.213c0.117 0 0.213-0.095 0.213-0.213 0-0 0-0.001 0-0.001 0-0.117-0.095-0.213-0.213-0.213 0 0 0 0 0 0z"></path>
<path fill="#45feff" style="fill: var(--color3, #45feff)" d="M18.772 24.133h-5.505c-0.356-0.001-0.645-0.289-0.645-0.645v-1.499c0.001-0.356 0.289-0.645 0.645-0.645h5.505c0.356 0 0.645 0.289 0.645 0.645v1.499c0 0.356-0.289 0.645-0.645 0.645zM13.267 21.662c-0.18 0-0.326 0.146-0.326 0.326v1.499c0 0.18 0.146 0.326 0.326 0.326h5.505c0.18 0 0.326-0.146 0.326-0.326v-1.499c0-0.18-0.146-0.326-0.326-0.326zM18.433 23.044c-0.294 0-0.532-0.238-0.532-0.532s0.238-0.532 0.532-0.532c0.294 0 0.532 0.238 0.532 0.532 0 0.001 0 0.002 0 0.003 0 0.294-0.238 0.532-0.532 0.532 0 0 0 0 0 0zM18.433 22.3c-0.117 0-0.213 0.095-0.213 0.213s0.095 0.213 0.213 0.213c0.117 0 0.213-0.095 0.213-0.213 0-0 0-0.001 0-0.001 0-0.117-0.095-0.213-0.213-0.213 0 0 0 0 0 0z"></path>
<path fill="#45feff" style="fill: var(--color3, #45feff)" d="M16.019 12.127c-0.088 0-0.159-0.071-0.159-0.159v-1.84c0-0.088 0.071-0.159 0.159-0.159s0.159 0.071 0.159 0.159v1.84c0 0.088-0.071 0.159-0.159 0.159z"></path>
<path fill="#45feff" style="fill: var(--color3, #45feff)" d="M16.089 10.285l0.616-1.018v-1.24l-0.686 0.686-0.686-0.686v1.24l0.614 1.018h0.141z"></path>
<path fill="#45feff" style="fill: var(--color3, #45feff)" d="M16.019 12.931c-0.168-0.453-0.455-1.014-0.758-1.363l0.758 0.274 0.758-0.274c-0.299 0.348-0.59 0.91-0.758 1.363z"></path>
<path fill="#45feff" style="fill: var(--color3, #45feff)" d="M21.18 13.862c-0.088-0-0.159-0.071-0.159-0.159 0-0.044 0.018-0.084 0.047-0.113l1.301-1.301c0.028-0.027 0.067-0.043 0.109-0.043 0.088 0 0.159 0.071 0.159 0.159 0 0.042-0.016 0.080-0.043 0.109l-1.301 1.306c-0.028 0.026-0.066 0.042-0.107 0.042-0.002 0-0.004-0-0.006-0z"></path>
<path fill="#45feff" style="fill: var(--color3, #45feff)" d="M22.419 12.563l1.156-0.286 0.877-0.876h-0.97l-0.001-0.97-0.876 0.876-0.286 1.156 0.1 0.1z"></path>
<path fill="#45feff" style="fill: var(--color3, #45feff)" d="M20.499 14.383c0.201-0.439 0.395-1.039 0.425-1.5l0.342 0.73 0.73 0.342c-0.459 0.032-1.059 0.226-1.498 0.427z"></path>
<path fill="#45feff" style="fill: var(--color3, #45feff)" d="M10.82 13.862c-0.044-0-0.084-0.018-0.113-0.047l-1.301-1.301c-0.027-0.028-0.043-0.067-0.043-0.109 0-0.088 0.071-0.159 0.159-0.159 0.042 0 0.080 0.016 0.109 0.043l1.301 1.301c0.029 0.029 0.047 0.069 0.047 0.113 0 0.088-0.071 0.159-0.159 0.159z"></path>
<path fill="#45feff" style="fill: var(--color3, #45feff)" d="M9.681 12.463l-0.286-1.156-0.876-0.876v0.97h-0.971l0.877 0.876 1.155 0.286 0.101-0.1z"></path>
<path fill="#45feff" style="fill: var(--color3, #45feff)" d="M11.501 14.383c-0.439-0.201-1.039-0.395-1.5-0.425l0.73-0.342 0.342-0.73c0.032 0.459 0.226 1.060 0.427 1.498z"></path>
</symbol>
<symbol id="icon-sandbox" viewBox="0 0 32 32">
<title>sandbox</title>
<path fill="#1d1d1b" opacity="0.5" style="fill: var(--color1, #1d1d1b)" d="M31.947 16c0 8.807-7.14 15.947-15.947 15.947s-15.947-7.14-15.947-15.947c0-8.807 7.14-15.947 15.947-15.947s15.947 7.14 15.947 15.947z"></path>
<path fill="#fff" style="fill: var(--color2, #fff)" d="M16 32c-8.823 0-16-7.177-16-16s7.177-16 16-16 16 7.177 16 16-7.177 16-16 16zM16 0.106c-8.763 0-15.894 7.13-15.894 15.894s7.13 15.894 15.894 15.894 15.894-7.13 15.894-15.894-7.13-15.894-15.894-15.894z"></path>
<path fill="#45feff" style="fill: var(--color3, #45feff)" d="M16 24.251l-0.078-0.023c-3.189-0.97-5.575-3.334-6.896-6.839-0.579-1.486-0.953-3.204-1.040-4.998l-0.001-0.276 0.236-0.030c0.458-0.057 1.717-0.345 2.031-0.973 0.378-0.757-0.286-1.975-0.292-1.988l-0.147-0.265 0.282-0.106c2.475-0.98 5.767-0.992 5.907-0.992s3.432 0.012 5.91 0.988l0.283 0.106-0.148 0.265c-0.006 0.012-0.671 1.231-0.292 1.988 0.319 0.629 1.572 0.915 2.031 0.973l0.236 0.030v0.238c-0.089 1.832-0.463 3.55-1.080 5.148-1.284 3.396-3.669 5.757-6.858 6.727zM8.526 12.572c0.12 1.699 0.477 3.278 1.041 4.756 1.232 3.242 3.409 5.421 6.433 6.366 3.025-0.944 5.201-3.125 6.471-6.48 0.525-1.364 0.883-2.944 1-4.59-0.529-0.159-1.792-0.472-2.194-1.275-0.377-0.754-0.039-1.736 0.169-2.208-2.356-0.84-5.415-0.851-5.446-0.851s-3.092 0.011-5.446 0.851c0.213 0.472 0.546 1.454 0.169 2.208-0.401 0.804-1.66 1.122-2.195 1.223z"></path>
<path fill="#45feff" style="fill: var(--color3, #45feff)" d="M18.924 14.725h-0.465v-0.823c0-1.352-1.096-2.448-2.448-2.448s-2.448 1.096-2.448 2.448v0.823h-0.486c-0.107 0-0.194 0.087-0.194 0.194v3.792c0 0.107 0.087 0.194 0.194 0.194h5.847c0.107 0 0.194-0.087 0.194-0.194v-3.792c0-0.107-0.087-0.194-0.194-0.194zM14.298 13.902c0-0.946 0.767-1.713 1.713-1.713s1.713 0.767 1.713 1.713v0.823h-3.426zM16.266 16.971l0.196 0.871h-0.929l0.196-0.871c-0.231-0.105-0.389-0.335-0.389-0.601 0-0.363 0.295-0.658 0.658-0.658s0.658 0.295 0.658 0.658c0 0.266-0.158 0.495-0.385 0.599z"></path>
</symbol>
<symbol id="icon-authenticator" viewBox="0 0 32 32">
<title>authenticator</title>
<path fill="#1d1d1b" opacity="0.5" style="fill: var(--color1, #1d1d1b)" d="M31.947 16c0 8.807-7.14 15.947-15.947 15.947s-15.947-7.14-15.947-15.947c0-8.807 7.14-15.947 15.947-15.947s15.947 7.14 15.947 15.947z"></path>
<path fill="#fff" style="fill: var(--color2, #fff)" d="M16 32c-8.823 0-16-7.177-16-16s7.177-16 16-16 16 7.177 16 16-7.177 16-16 16zM16 0.106c-8.763 0-15.894 7.13-15.894 15.894s7.13 15.894 15.894 15.894 15.894-7.13 15.894-15.894-7.13-15.894-15.894-15.894z"></path>
<path fill="#45feff" style="fill: var(--color3, #45feff)" d="M7.861 17.251c-1.222 0-2.295-1.097-2.625-2.674-0.275-0.249-0.451-0.604-0.466-0.999-0.001-0.023-0.002-0.048-0.002-0.072 0-0.297 0.088-0.574 0.24-0.805-0.004-0.007-0.004-0.022-0.004-0.038 0-0.739 0.295-1.41 0.775-1.9 0.53-0.537 1.267-0.871 2.082-0.871s1.552 0.333 2.082 0.871c0.479 0.49 0.775 1.16 0.775 1.899 0 0.015-0 0.030-0 0.045 0.148 0.223 0.237 0.5 0.237 0.797 0 0.025-0.001 0.049-0.002 0.073-0.014 0.394-0.19 0.749-0.464 0.997-0.332 1.583-1.405 2.675-2.627 2.675zM7.861 10.211c-0.007-0-0.015-0-0.022-0-0.718 0-1.366 0.296-1.83 0.773-0.424 0.433-0.686 1.026-0.686 1.68 0 0.029 0.001 0.059 0.002 0.088-0-0.003-0-0.001-0 0.001 0 0.035-0.011 0.067-0.030 0.093-0.13 0.183-0.207 0.411-0.207 0.657 0 0.020 0.001 0.041 0.002 0.061 0.010 0.321 0.16 0.608 0.391 0.802 0.030 0.025 0.050 0.057 0.058 0.094 0.287 1.456 1.242 2.473 2.323 2.473s2.037-1.016 2.324-2.474c0.008-0.038 0.028-0.070 0.056-0.093 0.233-0.195 0.383-0.482 0.394-0.804 0.001-0.019 0.002-0.039 0.002-0.060 0-0.246-0.078-0.474-0.21-0.661-0.016-0.022-0.027-0.054-0.027-0.089 0-0.002 0-0.003 0-0.005 0.001-0.025 0.001-0.054 0.001-0.083 0-0.654-0.261-1.247-0.685-1.68-0.464-0.475-1.111-0.771-1.827-0.771-0.009 0-0.019 0-0.028 0z"></path>
<path fill="#45feff" style="fill: var(--color3, #45feff)" d="M6.053 13.021c-0.003 0-0.006 0-0.010 0-0.326 0-0.643-0.039-0.947-0.112-0.041-0.013-0.091-0.075-0.091-0.149 0-0.088 0.071-0.16 0.16-0.16 0.015 0 0.029 0.002 0.043 0.006 0.255 0.061 0.548 0.097 0.85 0.097 0.158 0 0.314-0.010 0.467-0.028 0.891-0.114 1.532-0.576 1.888-1.374 0.026-0.056 0.083-0.095 0.148-0.095 0 0 0 0 0 0 0.065 0.001 0.12 0.041 0.144 0.098 0.016 0.037 0.403 0.915 1.836 0.916 0.088 0 0.159 0.071 0.159 0.159s-0.071 0.159-0.159 0.159v0c-1.151 0-1.722-0.517-1.97-0.851-0.627 1.109-1.729 1.332-2.519 1.332z"></path>
<path fill="#45feff" style="fill: var(--color3, #45feff)" d="M7.314 14.598h-1.248c-0 0-0 0-0 0-0.081 0-0.148-0.060-0.158-0.138l-0.167-1.075c-0.001-0.007-0.002-0.016-0.002-0.024 0-0.088 0.071-0.159 0.159-0.159h1.807c0.088 0 0.159 0.072 0.159 0.159 0 0.019-0.003 0.037-0.009 0.054l-0.386 1.077c-0.023 0.063-0.081 0.106-0.15 0.106-0.002 0-0.003-0-0.005-0zM6.202 14.279h1l0.271-0.759h-1.392z"></path>
<path fill="#45feff" style="fill: var(--color3, #45feff)" d="M9.656 14.598h-1.248c-0.069-0-0.127-0.044-0.15-0.105l-0.386-1.079c-0.006-0.016-0.009-0.034-0.009-0.053 0-0.088 0.071-0.159 0.159-0.159h1.807c0.088 0 0.159 0.071 0.159 0.159 0 0.009-0.001 0.017-0.002 0.025l-0.173 1.073c-0.010 0.079-0.077 0.139-0.157 0.139zM8.52 14.279h0.999l0.12-0.759h-1.391z"></path>
<path fill="#45feff" style="fill: var(--color3, #45feff)" d="M8.090 13.52h-0.458c-0.088 0-0.159-0.071-0.159-0.159s0.071-0.159 0.159-0.159h0.458c0.088 0 0.159 0.071 0.159 0.159s-0.071 0.159-0.159 0.159z"></path>
<path fill="#45feff" style="fill: var(--color3, #45feff)" d="M21.636 15.623c-0 0-0 0-0 0-0.088 0-0.159-0.071-0.159-0.159 0-0.047 0.021-0.090 0.053-0.119 0.009-0.008 0.59-0.552 1.045-2.295 0.398-1.525 2.055-1.74 2.072-1.742 0.005-0.001 0.012-0.001 0.018-0.001 0.067 0 0.124 0.041 0.148 0.099 0.031 0.077 0.773 1.846 2.797 1.963 0.084 0.005 0.151 0.074 0.151 0.159 0 0.088-0.072 0.16-0.16 0.16-0.003 0-0.006-0-0.009-0-1.913-0.106-2.801-1.607-3.019-2.043-0.349 0.071-1.399 0.375-1.689 1.488-0.485 1.858-1.115 2.429-1.142 2.453-0.028 0.024-0.064 0.039-0.105 0.039-0.001 0-0.001 0-0.002 0z"></path>
<path fill="#45feff" style="fill: var(--color3, #45feff)" d="M22.113 19.372c-0.516 0-0.874-0.125-1.070-0.375s-0.772-4.571 0.495-7.166c0.663-1.364 1.714-2.059 3.126-2.050v0c1.41 0 2.461 0.691 3.126 2.055 1.267 2.599 0.696 6.91 0.495 7.166-0.247 0.319-0.753 0.433-1.504 0.35-0.381-0.045-0.723-0.116-1.054-0.213-0.016-0.007-0.060-0.058-0.068-0.121-0-0.025-0.071-0.613 0.136-2.156 0.011-0.079 0.078-0.14 0.159-0.14 0.089 0 0.161 0.072 0.161 0.161 0 0.008-0 0.015-0.002 0.022-0.153 1.139-0.152 1.745-0.142 1.969 0.542 0.147 1.711 0.356 2.057-0.060 0.158-0.395 0.753-4.928-0.785-7.307-0.603-0.94-1.47-1.409-2.579-1.409v0c-1.106 0-1.973 0.474-2.577 1.409-1.537 2.38-0.944 6.91-0.785 7.307 0.347 0.416 1.515 0.206 2.057 0.060 0.010-0.224 0.011-0.83-0.142-1.97-0.001-0.006-0.001-0.014-0.001-0.021 0-0.089 0.072-0.161 0.161-0.161 0.081 0 0.149 0.060 0.159 0.139 0.213 1.543 0.139 2.127 0.136 2.156-0.008 0.063-0.053 0.115-0.112 0.133-0.288 0.087-0.63 0.157-0.981 0.199-0.151 0.016-0.291 0.023-0.432 0.023-0.012 0-0.024-0-0.036-0zM23.511 18.993v0z"></path>
<path fill="#45feff" style="fill: var(--color3, #45feff)" d="M24.664 17.465c-1.345 0-2.456-1.268-2.583-2.951-0-0.004-0.001-0.008-0.001-0.013 0-0.024 0.005-0.047 0.015-0.067 0.177-0.385 0.341-0.845 0.465-1.322 0.411-1.584 2.068-1.8 2.085-1.802 0.006-0.001 0.012-0.001 0.019-0.001 0.067 0 0.124 0.041 0.148 0.099l0 0.001c0.006 0.015 0.638 1.518 2.252 1.886 0.062 0.014 0.109 0.063 0.121 0.124 0.047 0.235 0.075 0.504 0.075 0.779 0 0.002 0 0.003 0 0.005 0.001 1.796-1.163 3.261-2.595 3.261zM22.402 14.531c0.13 1.494 1.096 2.615 2.262 2.615 1.256 0 2.276-1.323 2.276-2.948 0-0 0-0 0-0 0-0.219-0.019-0.434-0.054-0.643-1.451-0.355-2.131-1.531-2.317-1.911-0.351 0.072-1.398 0.376-1.688 1.488-0.138 0.544-0.302 1.010-0.501 1.456zM24.664 11.466v0zM24.664 11.466v0z"></path>
<path fill="#45feff" style="fill: var(--color3, #45feff)" d="M24.634 20.588c-1.063 0-2.065-0.473-2.673-1.265-0.021-0.027-0.033-0.060-0.033-0.097 0-0.026 0.006-0.051 0.018-0.073 0.025-0.051 0.078-0.086 0.139-0.086 0.003 0 0.005 0 0.007 0 0.014 0 0.031 0 0.047 0 0.279 0 0.552-0.028 0.815-0.080-0.018 0.003-0.007 0.002 0.003 0.002 0.047 0 0.089 0.020 0.118 0.053 0.384 0.429 0.939 0.697 1.557 0.697 0.622 0 1.181-0.272 1.564-0.704 0.031-0.035 0.074-0.056 0.122-0.056 0.011 0 0.022 0.001 0.032 0.003 0.248 0.054 0.534 0.085 0.828 0.086h0.001c0.088 0 0.159 0.072 0.159 0.159 0 0.037-0.012 0.070-0.033 0.097-0.607 0.792-1.606 1.265-2.671 1.265zM22.432 19.378c0.57 0.553 1.348 0.894 2.206 0.894s1.636-0.341 2.207-0.895c-0.174-0.014-0.335-0.038-0.466-0.061-0.439 0.46-1.058 0.747-1.743 0.747-0.681 0-1.295-0.282-1.733-0.737-0.136 0.016-0.298 0.039-0.471 0.051z"></path>
<path fill="#45feff" style="fill: var(--color3, #45feff)" d="M15.65 17.442c-1.411 0-2.651-1.276-3.031-3.1-0.319-0.286-0.523-0.694-0.54-1.15-0.001-0.027-0.002-0.056-0.002-0.084 0-0.343 0.103-0.662 0.279-0.928-0.004-0.011-0.004-0.031-0.004-0.051 0-0.854 0.341-1.627 0.894-2.193 0.612-0.621 1.463-1.006 2.404-1.006s1.792 0.385 2.404 1.006c0.553 0.565 0.894 1.339 0.894 2.193 0 0.020-0 0.040-0.001 0.060 0.173 0.257 0.275 0.576 0.275 0.919 0 0.029-0.001 0.057-0.002 0.085-0.016 0.455-0.221 0.863-0.538 1.147-0.381 1.83-1.622 3.101-3.033 3.101zM15.65 9.249c-0.008-0-0.017-0-0.027-0-0.843 0-1.604 0.348-2.148 0.908-0.498 0.509-0.805 1.205-0.805 1.973 0 0.034 0.001 0.067 0.002 0.101-0-0.003-0-0.002-0 0 0 0.035-0.011 0.067-0.030 0.093-0.154 0.217-0.247 0.488-0.247 0.781 0 0.024 0.001 0.049 0.002 0.073 0.012 0.381 0.19 0.722 0.465 0.952 0.031 0.025 0.051 0.057 0.058 0.094 0.336 1.702 1.459 2.899 2.729 2.899s2.393-1.192 2.729-2.898c0.008-0.038 0.028-0.070 0.056-0.093 0.277-0.232 0.455-0.572 0.467-0.955 0.001-0.023 0.002-0.047 0.002-0.071 0-0.293-0.093-0.564-0.25-0.786-0.016-0.022-0.027-0.054-0.027-0.089 0-0.002 0-0.003 0-0.005 0.001-0.029 0.002-0.064 0.002-0.099 0-0.768-0.307-1.464-0.805-1.972-0.544-0.559-1.304-0.905-2.145-0.905-0.010 0-0.019 0-0.029 0z"></path>
<path fill="#45feff" style="fill: var(--color3, #45feff)" d="M12.513 12.405c-0 0-0 0-0 0-0.088 0-0.159-0.071-0.159-0.159 0-0.029 0.008-0.057 0.022-0.081s1.427-2.411 3.625-1.362l0.437-0.343c0.027-0.021 0.061-0.034 0.099-0.034 0.008 0 0.015 0.001 0.022 0.002 0.058 0.007 1.451 0.213 2.366 1.737 0.012 0.022 0.019 0.047 0.019 0.075 0 0.088-0.071 0.159-0.159 0.159-0.055 0-0.103-0.028-0.132-0.070-0.731-1.218-1.808-1.515-2.073-1.573l-0.46 0.361c-0.027 0.021-0.061 0.034-0.098 0.034-0.027 0-0.052-0.007-0.075-0.018-0.828-0.425-1.631-0.362-2.387 0.199-0.359 0.275-0.661 0.604-0.898 0.979-0.037 0.063-0.088 0.095-0.146 0.095z"></path>
<path fill="#45feff" style="fill: var(--color3, #45feff)" d="M15.65 23.070c-0.026 0-0.056 0-0.086 0-2.17 0-4.314-0.111-6.427-0.328 0.186 0.014 0.125-0.050 0.121-0.13 0-0.066 0-0.133 0-0.2 0-2.191 1.6-4.12 4.076-4.914 0.014-0.005 0.031-0.007 0.048-0.007 0.062 0 0.115 0.035 0.142 0.086l2.127 4.17 2.126-4.17c0.027-0.052 0.080-0.087 0.142-0.087 0.017 0 0.034 0.003 0.049 0.008 2.475 0.794 4.075 2.722 4.075 4.913 0 0.067 0 0.134 0 0.2-0.004 0.079-0.065 0.143-0.143 0.151-1.852 0.196-3.999 0.307-6.173 0.307-0.027 0-0.055-0-0.082-0zM9.568 22.461c1.948 0.192 3.991 0.29 6.077 0.29s4.129-0.098 6.077-0.29q0-0.024 0-0.048c0-2.011-1.458-3.792-3.726-4.571l-2.209 4.326c-0.027 0.052-0.080 0.087-0.142 0.087s-0.115-0.035-0.142-0.086l-2.21-4.327c-2.269 0.775-3.726 2.552-3.726 4.571q0.001 0.019 0.001 0.048z"></path>
<path fill="#45feff" style="fill: var(--color3, #45feff)" d="M7.798 22.087c-0.024 0-0.052 0-0.080 0-1.863 0-3.704-0.095-5.519-0.282 0.149 0.011 0.088-0.053 0.084-0.132 0-0.058 0-0.115 0-0.174 0-1.892 1.382-3.558 3.518-4.243 0.014-0.005 0.031-0.007 0.048-0.007 0.062 0 0.115 0.035 0.142 0.086 0.345 0.661 1.025 1.105 1.808 1.105s1.463-0.443 1.802-1.092c0.032-0.063 0.086-0.098 0.147-0.098 0.017 0 0.034 0.003 0.049 0.008 0.764 0.245 1.425 0.619 1.992 1.1 0.026 0.023 0.047 0.066 0.047 0.114 0 0.055-0.028 0.103-0.070 0.132-1.242 0.839-2.008 2.020-2.164 3.318-0.010 0.078-0.075 0.138-0.154 0.14-0.575 0.016-1.115 0.024-1.651 0.024zM2.598 21.521c1.667 0.164 3.416 0.248 5.2 0.248 0.49 0 0.984-0.006 1.508-0.021 0.195-1.276 0.938-2.432 2.11-3.286-0.456-0.357-0.984-0.649-1.556-0.848-0.454 0.688-1.206 1.149-2.066 1.149s-1.612-0.462-2.021-1.15c-1.938 0.655-3.178 2.173-3.178 3.888 0.004 0.007 0.004 0.015 0.004 0.021z"></path>
<path fill="#45feff" style="fill: var(--color3, #45feff)" d="M24.634 22.087c-0.929 0-1.87-0.031-2.798-0.094-0.076-0.005-0.137-0.063-0.148-0.136-0.132-0.958-0.603-1.86-1.363-2.607-0.030-0.029-0.048-0.069-0.048-0.114 0-0.029 0.008-0.057 0.022-0.080 0.191-0.329 0.396-0.614 0.627-0.877 0.024-0.027 0.067-0.048 0.114-0.048 0.080 0 0.146 0.059 0.158 0.136 0.024 0.206 0.062 0.39 0.113 0.568 0.126 0.132 0.399 0.22 0.785 0.231 0.050 0.001 0.094 0.026 0.122 0.062 0.58 0.699 1.448 1.141 2.42 1.141s1.84-0.442 2.416-1.135c0.033-0.043 0.079-0.067 0.13-0.068 0.418 0 0.711-0.091 0.851-0.257 0.040-0.136 0.073-0.299 0.093-0.466 0.013-0.093 0.079-0.152 0.159-0.152 0.049 0 0.092 0.022 0.122 0.056 0.767 0.913 1.254 2.083 1.317 3.365 0.001 0.015 0.001 0.018 0.001 0.021 0 0.081-0.060 0.148-0.139 0.158-1.47 0.188-3.169 0.296-4.893 0.296-0.021 0-0.041 0-0.062-0zM21.985 21.688c0.879 0.056 1.77 0.084 2.649 0.084 0.017 0 0.037 0 0.057 0 1.657 0 3.29-0.1 4.895-0.293-0.274-1.028-0.642-1.975-1.218-2.76-0.033 0.222-0.063 0.261-0.079 0.28-0.19 0.243-0.537 0.373-1.030 0.388-0.639 0.739-1.577 1.204-2.625 1.204s-1.986-0.465-2.621-1.2c-0.463-0.028-0.788-0.157-0.97-0.39-0.016-0.020-0.051-0.065-0.106-0.331-0.098 0.127-0.198 0.272-0.29 0.423 0.67 0.7 1.151 1.581 1.334 2.566z"></path>
</symbol>
<symbol id="icon-fortiweb" viewBox="0 0 32 32">
<title>fortiweb</title>
<path fill="#1d1d1b" opacity="0.5" style="fill: var(--color1, #1d1d1b)" d="M31.947 16c0 8.807-7.14 15.947-15.947 15.947s-15.947-7.14-15.947-15.947c0-8.807 7.14-15.947 15.947-15.947s15.947 7.14 15.947 15.947z"></path>
<path fill="#fff" style="fill: var(--color2, #fff)" d="M16 32c-8.823 0-16-7.177-16-16s7.177-16 16-16 16 7.177 16 16-7.177 16-16 16zM16 0.106c-8.763 0-15.894 7.13-15.894 15.894s7.13 15.894 15.894 15.894 15.894-7.13 15.894-15.894-7.13-15.894-15.894-15.894z"></path>
<path fill="#45feff" style="fill: var(--color3, #45feff)" d="M10.836 10.346h4.638v0.843h-4.638v-0.843z"></path>
<path fill="#45feff" style="fill: var(--color3, #45feff)" d="M10.836 12.244h4.638v0.843h-4.638v-0.843z"></path>
<path fill="#45feff" style="fill: var(--color3, #45feff)" d="M13.155 22.102c-1.020 0-1.847-0.827-1.847-1.847s0.827-1.847 1.847-1.847c1.020 0 1.847 0.827 1.847 1.847-0.001 1.019-0.827 1.845-1.847 1.847zM13.155 18.729c-0.844 0-1.528 0.684-1.528 1.528s0.684 1.528 1.528 1.528c0.844 0 1.528-0.684 1.528-1.528s-0.684-1.527-1.528-1.528z"></path>
<path fill="#45feff" style="fill: var(--color3, #45feff)" d="M13.788 20.256c0 0.349-0.283 0.633-0.633 0.633s-0.633-0.283-0.633-0.633c0-0.349 0.283-0.633 0.633-0.633s0.633 0.283 0.633 0.633z"></path>
<path fill="#45feff" style="fill: var(--color3, #45feff)" d="M15.628 18.559s0.833-0.106 1.041-0.521-0.139-1.041-0.139-1.041c1.145-0.451 2.708-0.451 2.708-0.451s1.562 0 2.708 0.451c0 0-0.347 0.625-0.139 1.041s1.041 0.521 1.041 0.521-0.069 4.339-3.615 5.415c-3.532-1.076-3.604-5.415-3.604-5.415zM21.147 17.622s-0.638-0.243-1.891-0.243-1.891 0.243-1.891 0.243c0.246 1.318-0.886 1.408-0.886 1.408 0.313 3.575 2.777 4.165 2.777 4.165s2.464-0.59 2.777-4.165c0.003 0-1.125-0.089-0.882-1.409z"></path>
<path fill="#45feff" style="fill: var(--color3, #45feff)" d="M16.74 24h-7.172c-0.321 0-0.582-0.26-0.582-0.582v-14.97c0-0.321 0.26-0.582 0.582-0.582h7.169c0.321 0 0.582 0.26 0.582 0.582v8.774h-0.319v-8.774c0 0 0 0 0-0 0-0.144-0.116-0.261-0.259-0.263h-7.172c-0.145 0-0.263 0.118-0.263 0.263v14.97c0 0.145 0.118 0.263 0.263 0.263h7.169c0.145 0 0.263-0.118 0.263-0.263v-1.412h0.319v1.408c0 0.001 0 0.003 0 0.004 0 0.32-0.259 0.58-0.578 0.582z"></path>
</symbol>
<symbol id="icon-firewall" viewBox="0 0 32 32">
<title>firewall</title>
<path fill="#1d1d1b" opacity="0.5" style="fill: var(--color1, #1d1d1b)" d="M31.947 16c0 8.807-7.14 15.947-15.947 15.947s-15.947-7.14-15.947-15.947c0-8.807 7.14-15.947 15.947-15.947s15.947 7.14 15.947 15.947z"></path>
<path fill="#fff" style="fill: var(--color2, #fff)" d="M16 32c-8.823 0-16-7.177-16-16s7.177-16 16-16 16 7.177 16 16-7.177 16-16 16zM16 0.106c-8.763 0-15.894 7.13-15.894 15.894s7.13 15.894 15.894 15.894 15.894-7.13 15.894-15.894-7.13-15.894-15.894-15.894z"></path>
<path fill="#45feff" style="fill: var(--color3, #45feff)" d="M22.585 20.696h-15.834v-4.076h11.079l0.080 0.093c0.156 0.179 0.322 0.339 0.502 0.484l0.008 0.006c0.957 0.773 2.394 1.588 3.812 1.090l0.354-0.124zM7.282 20.164h14.771v-1.268c-1.218 0.277-2.582-0.159-3.969-1.276v0c-0.181-0.146-0.342-0.298-0.492-0.461l-10.31-0.003z"></path>
<path fill="#45feff" style="fill: var(--color3, #45feff)" d="M18.286 17.151h-11.535v-4.075h10.684l-0.094 0.337c-0.372 1.345-0.186 2.424 0.57 3.296zM7.279 16.62h9.897c-0.54-0.851-0.686-1.857-0.435-3.012h-9.462z"></path>
<path fill="#45feff" style="fill: var(--color3, #45feff)" d="M13.564 17.151h-6.814v-4.075h6.814zM7.282 16.62h5.75v-3.012h-5.75z"></path>
<path fill="#45feff" style="fill: var(--color3, #45feff)" d="M10.826 20.696h-4.075v-4.076h4.075zM7.282 20.164h3.012v-3.013h-3.012z"></path>
<path fill="#45feff" style="fill: var(--color3, #45feff)" d="M16.464 20.696h-6.166v-4.076h6.166zM10.829 20.164h5.103v-3.013h-5.103z"></path>
<path fill="#45feff" style="fill: var(--color3, #45feff)" d="M22.585 24.239h-15.834v-4.075h15.834zM7.282 23.708h14.771v-3.012h-14.771z"></path>
<path fill="#45feff" style="fill: var(--color3, #45feff)" d="M13.564 24.239h-6.814v-4.075h6.814zM7.282 23.708h5.75v-3.012h-5.75z"></path>
<path fill="#45feff" style="fill: var(--color3, #45feff)" d="M18.961 24.239h-5.928v-4.075h5.928zM13.564 23.708h4.865v-3.012h-4.865z"></path>
<path fill="#45feff" style="fill: var(--color3, #45feff)" d="M23.527 10.121c0.162 1.208-0.563 1.53-0.563 1.53-0.403-3.543-4.027-3.624-4.027-3.624 1.45 1.611 0.319 3.624 0.319 3.624-0.479-1.126-2.090-1.126-2.090-1.126s0.786 0.587 0.319 1.691c-0.136 0.302-0.273 0.677-0.386 1.061-0.313 1.136-0.388 2.457 0.607 3.61 0.166 0.191 0.344 0.362 0.535 0.517 0.965 0.78 3.529 2.545 5.726-0.075 2.098-2.497 0.434-6.38-0.44-7.209z"></path>
<path fill="#45feff" style="fill: var(--color3, #45feff)" d="M21.32 18.982c-1.013 0-2.107-0.455-3.235-1.366-0.212-0.171-0.401-0.353-0.573-0.551-0.873-1.011-1.102-2.286-0.684-3.794 0.134-0.464 0.274-0.849 0.438-1.222 0.349-0.827-0.237-1.295-0.263-1.32l-0.613-0.476h0.775c0.063 0 1.347 0.011 2.051 0.827 0.223-0.638 0.454-1.847-0.476-2.881l-0.411-0.457 0.614 0.014c0.036 0 3.497 0.117 4.199 3.338 0.106-0.192 0.182-0.492 0.122-0.943l-0.1-0.744 0.543 0.521c0.975 0.926 2.648 4.968 0.464 7.572-0.826 0.989-1.795 1.483-2.851 1.483zM17.754 10.864c0.164 0.361 0.231 0.858-0.018 1.453-0.132 0.293-0.265 0.657-0.376 1.031-0.389 1.41-0.203 2.489 0.553 3.361 0.156 0.179 0.322 0.339 0.502 0.484 1.451 1.175 3.551 2.112 5.355-0.039 1.638-1.953 0.819-4.908 0.009-6.272-0.152 0.749-0.676 0.993-0.704 1.006l-0.332 0.147-0.040-0.36c-0.281-2.467-2.2-3.138-3.189-3.321 0.962 1.621-0.011 3.402-0.021 3.421l-0.264 0.471-0.213-0.496c-0.239-0.546-0.819-0.784-1.262-0.885z"></path>
</symbol>
<symbol id="icon-roof" viewBox="0 0 201 32">
<title>roof</title>
<path d="M0 21.333l100.392-21.333 100.392 21.333v10.667h-200.784v-10.667z"></path>
</symbol>
<symbol id="icon-email" viewBox="0 0 32 32">
<title>email</title>
<path fill="#45feff" style="fill: var(--color3, #45feff)" d="M28.269 32h-24.775c-0 0-0 0-0 0-1.93 0-3.494-1.564-3.494-3.494 0-0.017 0-0.033 0-0.050l-0-14.938c0.002-1.062 0.479-2.013 1.228-2.652l11.42-9.68c0.867-0.742 2.001-1.194 3.241-1.194s2.375 0.452 3.248 1.2l11.377 9.654c0.757 0.645 1.233 1.599 1.233 2.664 0 0.003 0 0.006 0 0.008v14.94c0 0.014 0 0.031 0 0.047 0 1.924-1.556 3.485-3.478 3.494zM15.905 1.96c-0.773 0.003-1.481 0.284-2.028 0.747l-11.426 9.593c-0.349 0.292-0.569 0.728-0.569 1.215 0 0.006 0 0.013 0 0.019v14.924c0 0.873 0.708 1.581 1.581 1.581h24.806c0.873 0 1.581-0.708 1.581-1.581v-14.941c0-0.005 0-0.012 0-0.018 0-0.487-0.22-0.923-0.567-1.213l-11.386-9.662c-0.535-0.453-1.23-0.732-1.99-0.743z"></path>
<path fill="#45feff" style="fill: var(--color3, #45feff)" d="M15.81 22.814c-0.005 0-0.011 0-0.018 0-0.162 0-0.313-0.041-0.446-0.113l-12.185-6.796c-0.167-0.171-0.27-0.405-0.27-0.663 0-0.524 0.425-0.949 0.949-0.949 0.085 0 0.167 0.011 0.245 0.032l11.725 6.465 11.731-6.561c0.172-0.176 0.413-0.286 0.679-0.286 0.524 0 0.949 0.425 0.949 0.949 0 0.439-0.298 0.809-0.704 0.917l-12.228 6.784c-0.116 0.106-0.261 0.184-0.421 0.22z"></path>
<path fill="#45feff" style="fill: var(--color3, #45feff)" d="M23.447 18.277c-0.005 0-0.010 0-0.016 0-0.515 0-0.933-0.418-0.933-0.933 0-0.006 0-0.011 0-0.017v-5.944h-13.233v6.008c-0.063 0.469-0.46 0.826-0.941 0.826s-0.878-0.358-0.94-0.822l-0.001-6.961c-0-0.005-0-0.010-0-0.016 0-0.515 0.418-0.933 0.933-0.933 0.006 0 0.011 0 0.017 0h15.114c0.005-0 0.010-0 0.016-0 0.515 0 0.933 0.418 0.933 0.933 0 0.006-0 0.011-0 0.017v6.956c-0.026 0.494-0.433 0.886-0.932 0.886-0.006 0-0.012-0-0.018-0z"></path>
<path fill="#45feff" style="fill: var(--color3, #45feff)" d="M20.126 14.83h-8.49c-0.037 0.005-0.079 0.008-0.122 0.008-0.524 0-0.949-0.425-0.949-0.949s0.425-0.949 0.949-0.949c0.043 0 0.085 0.003 0.127 0.008l8.485-0.001c0.469 0.063 0.826 0.46 0.826 0.941s-0.358 0.878-0.822 0.94z"></path>
<path fill="#45feff" style="fill: var(--color3, #45feff)" d="M20.126 17.391h-8.49c-0.469-0.063-0.826-0.46-0.826-0.941s0.358-0.878 0.822-0.94l8.495-0.001c0.469 0.063 0.826 0.46 0.826 0.941s-0.358 0.878-0.822 0.94z"></path>
</symbol>
<symbol id="icon-fax" viewBox="0 0 30 32">
<title>fax</title>
<path fill="#45feff" style="fill: var(--color3, #45feff)" d="M3.598 10.937h21.646v1.892h-21.646v-1.892z"></path>
<path fill="#45feff" style="fill: var(--color3, #45feff)" d="M3.598 19.755h21.646v1.892h-21.646v-1.892z"></path>
<path fill="#45feff" style="fill: var(--color3, #45feff)" d="M21.404 11.89v-9.956h-13.966v9.956h-1.892v-10.951c0-0.518 0.42-0.939 0.939-0.939h15.872c0.518 0 0.939 0.42 0.939 0.939v10.951z"></path>
<path fill="#45feff" style="fill: var(--color3, #45feff)" d="M22.357 32h-15.872c-0.518 0-0.939-0.42-0.939-0.939v-10.368h1.892v9.415h13.98v-9.415h1.892v10.368c0 0 0 0 0 0 0 0.518-0.42 0.939-0.939 0.939-0.005 0-0.010-0-0.015-0z"></path>
<path fill="#45feff" style="fill: var(--color3, #45feff)" d="M8.192 24.391h12.26v0.939h-12.26v-0.939z"></path>
<path fill="#45feff" style="fill: var(--color3, #45feff)" d="M8.192 22.599h12.26v0.939h-12.26v-0.939z"></path>
<path fill="#45feff" style="fill: var(--color3, #45feff)" d="M8.192 26.382h12.26v0.939h-12.26v-0.939z"></path>
<path fill="#45feff" style="fill: var(--color3, #45feff)" d="M17.621 28.26h2.83v0.939h-2.83v-0.939z"></path>
<path fill="#45feff" style="fill: var(--color3, #45feff)" d="M4.622 13.924c-0.644 0-1.166 0.522-1.166 1.166s0.522 1.166 1.166 1.166c0.644 0 1.166-0.522 1.166-1.166s-0.522-1.166-1.166-1.166zM4.622 15.346c-0.118 0-0.213-0.095-0.213-0.213s0.096-0.213 0.213-0.213c0.118 0 0.213 0.095 0.213 0.213-0.021 0.098-0.106 0.171-0.209 0.171-0.002 0-0.003-0-0.005-0z"></path>
<path fill="#45feff" style="fill: var(--color3, #45feff)" d="M7.381 13.924c-0.004-0-0.009-0-0.014-0-0.644 0-1.166 0.522-1.166 1.166s0.522 1.166 1.166 1.166c0.644 0 1.166-0.522 1.166-1.166 0-0.005-0-0.010-0-0.015-0.008-0.632-0.519-1.143-1.151-1.151zM7.381 15.346c-0.118 0-0.213-0.095-0.213-0.213s0.096-0.213 0.213-0.213c0.118 0 0.213 0.095 0.213 0.213-0.021 0.098-0.106 0.171-0.209 0.171-0.002 0-0.003-0-0.005-0z"></path>
<path fill="#45feff" style="fill: var(--color3, #45feff)" d="M10.14 13.924c-0.644 0-1.166 0.522-1.166 1.166s0.522 1.166 1.166 1.166c0.644 0 1.166-0.522 1.166-1.166s-0.522-1.166-1.166-1.166zM10.14 15.346c-0.118 0-0.213-0.095-0.213-0.213s0.095-0.213 0.213-0.213c0.118 0 0.213 0.095 0.213 0.213-0.021 0.098-0.106 0.171-0.209 0.171-0.002 0-0.003-0-0.005-0z"></path>
<path fill="#45feff" style="fill: var(--color3, #45feff)" d="M24.178 7.211h3.456v15.73h-3.456v1.892h4.395c0.518 0 0.939-0.42 0.939-0.939v-17.621c0-0.518-0.42-0.939-0.939-0.939h-4.395z"></path>
<path fill="#45feff" style="fill: var(--color3, #45feff)" d="M1.892 22.94v-15.73h2.716v-1.892h-3.669c-0 0-0 0-0 0-0.518 0-0.939 0.42-0.939 0.939 0 0.005 0 0.010 0 0.015v17.621c0 0.518 0.42 0.939 0.939 0.939h3.669v-1.892z"></path>
</symbol>
<symbol id="icon-name" viewBox="0 0 30 32">
<title>name</title>
<path fill="#45feff" style="fill: var(--color3, #45feff)" d="M29.717 32h-29.717v-1.282c0.319-2.32 1.507-4.314 3.22-5.679l5.163-3.142c0.359-0.229 0.797-0.366 1.267-0.366s0.908 0.136 1.276 0.371l3.916 2.34 3.926-2.518c0.359-0.24 0.8-0.383 1.275-0.383s0.916 0.143 1.283 0.388l5.262 3.295c1.684 1.397 2.833 3.389 3.123 5.649zM2.33 30.139h25.024c-0.403-1.328-1.124-2.458-2.076-3.343l-4.947-3.429c-0.075-0.048-0.167-0.076-0.266-0.076s-0.19 0.029-0.268 0.078l-4.925 2.955-4.88-2.862c-0.073-0.048-0.162-0.077-0.258-0.077s-0.185 0.029-0.26 0.078l-5.081 3.346c-0.949 0.886-1.665 2.010-2.051 3.279z"></path>
<path fill="#45feff" style="fill: var(--color3, #45feff)" d="M11.042 23.851c-0.006 0-0.013 0-0.020 0-0.518 0-0.938-0.42-0.938-0.938 0-0.241 0.091-0.461 0.24-0.627l-0.001 0.001c0.396-0.798 0.627-1.737 0.627-2.731 0-0.052-0.001-0.103-0.002-0.155-0.976-0.997-1.776-2.178-2.348-3.482-0.316-0.162-0.566-0.29-0.786-0.456-0.783-0.65-1.308-1.599-1.401-2.671-0.050-0.222-0.078-0.461-0.078-0.706 0-0.679 0.216-1.308 0.584-1.821 0.163-0.197 0.365-0.369 0.593-0.501-0.003-0.189-0.011-0.402-0.011-0.618 0-2.15 0.764-4.122 2.035-5.659 0.283-0.264 0.631-0.491 1.014-0.649l1.117-0.493c0.194-0.725 0.484-1.36 0.86-1.933 0.154-0.238 0.445-0.411 0.777-0.411 0.229 0 0.438 0.082 0.601 0.218 0.492 0.375 1.071 0.669 1.698 0.85 1.649 0.506 3.018 1.395 4.081 2.567 2.165 1.462 2.525 4.7 2.572 6.107 0.252 0.139 0.465 0.317 0.638 0.528 0.394 0.52 0.629 1.173 0.629 1.881 0 0.221-0.023 0.437-0.067 0.645-0.090 1.067-0.615 2.015-1.398 2.665-0.229 0.17-0.49 0.298-0.772 0.377-0.654 1.389-1.495 2.57-2.517 3.568-0.003 0.030-0.003 0.064-0.003 0.097 0 1.046 0.261 2.031 0.721 2.894 0.096 0.12 0.164 0.312 0.164 0.52 0 0.303-0.143 0.572-0.366 0.744-0.156 0.12-0.351 0.192-0.564 0.192-0.291 0-0.55-0.135-0.72-0.345-0.706-1.143-1.124-2.527-1.124-4.009 0-0.153 0.004-0.305 0.013-0.456-0.001 0.016-0.001 0.009-0.001 0.003 0-0.263 0.108-0.5 0.282-0.67 1.057-0.985 1.88-2.206 2.388-3.58 0.136-0.462 0.496-0.748 0.924-0.748 0.079 0 0.156 0.010 0.229 0.028l-0.006-0.001c0.203 0 0.657-0.328 0.86-1.564 0.109-0.688 0-0.938-0.094-1.032-0.046-0.049-0.104-0.087-0.169-0.109-0.013-0-0.024-0-0.035-0-0.518 0-0.938-0.42-0.938-0.938 0-0.017 0-0.033 0.001-0.050-0-1.108-0.188-4.205-1.814-5.222-0.078-0.049-0.145-0.106-0.203-0.171-0.862-0.993-1.979-1.742-3.25-2.145-0.585-0.192-1.030-0.377-1.459-0.59-0.042 0.27-0.128 0.553-0.183 0.848-0.037 0.367-0.25 0.653-0.545 0.789l-1.57 0.675c-0.187 0.073-0.348 0.174-0.486 0.298-1.719 1.735-1.438 5.426-1.438 5.457 0.002 0.024 0.003 0.051 0.003 0.079 0 0.503-0.396 0.913-0.893 0.937-0.080 0.018-0.145 0.063-0.189 0.124-0.001 0.079-0.188 0.345-0.095 1.018 0.203 1.267 0.641 1.564 0.907 1.564 0.044-0.008 0.095-0.012 0.146-0.012 0.416 0 0.764 0.29 0.854 0.679 0.537 1.441 1.359 2.661 2.405 3.646 0.179 0.175 0.287 0.413 0.287 0.675 0 0.012-0 0.023-0.001 0.035 0.011 0.15 0.017 0.328 0.017 0.506 0 1.432-0.39 2.773-1.069 3.923-0.146 0.197-0.412 0.349-0.714 0.355z"></path>
</symbol>
<symbol id="icon-phone" viewBox="0 0 31 32">
<title>phone</title>
<path fill="#45feff" style="fill: var(--color3, #45feff)" d="M23.099 32c-0.17 0.010-0.369 0.015-0.569 0.015s-0.399-0.005-0.597-0.016c-5.692-0.964-10.642-3.737-14.33-7.699-3.964-3.671-6.7-8.587-7.585-14.121-0.509-4.883 1.563-8.598 5.578-10.005 0.305-0.107 0.656-0.17 1.022-0.17 1.263 0 2.353 0.74 2.859 1.81l1.905 4.13c0.184 0.389 0.291 0.844 0.291 1.325 0 0.864-0.346 1.647-0.908 2.217l-2.577 2.545c1.060 2.407 2.57 4.439 4.438 6.070 1.683 1.901 3.724 3.409 6.028 4.432l2.625-2.47c0.57-0.56 1.353-0.906 2.216-0.906 0.506 0 0.983 0.119 1.407 0.33l4.804 2.411c1.017 0.54 1.697 1.591 1.697 2.802 0 0.302-0.042 0.595-0.122 0.872-0.86 3.699-4.148 6.429-8.074 6.429-0.039 0-0.078-0-0.116-0.001zM6.672 1.881c-0.055-0.010-0.118-0.015-0.182-0.015s-0.127 0.005-0.188 0.016c-3.155 1.122-4.737 4.078-4.357 7.904v0c0.866 5.201 3.379 9.705 6.975 13.063 3.428 3.667 7.963 6.235 13.070 7.168 0.456 0.075 0.815 0.105 1.18 0.105 3.097 0 5.688-2.167 6.34-5.067 0.035-0.14 0.050-0.251 0.050-0.365 0-0.486-0.278-0.907-0.683-1.114l-4.829-2.422c-0.16-0.081-0.348-0.128-0.547-0.128-0.342 0-0.652 0.14-0.876 0.365l-3.162 3.162h-0.427c-0.285 0-2.909-0.348-7.668-5.107s-5.138-7.431-5.138-7.7v-0.411l3.162-3.162c0.226-0.224 0.366-0.534 0.366-0.876 0-0.187-0.042-0.364-0.116-0.522l-1.894-4.103c-0.176-0.442-0.585-0.755-1.071-0.79z"></path>
</symbol>
<symbol id="icon-logo" viewBox="0 0 54 32">
<title>logo</title>
<path fill="#fff" style="fill: var(--color2, #fff)" d="M36.098 10.944q-4.209 0-4.209 3.961 0 4.186 4.209 4.186c0.019 0 0.041 0 0.064 0 0.78 0 1.531-0.123 2.236-0.351l-0.051-0.886c-0.634 0.249-1.367 0.394-2.135 0.394-0.003 0-0.007 0-0.010 0q-3.287 0-3.287-3.344 0.008-3.117 3.288-3.117c0 0 0.001 0 0.001 0 0.768 0 1.501 0.144 2.176 0.408l-0.041-0.915c-0.651-0.212-1.4-0.335-2.178-0.335-0.022 0-0.043 0-0.065 0z"></path>
<path fill="#fff" style="fill: var(--color2, #fff)" d="M41.772 15.438q-2.393 0-2.393 1.814 0 1.781 2.105 1.781c0.003 0 0.007 0 0.011 0 0.713 0 1.375-0.219 1.922-0.593l0.348 0.593h0.585v-4.066q0-1.831-2.631-1.831c-0.667 0.005-1.308 0.107-1.911 0.294l0.047 0.829c0.557-0.175 1.198-0.277 1.862-0.282q1.593 0 1.593 1.017v0.556c-0.462-0.071-0.995-0.112-1.537-0.112-0 0-0.001 0-0.001 0zM43.313 17.619c-0.478 0.358-1.082 0.574-1.735 0.574-0.032 0-0.064-0.001-0.096-0.002q-1.062 0-1.062-0.955t1.355-0.956c0 0 0.001 0 0.001 0 0.543 0 1.077 0.041 1.598 0.119z"></path>
<path fill="#fff" style="fill: var(--color2, #fff)" d="M47.924 13.977c0.753 0 1.476 0.123 2.152 0.351l-0.048-0.913c-0.631-0.179-1.356-0.282-2.105-0.282q-2.456 0-2.456 1.684 0 1.743 1.911 1.743h0.842q0.983 0 0.983 0.787 0 0.842-1.41 0.842c-0.753-0.001-1.476-0.124-2.153-0.351l0.048 0.915c0.631 0.179 1.356 0.282 2.105 0.282q2.45 0 2.45-1.684 0-1.743-2.023-1.743h-0.842q-0.928 0-0.928-0.787 0-0.844 1.473-0.844z"></path>
<path fill="#fff" style="fill: var(--color2, #fff)" d="M53.834 13.977v-0.842h-1.595l-0.225-0.956h-0.659v5.262q0 1.591 1.473 1.591h0.989v-0.842h-0.72q-0.714 0-0.714-0.827v-3.386z"></path>
<path fill="#45feff" style="fill: var(--color3, #45feff)" d="M16.6 10.944q-4.209 0-4.209 3.961 0 4.186 4.209 4.186c0.019 0 0.041 0 0.064 0 0.78 0 1.531-0.123 2.235-0.351l-0.051-0.886c-0.633 0.249-1.366 0.394-2.134 0.394-0 0-0 0-0.001 0q-3.288 0-3.288-3.344 0-3.117 3.288-3.117c0.001 0 0.002 0 0.003 0 0.767 0 1.5 0.144 2.174 0.408l-0.041-0.915c-0.651-0.213-1.4-0.335-2.178-0.335-0.025 0-0.051 0-0.076 0z"></path>
<path fill="#45feff" style="fill: var(--color3, #45feff)" d="M22.257 17.743l-1.669-4.609h-1.128l2.258 5.935c-0.288 0.638-0.795 1.134-1.422 1.403l0.382 0.743q1.303-0.4 1.955-2.006l2.45-6.076h-1.090z"></path>
<path fill="#45feff" style="fill: var(--color3, #45feff)" d="M28.247 13.133c-0.007-0-0.015-0-0.024-0-0.509 0-0.993 0.104-1.433 0.291l0.024-2.425h-1.040v7.787c0.675 0.154 1.45 0.242 2.246 0.242 0.030 0 0.061-0 0.091-0q2.942 0 2.942-3.069-0.006-2.827-2.806-2.827zM28.056 18.168c-0.028 0.001-0.060 0.001-0.093 0.001-0.409 0-0.805-0.060-1.178-0.171l0.029-3.661c0.399-0.192 0.866-0.304 1.361-0.304 0.023 0 0.047 0 0.070 0.001q1.777-0 1.777 1.894 0.002 2.242-1.966 2.242z"></path>
<path fill="#45feff" style="fill: var(--color3, #45feff)" d="M1.103 16.086c-0.276-2.023-0.019-4.161 0.804-6.424 0.655-1.705 1.674-3.144 2.968-4.277l-0.533-0.825c-1.475 1.263-2.623 2.865-3.328 4.687-0.909 2.511-1.191 4.809-0.909 6.973z"></path>
<path fill="#45feff" style="fill: var(--color3, #45feff)" d="M4.045 23.876l0.796-0.615q-2.406-2.456-3.304-5.262l-1.021 0.137q0.932 3.069 3.53 5.74z"></path>
<path fill="#45feff" style="fill: var(--color3, #45feff)" d="M22.278 27.214c0.103-0.017 0.196-0.050 0.297-0.069l-0.57-0.88c-0.456 0.080-0.98 0.125-1.516 0.125-1.669 0-3.234-0.443-4.585-1.218q-1.468-0.818-2.733-1.704l-0.772 0.65c0.859 0.613 1.862 1.251 2.898 1.838 1.618 0.924 3.351 1.415 5.199 1.415 0.63 0 1.247-0.057 1.845-0.167z"></path>
<path fill="#45feff" style="fill: var(--color3, #45feff)" d="M18.431 4.062c-0.96 0-1.904 0.065-2.829 0.191l0.421 0.931c3.471-0.421 7.070 0.082 9.379 1.374 1.284 0.732 2.35 1.701 3.173 2.856l1.195 0.030c-0.971-1.558-2.279-2.82-3.828-3.708-1.974-1.105-4.683-1.674-7.51-1.674z"></path>
<path fill="#45feff" style="fill: var(--color3, #45feff)" d="M10.814 22.897l0.762-0.644c-4.601-3.78-5.912-7.941-3.864-12.445 0.918-2.006 3.212-3.532 6.363-4.279l-0.309-0.932c-3.443 0.827-5.893 2.505-6.946 4.807-2.239 4.908-0.884 9.442 3.995 13.493z"></path>
<path fill="#45feff" style="fill: var(--color3, #45feff)" d="M27.965 26.429c-1.441 1.183-3.205 2.025-5.139 2.378-0.624 0.111-1.263 0.169-1.915 0.169-0.476 0-0.945-0.031-1.404-0.090l-0.135 0.965c0.463 0.064 0.998 0.101 1.541 0.101 0.711 0 1.407-0.063 2.083-0.183 2.486-0.459 4.709-1.651 6.441-3.345z"></path>
<path fill="#45feff" style="fill: var(--color3, #45feff)" d="M28.767 6.689c0.829 0.797 1.545 1.704 2.126 2.698l1.143 0.059c-0.697-1.321-1.55-2.452-2.556-3.427z"></path>
<path fill="#45feff" style="fill: var(--color3, #45feff)" d="M5.157 9.821c0.244-0.761 0.515-1.406 0.832-2.023 1.167-2.286 3.92-3.95 7.719-4.611 4.698-0.819 10.204 0.067 13.386 2.155 0.048 0.034 0.093 0.072 0.141 0.105l0.722-0.682c-0.112-0.078-0.21-0.166-0.328-0.24-2.538-1.667-6.451-2.616-10.332-2.616-0.016-0-0.035-0-0.054-0-1.308 0-2.589 0.114-3.835 0.333-3.976 0.705-6.982 2.544-8.325 5.186-0.298 0.573-0.588 1.258-0.824 1.967z"></path>
<path fill="#45feff" style="fill: var(--color3, #45feff)" d="M14.278 27.961c0.918 0.61 1.976 1.115 3.104 1.461l0.278-0.939c-1.084-0.337-2.029-0.79-2.89-1.358-7.535-4.947-10.902-10.177-10.060-15.563l-0.059 0.166-0.922-0.322c-0.947 5.769 2.585 11.325 10.549 16.556z"></path>
<path fill="#45feff" style="fill: var(--color3, #45feff)" d="M13.912 1.313c1.188-0.218 2.556-0.342 3.953-0.342 0.132 0 0.263 0.001 0.394 0.003l0.218-0.975q-0.322 0-0.646 0c-0.005 0-0.011 0-0.017 0-1.438 0-2.846 0.127-4.214 0.371-2.891 0.509-5.559 1.557-7.706 2.997l0.541 0.81c2.033-1.364 4.576-2.357 7.478-2.865z"></path>
<path fill="#45feff" style="fill: var(--color3, #45feff)" d="M25.004 1.263c-1.326-0.532-2.865-0.922-4.468-1.1l-0.316 0.948c1.632 0.166 3.129 0.538 4.535 1.092 3.552 1.502 6.558 4.012 8.666 7.171l1.206 0.071c-2.279-3.652-5.573-6.483-9.488-8.133z"></path>
<path fill="#45feff" style="fill: var(--color3, #45feff)" d="M23.501 30.811c-0.73 0.135-1.57 0.212-2.427 0.212-1.88 0-3.673-0.371-5.31-1.044q-5.889-2.378-9.45-5.371l-0.81 0.619q3.74 3.157 9.993 5.683c1.661 0.691 3.589 1.092 5.612 1.092 0.905 0 1.791-0.080 2.651-0.234 2.085-0.381 4.022-1.165 5.732-2.27l-0.603-0.773c-1.543 0.991-3.354 1.72-5.297 2.072z"></path>
<path fill="#fff" style="fill: var(--color2, #fff)" d="M31.76 23.617l-0.318-0.055v-1.526h0.442v-0.284h-0.442v-0.267c-0.001-0.009-0.001-0.020-0.001-0.031 0-0.098 0.031-0.189 0.084-0.263 0.055-0.061 0.136-0.101 0.227-0.101 0.009 0 0.017 0 0.026 0.001l0.102-0 0.084 0.013 0.046-0.293-0.149-0.029c-0.040-0.007-0.086-0.011-0.133-0.011-0.001 0-0.001 0-0.002 0-0.011-0.001-0.024-0.001-0.037-0.001-0.177 0-0.338 0.071-0.456 0.186-0.111 0.127-0.178 0.294-0.178 0.476 0 0.016 0.001 0.032 0.002 0.048l-0 0.265h-0.328v0.284h0.33v1.526l-0.318 0.055v0.246h1.021z"></path>
<path fill="#fff" style="fill: var(--color2, #fff)" d="M33.402 23.903c0.008 0 0.018 0 0.028 0 0.151 0 0.296-0.028 0.429-0.079 0.107-0.042 0.207-0.105 0.291-0.183l-0.15-0.25c-0.072 0.065-0.156 0.117-0.249 0.152-0.101 0.037-0.212 0.057-0.327 0.057-0.007 0-0.015-0-0.022-0s-0.017 0.001-0.027 0.001c-0.16 0-0.302-0.077-0.392-0.195-0.097-0.136-0.155-0.305-0.155-0.486 0-0.006 0-0.011 0-0.017v0.001h1.37v-0.24c0.001-0.019 0.002-0.041 0.002-0.063 0-0.236-0.080-0.454-0.214-0.627-0.145-0.157-0.355-0.256-0.588-0.256-0.020 0-0.039 0.001-0.059 0.002-0.251 0.001-0.477 0.117-0.628 0.297-0.169 0.191-0.271 0.442-0.271 0.717 0 0.012 0 0.025 0.001 0.037l-0 0.084c-0.001 0.014-0.001 0.031-0.001 0.047 0 0.273 0.099 0.523 0.263 0.716 0.162 0.175 0.396 0.286 0.655 0.286 0.016 0 0.031-0 0.047-0.001zM33.012 22.175c0.077-0.099 0.197-0.162 0.33-0.162 0.009-0.001 0.020-0.001 0.031-0.001 0.132 0 0.25 0.059 0.329 0.152 0.077 0.099 0.123 0.225 0.123 0.361 0 0.007-0 0.013-0 0.020l0 0.050h-0.974c0.013-0.159 0.072-0.302 0.163-0.418z"></path>
<path fill="#fff" style="fill: var(--color2, #fff)" d="M36.437 21.969c-0.147-0.159-0.356-0.259-0.589-0.259-0.020 0-0.040 0.001-0.060 0.002-0.251 0.001-0.477 0.117-0.628 0.297-0.169 0.191-0.271 0.442-0.271 0.717 0 0.012 0 0.025 0.001 0.037l-0 0.084c-0.001 0.014-0.001 0.030-0.001 0.047 0 0.273 0.099 0.524 0.263 0.717 0.163 0.18 0.399 0.294 0.662 0.294 0.014 0 0.028-0 0.041-0.001 0.006 0 0.016 0 0.026 0 0.151 0 0.296-0.028 0.429-0.079 0.107-0.042 0.207-0.105 0.291-0.183l-0.15-0.25c-0.072 0.065-0.156 0.117-0.249 0.152-0.101 0.037-0.212 0.057-0.328 0.057-0.007 0-0.015-0-0.022-0s-0.017 0.001-0.026 0.001c-0.16 0-0.303-0.077-0.393-0.195-0.097-0.136-0.155-0.305-0.155-0.486 0-0.006 0-0.011 0-0.017v0.001h1.37v-0.24c0.002-0.021 0.002-0.045 0.002-0.069 0-0.237-0.081-0.456-0.217-0.63zM36.273 22.6h-0.974c0.016-0.157 0.077-0.296 0.169-0.41 0.076-0.097 0.195-0.16 0.329-0.161 0.011-0.001 0.023-0.001 0.035-0.001 0.13 0 0.247 0.059 0.324 0.152 0.077 0.099 0.123 0.224 0.123 0.36 0 0.007-0 0.014-0 0.020z"></path>
<path fill="#fff" style="fill: var(--color2, #fff)" d="M37.283 23.617v0.246h1.023v-0.246l-0.32-0.055v-2.745h-0.703v0.246l0.32 0.055v2.444l-0.32 0.055z"></path>
<path fill="#fff" style="fill: var(--color2, #fff)" d="M41.042 22.013c0.003-0 0.007-0 0.011-0 0.083 0 0.162 0.015 0.235 0.042 0.064 0.024 0.123 0.060 0.172 0.106l0.063 0.254h0.288l-0.019-0.467c-0.089-0.076-0.195-0.136-0.311-0.173-0.13-0.042-0.273-0.065-0.42-0.065-0.006 0-0.012 0-0.018 0-0.011-0.001-0.024-0.001-0.038-0.001-0.201 0-0.386 0.068-0.533 0.183-0.127 0.1-0.209 0.257-0.209 0.432 0 0.002 0 0.005 0 0.007-0 0.004-0 0.009-0 0.014 0 0.155 0.077 0.293 0.195 0.376 0.167 0.111 0.361 0.191 0.571 0.229 0.148 0.024 0.271 0.074 0.379 0.147 0.056 0.047 0.094 0.12 0.094 0.202 0 0.002-0 0.005-0 0.007-0.001 0.087-0.047 0.164-0.115 0.21-0.083 0.053-0.183 0.084-0.29 0.084-0.012 0-0.023-0-0.034-0.001 0.001 0 0 0-0 0-0.082 0-0.162-0.010-0.239-0.029-0.063-0.013-0.124-0.044-0.175-0.087l-0.071-0.284h-0.288v0.482c0.098 0.069 0.211 0.124 0.333 0.16 0.131 0.037 0.271 0.057 0.417 0.057 0.008 0 0.016-0 0.024-0 0.012 0.001 0.027 0.001 0.043 0.001 0.207 0 0.398-0.066 0.554-0.178 0.136-0.099 0.225-0.26 0.225-0.442 0-0.004-0-0.007-0-0.011s0-0.008 0-0.013c0-0.157-0.077-0.296-0.195-0.382-0.171-0.114-0.372-0.196-0.588-0.233-0.144-0.020-0.265-0.065-0.371-0.132-0.063-0.040-0.108-0.114-0.11-0.197 0.001-0.084 0.039-0.16 0.099-0.21 0.074-0.056 0.167-0.090 0.268-0.090 0.019 0 0.038 0.001 0.057 0.004z"></path>
<path fill="#fff" style="fill: var(--color2, #fff)" d="M42.526 22.762v0.086c-0.001 0.014-0.001 0.030-0.001 0.047 0 0.273 0.099 0.524 0.263 0.717 0.163 0.18 0.399 0.294 0.662 0.294 0.014 0 0.028-0 0.041-0.001 0.006 0 0.016 0 0.026 0 0.151 0 0.296-0.028 0.429-0.079 0.107-0.042 0.207-0.105 0.291-0.183l-0.15-0.25c-0.072 0.065-0.156 0.117-0.249 0.152-0.101 0.037-0.212 0.057-0.328 0.057-0.007 0-0.015-0-0.022-0s-0.017 0.001-0.026 0.001c-0.16 0-0.303-0.077-0.393-0.195-0.097-0.136-0.155-0.305-0.155-0.486 0-0.006 0-0.011 0-0.017v0.001h1.37v-0.24c0.001-0.019 0.002-0.042 0.002-0.064 0-0.236-0.080-0.453-0.214-0.626-0.145-0.157-0.355-0.256-0.587-0.256-0.020 0-0.040 0.001-0.060 0.002-0.251 0.001-0.477 0.117-0.628 0.297-0.17 0.192-0.273 0.443-0.273 0.719 0 0.009 0 0.018 0 0.026zM43.1 22.177c0.077-0.099 0.197-0.162 0.33-0.162 0.011-0.001 0.023-0.001 0.035-0.001 0.13 0 0.247 0.059 0.324 0.152 0.077 0.099 0.123 0.224 0.123 0.36 0 0.007-0 0.014-0 0.020l0 0.050h-0.977c0.013-0.16 0.073-0.304 0.165-0.42z"></path>
<path fill="#fff" style="fill: var(--color2, #fff)" d="M45.489 22.232c0.084-0.129 0.227-0.212 0.389-0.212 0.015 0 0.029 0.001 0.044 0.002 0.002-0 0.007-0 0.011-0 0.082 0 0.161 0.015 0.234 0.042 0.064 0.023 0.123 0.060 0.172 0.106l0.084 0.332h0.301l-0.017-0.469c-0.091-0.098-0.203-0.176-0.328-0.227-0.136-0.056-0.287-0.087-0.444-0.087-0.007 0-0.013 0-0.019 0-0.016-0.001-0.035-0.002-0.055-0.002-0.259 0-0.491 0.117-0.646 0.302-0.154 0.196-0.246 0.444-0.246 0.713 0 0.015 0 0.029 0.001 0.044l-0 0.080c-0.001 0.013-0.001 0.027-0.001 0.042 0 0.27 0.092 0.519 0.247 0.716 0.154 0.183 0.386 0.3 0.645 0.3 0.020 0 0.039-0.001 0.059-0.002 0.002 0 0.007 0 0.012 0 0.22 0 0.421-0.080 0.576-0.212 0.147-0.108 0.243-0.282 0.243-0.479 0-0.002 0-0.004-0-0.007v-0.012h-0.345c0 0 0 0.001 0 0.002 0 0.118-0.057 0.223-0.144 0.288-0.090 0.074-0.205 0.119-0.33 0.119-0.003 0-0.005-0-0.008-0-0.013 0.001-0.028 0.002-0.044 0.002-0.163 0-0.306-0.084-0.388-0.211-0.082-0.146-0.13-0.319-0.13-0.503 0-0.014 0-0.028 0.001-0.042l-0-0.080c-0.001-0.014-0.001-0.030-0.001-0.047 0-0.183 0.048-0.355 0.132-0.504z"></path>
<path fill="#fff" style="fill: var(--color2, #fff)" d="M47.587 21.75h-0.242v0.248l0.242 0.055v0.943c-0.002 0.025-0.003 0.054-0.003 0.084 0 0.227 0.074 0.437 0.199 0.607 0.121 0.128 0.296 0.209 0.489 0.209 0.016 0 0.032-0.001 0.047-0.002 0.002 0 0.006 0 0.010 0 0.129 0 0.249-0.034 0.353-0.095 0.104-0.062 0.191-0.151 0.252-0.256l0.027 0.308h0.587v-0.246l-0.242-0.055v-1.812h-0.667v0.248l0.284 0.055v1.221c-0.045 0.1-0.118 0.18-0.208 0.234-0.092 0.053-0.2 0.084-0.315 0.084-0.009 0-0.019-0-0.028-0.001-0.008 0.001-0.018 0.001-0.028 0.001-0.111 0-0.211-0.049-0.279-0.127-0.065-0.112-0.103-0.246-0.103-0.389 0-0.027 0.001-0.054 0.004-0.080l-0-1.247z"></path>
<path fill="#fff" style="fill: var(--color2, #fff)" d="M51.372 21.71c-0.002-0-0.004-0-0.006-0-0.11 0-0.213 0.035-0.297 0.094-0.090 0.066-0.165 0.151-0.217 0.25l-0.040-0.303h-0.663v0.248l0.318 0.055v1.509l-0.318 0.055v0.246h1.021v-0.246l-0.318-0.055v-1.212c0.033-0.086 0.088-0.158 0.159-0.21 0.069-0.046 0.153-0.073 0.242-0.073 0.005 0 0.010 0 0.015 0l0.21 0.013 0.050-0.358-0.074-0.015c-0.007-0-0.016-0-0.024-0-0.020 0-0.041 0.001-0.061 0.003z"></path>
<path fill="#fff" style="fill: var(--color2, #fff)" d="M53.834 22.897v-0.24c0.001-0.019 0.002-0.041 0.002-0.063 0-0.236-0.080-0.454-0.214-0.627-0.145-0.157-0.355-0.256-0.588-0.256-0.020 0-0.039 0.001-0.059 0.002-0.251 0.001-0.477 0.117-0.628 0.297-0.169 0.191-0.271 0.442-0.271 0.717 0 0.012 0 0.025 0.001 0.037l-0 0.084c-0.001 0.014-0.001 0.031-0.001 0.047 0 0.273 0.099 0.523 0.263 0.716 0.163 0.18 0.399 0.294 0.662 0.294 0.013 0 0.026-0 0.039-0.001 0.006 0 0.016 0 0.026 0 0.151 0 0.296-0.028 0.429-0.079 0.107-0.042 0.207-0.105 0.291-0.183l-0.15-0.25c-0.072 0.065-0.156 0.117-0.249 0.152-0.101 0.037-0.212 0.057-0.327 0.057-0.007 0-0.015-0-0.022-0s-0.017 0.001-0.027 0.001c-0.16 0-0.302-0.077-0.392-0.195-0.097-0.136-0.155-0.305-0.155-0.486 0-0.006 0-0.011 0-0.017v0.001zM52.639 22.177c0.077-0.099 0.197-0.162 0.33-0.162 0.009-0.001 0.020-0.001 0.031-0.001 0.132 0 0.25 0.059 0.329 0.152 0.077 0.099 0.123 0.225 0.123 0.361 0 0.007-0 0.013-0 0.020l0 0.050h-0.974c0.012-0.16 0.071-0.304 0.163-0.42z"></path>
<path fill="#45feff" style="fill: var(--color3, #45feff)" d="M33.044 26.429h-1.326c-0.388 0.396-0.793 0.768-1.218 1.12l0.519 0.84c0.74-0.608 1.402-1.249 2.008-1.94z"></path>
</symbol>
<symbol id="icon-office" viewBox="0 0 38 32">
<title>office</title>
<path fill="#45feff" style="fill: var(--color3, #45feff)" d="M0 8v6.908c5.052 1.962 10.899 3.109 17.010 3.132l0.010-1.485c0-0.652 0.529-1.181 1.181-1.181h1.647c0.652 0 1.181 0.529 1.181 1.181v1.503c6.115-0.026 11.956-1.172 17.336-3.245l-0.334-6.813c0-0.652-0.529-1.181-1.181-1.181h-35.669c-0.652 0-1.181 0.529-1.181 1.181z"></path>
<path fill="#45feff" style="fill: var(--color3, #45feff)" d="M21.029 22.264c0 0.652-0.529 1.181-1.181 1.181h-1.647c-0.652 0-1.181-0.529-1.181-1.181v-2.899c-6.12-0.024-11.967-1.164-17.357-3.227l0.336 14.681c0 0.652 0.529 1.181 1.181 1.181h35.669c0.652 0 1.181-0.529 1.181-1.181v-14.568c-5.048 1.948-10.888 3.088-16.991 3.114z"></path>
<path fill="#45feff" style="fill: var(--color3, #45feff)" d="M10.899 5.62v-1.503c0-0.988 0.801-1.79 1.79-1.79h12.725c0.988 0 1.79 0.801 1.79 1.79v1.503h2.38v-1.503c0-0 0-0 0-0 0-2.273-1.843-4.116-4.116-4.116-0.019 0-0.038 0-0.057 0l-12.776-0c-2.273 0-4.116 1.843-4.116 4.116v1.503z"></path>
</symbol>
<symbol id="icon-user" viewBox="0 0 36 32">
<title>user</title>
<path fill="#45feff" style="fill: var(--color3, #45feff)" d="M21.712 16.836l-1.034-1.499c-0.202-0.25-0.502-0.414-0.842-0.431l-3.346-0c-0.342 0.017-0.643 0.181-0.843 0.429l-1.053 1.501c-0.060 0.076-0.097 0.173-0.097 0.278 0 0.183 0.11 0.34 0.266 0.41l2.433 1.242-1.43 10.184c-0.004 0.036-0.005 0.078-0.005 0.12 0 0.307 0.106 0.59 0.283 0.814l1.721 1.945c0.086 0.1 0.212 0.162 0.353 0.162s0.267-0.063 0.353-0.162l1.724-1.948c0.175-0.221 0.281-0.503 0.281-0.811 0-0.042-0.002-0.084-0.006-0.125l-1.413-10.179 2.43-1.241c0.181-0.060 0.309-0.228 0.309-0.426 0-0.099-0.032-0.19-0.086-0.264z"></path>
<path fill="#45feff" style="fill: var(--color3, #45feff)" d="M18.145 14.148c-3.902 0-7.065-3.163-7.065-7.065s3.163-7.065 7.065-7.065c3.896 0 7.055 3.153 7.065 7.047 0 0.001 0 0.001 0 0.001 0 3.905-3.161 7.073-7.064 7.082zM18.145 2.085c-2.731 0-4.945 2.214-4.945 4.946s2.214 4.946 4.946 4.946c2.719 0 4.926-2.195 4.945-4.909-0.010-2.726-2.22-4.93-4.946-4.93 0 0-0 0-0 0z"></path>
<path fill="#45feff" style="fill: var(--color3, #45feff)" d="M13.2 29.708c-0.237 0.006-0.516 0.009-0.796 0.009-4.228 0-8.273-0.787-11.994-2.224l-0.41-0.267v-0.689c0-7.614 6.172-13.786 13.786-13.786 0.595 0 1.077 0.482 1.077 1.077s-0.482 1.077-1.077 1.077c-0.006 0-0.013-0-0.020-0-6.181 0-11.237 4.822-11.61 10.91 3.173 1.127 6.831 1.758 10.636 1.758 0.137 0 0.275-0.001 0.412-0.002 0.569 0 1.048 0.479 1.048 1.069s-0.478 1.068-1.068 1.068z"></path>
<path fill="#45feff" style="fill: var(--color3, #45feff)" d="M23.108 29.708c-0.59 0-1.068-0.478-1.068-1.068s0.478-1.068 1.068-1.068c0.117 0.001 0.255 0.002 0.393 0.002 3.805 0 7.462-0.632 10.872-1.796-0.61-6.033-5.639-10.846-11.797-10.872-0.593 0-1.071-0.478-1.071-1.068s0.478-1.068 1.068-1.068c7.614 0 13.786 6.172 13.786 13.786v0.689l-0.689 0.327c-3.493 1.359-7.536 2.146-11.764 2.146-0.281 0-0.561-0.003-0.84-0.010z"></path>
</symbol>
<symbol id="icon-x" viewBox="0 0 32 32">
<title>x</title>
<path fill="#1d1d1b" opacity="0.5" style="fill: var(--color1, #1d1d1b)" d="M31.909 15.999c0 8.787-7.123 15.91-15.91 15.91s-15.91-7.123-15.91-15.91c0-8.787 7.123-15.91 15.91-15.91s15.91 7.123 15.91 15.91z"></path>
<path fill="#fff" style="fill: var(--color2, #fff)" d="M15.999 32c-8.836 0-15.999-7.163-15.999-15.999s7.163-15.999 15.999-15.999c8.836 0 15.999 7.163 15.999 15.999-0.010 8.832-7.167 15.989-15.998 15.999zM15.999 0.179c-8.737 0-15.82 7.083-15.82 15.82s7.083 15.82 15.82 15.82c8.737 0 15.82-7.083 15.82-15.82-0.010-8.733-7.087-15.81-15.82-15.82z"></path>
<path fill="#45feff" style="fill: var(--color3, #45feff)" d="M8.264 24.438l6.528-8.796-5.758-8.080h2.66l3.062 4.328c0.432 0.584 0.88 1.26 1.295 1.959 0.524-0.628 0.964-1.255 1.435-1.857l3.358-4.43h2.43l-5.927 7.955 6.39 8.921h-2.764l-4.248-6.020q-0.357-0.518-0.736-1.129-0.565 0.922-0.806 1.267l-4.237 5.883z"></path>
</symbol>
</defs>
</svg>
